<svg width="60" height="60" viewBox="0 0 60 60" fill="none" xmlns="http://www.w3.org/2000/svg">
<path d="M24.0992 20.9969C24.0992 21.1969 23.9992 21.3969 23.7992 21.5969L18.8992 25.9969C18.6992 26.1969 18.4992 26.1969 18.2992 26.1969C18.0992 26.1969 17.8992 26.0969 17.6992 25.9969L14.9992 23.5969C14.7992 23.3969 14.6992 23.1969 14.6992 22.9969C14.6992 22.7969 14.7992 22.5969 14.9992 22.3969C15.3992 22.0969 15.8992 22.0969 16.1992 22.3969L18.2992 24.1969L22.5992 20.3969C22.8992 20.0969 23.4992 20.0969 23.7992 20.3969C24.0992 20.4969 24.0992 20.6969 24.0992 20.9969Z" fill="white"/>
<path d="M24.1 29.7984C24.1 29.9984 24 30.2984 23.9 30.4984L19 35.7984C18.8 35.9984 18.6 36.0984 18.4 36.0984C18.2 36.0984 17.9 35.9984 17.8 35.7984L15.1 32.8984C14.8 32.4984 14.8 31.9984 15.1 31.5984C15.4 31.1984 16 31.1984 16.4 31.5984L18.4 33.7984L22.6 29.1984C22.9 28.7984 23.5 28.7984 23.9 29.1984C24.1 29.2984 24.1 29.4984 24.1 29.7984Z" fill="white"/>
<path d="M24.0992 39.7953C24.0992 39.9953 23.9992 40.1953 23.7992 40.3953L18.8992 44.7953C18.6992 44.9953 18.4992 44.9953 18.2992 44.9953C18.0992 44.9953 17.8992 44.8953 17.6992 44.7953L14.9992 42.3953C14.7992 42.1953 14.6992 41.9953 14.6992 41.7953C14.6992 41.5953 14.7992 41.3953 14.9992 41.1953C15.3992 40.8953 15.8992 40.8953 16.1992 41.1953L18.2992 43.0953L22.5992 39.2953C22.8992 38.9953 23.4992 38.9953 23.7992 39.2953C24.0992 39.3953 24.0992 39.5953 24.0992 39.7953Z" fill="white"/>
<path d="M34 53.1984C34 53.6984 33.6 54.1984 33 54.1984H14.5C13.3 54.1984 12.2 53.6984 11.3 52.8984C10.5 52.0984 10 50.8984 10 49.6984V12.8984C10 11.6984 10.5 10.5984 11.3 9.69844C12.1 8.89844 13.3 8.39844 14.5 8.39844H20.4C20.9 8.39844 21.4 8.79844 21.4 9.39844C21.4 9.89844 21 10.3984 20.4 10.3984H14.5C13.8 10.3984 13.2 10.6984 12.7 11.1984C12.2 11.6984 11.9 12.2984 11.9 12.9984V49.7984C11.9 50.4984 12.2 51.0984 12.7 51.5984C13.2 52.0984 13.8 52.3984 14.5 52.3984H33C33.6 52.1984 34 52.6984 34 53.1984Z" fill="white"/>
<path d="M46.3992 12.8969V35.4969C46.3992 35.7969 46.2992 35.9969 46.0992 36.1969C45.8992 36.3969 45.6992 36.4969 45.3992 36.4969C45.1992 36.4969 44.8992 36.3969 44.6992 36.1969C44.4992 35.9969 44.3992 35.7969 44.3992 35.4969V12.8969C44.3992 12.1969 44.0992 11.5969 43.5992 11.0969C43.1992 10.5969 42.5992 10.2969 41.8992 10.2969H36.1992C35.6992 10.2969 35.1992 9.89687 35.1992 9.29688C35.1992 8.79688 35.5992 8.29688 36.1992 8.29688H41.8992C43.0992 8.29688 44.1992 8.79688 45.0992 9.59688C45.8992 10.5969 46.3992 11.6969 46.3992 12.8969Z" fill="white"/>
<path d="M34.3992 6.3C34.1992 6.1 33.9992 6 33.6992 6H22.6992C22.4992 6 22.1992 6.1 21.9992 6.3C21.7992 6.5 21.6992 6.7 21.6992 7V12.1C21.6992 12.3 21.7992 12.6 21.9992 12.8C22.1992 13 22.3992 13.1 22.6992 13.1H33.6992C33.9992 13.1 34.1992 13 34.3992 12.8C34.5992 12.6 34.6992 12.4 34.6992 12.1V7C34.6992 6.7 34.5992 6.5 34.3992 6.3ZM32.7992 7.9V11H23.6992V7.9H32.7992Z" fill="white"/>
<path d="M34.5969 25.2969C34.5969 25.7969 34.1969 26.2969 33.5969 26.2969H25.7969C25.2969 26.2969 24.7969 25.8969 24.7969 25.2969C24.7969 24.7969 25.1969 24.2969 25.7969 24.2969H33.5969C34.1969 24.3969 34.5969 24.7969 34.5969 25.2969Z" fill="white"/>
<path d="M37.1969 22.0938C37.1969 22.5938 36.7969 23.0938 36.2969 23.0938H25.7969C25.5969 23.0938 25.2969 22.9938 25.0969 22.7938C24.8969 22.5938 24.7969 22.3937 24.7969 22.0938C24.7969 21.8938 24.8969 21.5938 25.0969 21.3938C25.2969 21.1938 25.4969 21.0938 25.7969 21.0938H36.2969C36.7969 21.1938 37.1969 21.5938 37.1969 22.0938Z" fill="white"/>
<path d="M34.5969 34.8984C34.5969 35.0984 34.4969 35.3984 34.2969 35.5984C34.0969 35.7984 33.8969 35.8984 33.5969 35.8984H25.7969C25.2969 35.8984 24.7969 35.4984 24.7969 34.8984C24.7969 34.3984 25.1969 33.8984 25.7969 33.8984H33.5969C33.7969 33.8984 34.0969 33.9984 34.2969 34.1984C34.4969 34.3984 34.5969 34.6984 34.5969 34.8984Z" fill="white"/>
<path d="M31.0969 44.2969C31.0969 44.7969 30.6969 45.2969 30.0969 45.2969H25.7969C25.2969 45.2969 24.7969 44.8969 24.7969 44.2969C24.7969 43.7969 25.1969 43.2969 25.7969 43.2969H30.0969C30.5969 43.3969 31.0969 43.7969 31.0969 44.2969Z" fill="white"/>
<path d="M37.1969 31.6953C37.1969 31.8953 37.0969 32.1953 36.8969 32.3953C36.6969 32.5953 36.4969 32.6953 36.1969 32.6953H25.7969C25.2969 32.6953 24.7969 32.2953 24.7969 31.6953C24.7969 31.1953 25.1969 30.6953 25.7969 30.6953H36.2969C36.4969 30.6953 36.7969 30.7953 36.9969 30.9953C37.0969 31.1953 37.1969 31.4953 37.1969 31.6953Z" fill="white"/>
<path d="M55.2971 44.8945C54.7971 43.1945 53.6971 41.6945 52.1971 40.6945C50.8971 39.8945 49.2971 39.4945 47.6971 39.6945L48.1971 38.8945C48.2971 38.6945 48.3971 38.3945 48.2971 38.1945C48.1971 37.9945 48.0971 37.6945 47.8971 37.5945C47.6971 37.4945 47.3971 37.3945 47.1971 37.4945C46.9971 37.5945 46.6971 37.6945 46.5971 37.8945L45.4971 39.8945C43.3971 38.8945 40.9971 38.8945 38.8971 39.8945C36.6971 40.8945 35.0971 42.8946 34.5971 45.1945C33.9971 47.5946 34.5971 49.9945 36.0971 51.8945C37.5971 53.7945 39.7971 54.7945 42.1971 54.7945H42.2971C44.6971 54.7945 46.9971 53.5946 48.3971 51.6945C49.6971 49.8946 50.2971 47.6945 49.8971 45.5945C51.3971 46.2945 53.0971 46.3945 54.5971 45.9945C54.7971 45.8945 55.0971 45.7945 55.1971 45.4945C55.2971 45.3945 55.3971 45.0945 55.2971 44.8945ZM53.0971 44.3945C52.0971 44.3945 51.0971 44.1945 50.2971 43.6945C49.3971 43.1945 48.6971 42.4945 48.2971 41.5945C49.2971 41.5945 50.2971 41.7945 51.1971 42.2945C51.8971 42.6945 52.5971 43.4945 53.0971 44.3945ZM45.8971 51.5945C44.4971 52.6945 42.6971 53.1945 40.8971 52.7945C39.0971 52.3945 37.6971 51.2945 36.7971 49.6945C35.9971 48.0946 35.8971 46.1945 36.6971 44.5945C37.3971 42.8945 38.8971 41.6945 40.5971 41.2945C41.0971 41.1945 41.5971 41.0945 42.0971 41.0945C42.8971 41.0945 43.6971 41.2945 44.3971 41.5945L43.8971 42.4945C43.7971 42.6945 43.6971 42.9945 43.7971 43.1945C43.8971 43.3946 43.9971 43.6945 44.2971 43.7945C44.7971 44.0945 45.2971 43.8945 45.5971 43.3945L46.0971 42.5945C47.2971 43.6945 48.0971 45.2945 48.0971 46.9945C48.0971 48.7945 47.2971 50.3945 45.8971 51.5945Z" fill="white"/>
</svg>
