<svg width="60" height="60" viewBox="0 0 60 60" fill="none" xmlns="http://www.w3.org/2000/svg">
<path d="M53.9 39.8H50.4C49.7 38.8 48.5 38.1 47.3 38C48.6 36.5 48.7 34.2 47.4 32.6V18.4C47.4 16.6 45.9 15.1 44.2 15.1H40.1C39.3 13.9 37.9 13.1 36.5 13.1C38.2 11.3 38.2 8.4 36.4 6.6C35.5 5.7 34.4 5.2 33.2 5.2C32 5.2 30.9 5.7 30.1 6.5C30 4 28 2 25.5 2C23 2 21 4 20.9 6.5C20.1 5.7 18.9 5.2 17.8 5.2C16.6 5.2 15.4 5.7 14.6 6.6C12.8 8.4 12.8 11.3 14.5 13.1C13 13.1 11.7 13.9 10.9 15.1H6.9C5 15.1 3.5 16.6 3.5 18.6V53.1C3.5 54.9 5 56.4 6.7 56.4H53.9C55.5 56.4 56.9 55 56.9 53.4V42.8C56.9 41.1 55.6 39.8 53.9 39.8ZM26.9 32.7H24.1V19.2C24.7 19 25.2 18.7 25.5 18.6C25.8 18.7 26.3 18.9 26.9 19.2V32.7ZM19.2 42.9C19.2 42.1 19.9 41.4 20.7 41.4H23.4C23.4 41.7 23.3 41.9 23.3 42.2C23.3 44.5 25.2 46.5 27.5 46.5C28.5 46.5 30.8 45.8 34.5 44.3V54.8H20.5C19.8 54.8 19.2 54.2 19.2 53.4V42.9ZM35.1 42.2C31.1 43.8 28.3 44.8 27.5 44.8C26.1 44.8 25 43.6 25 42.2C25 40.8 26.1 39.6 27.5 39.6C28.6 39.7 33.1 41.4 35.1 42.2ZM36.1 43.6C36.6 43.4 37 43.2 37.3 43.1C37.6 43.2 38 43.4 38.4 43.6V54.7H36.1V43.6ZM37.2 40C36.4 38 34.7 33.4 34.7 32.2C34.7 30.8 35.8 29.6 37.2 29.6C38.6 29.6 39.7 30.8 39.7 32.2C39.8 33.4 38.1 38 37.2 40ZM28.9 37.3C28.3 36.9 27.9 36.2 27.8 35.4C27.7 34.6 28 33.8 28.5 33.3C29 32.8 29.6 32.5 30.3 32.5C30.4 32.5 30.5 32.5 30.6 32.5C31.4 32.6 32.1 33.1 32.6 33.8C33.5 35.3 35 38.7 35.8 40.5C33.6 39.8 30.3 38.3 28.9 37.3ZM45.9 37C45.1 37.8 40.6 39.9 38.7 40.6C39.5 38.8 41.5 34.1 42.3 33.3C42.8 32.8 43.4 32.5 44.1 32.5C44.8 32.5 45.4 32.8 45.9 33.3C46.4 33.8 46.6 34.5 46.6 35.1C46.7 35.9 46.4 36.5 45.9 37ZM53.9 54.7H40V44.3C43.6 45.8 46 46.5 47 46.5C49.3 46.5 51.2 44.6 51.2 42.3C51.2 42.1 51.2 41.8 51.1 41.5H53.9C54.6 41.5 55.2 42.1 55.2 42.9V53.5C55.3 54.1 54.7 54.7 53.9 54.7ZM47 39.6C48.4 39.6 49.5 40.8 49.5 42.2C49.5 43.6 48.4 44.8 47 44.8C45.9 44.8 41.9 43.3 39.4 42.2C41.6 41.3 45.9 39.6 47 39.6ZM40.9 17.8C40.9 17.5 40.9 17.2 40.8 16.8H44.2C45.1 16.8 45.8 17.5 45.8 18.4V31.3C44.3 30.6 42.6 30.9 41.4 32C41.2 29.8 39.4 28 37.2 28C36 28 35 28.5 34.2 29.3C33.5 30 33.1 31 33.1 31.9C32.3 31.2 31.4 30.9 30.4 30.9C29.8 30.9 29.1 31 28.5 31.3V19.9C32.6 21.6 35.3 22.4 36.4 22.4C38.9 22.4 40.9 20.3 40.9 17.8ZM39.3 17.8C39.3 19.5 38 20.8 36.4 20.8C35.4 20.8 32.2 19.7 27.6 17.8C29.8 16.9 35 14.8 36.4 14.8C38 14.8 39.3 16.1 39.3 17.8ZM29 11.5C29.8 9.8 30.6 8.3 31.1 7.8C31.6 7.2 32.4 6.9 33.2 6.9C34 6.9 34.7 7.2 35.3 7.8C36.4 9 36.4 10.9 35.3 12C34.3 13 29.1 15.3 27.1 16.2C27.4 15.1 28.2 13.2 29 11.5ZM25.5 3.7C27.1 3.7 28.4 5 28.4 6.7C28.4 8 26.4 13.3 25.5 15.6C24.6 13.3 22.6 8 22.6 6.7C22.5 5 23.8 3.7 25.5 3.7ZM15.7 7.8C16.2 7.2 17 6.9 17.7 6.9C18.5 6.9 19.2 7.2 19.8 7.8C20.7 8.8 23 13.9 23.9 16.2C21.7 15.2 16.6 13 15.7 12C14.5 10.9 14.5 9 15.7 7.8ZM14.6 14.8C15.8 14.8 20.8 16.7 23.3 17.8C20.8 18.8 15.9 20.8 14.6 20.8C13 20.8 11.7 19.5 11.7 17.8C11.6 16.1 12.9 14.8 14.6 14.8ZM5.1 18.6C5.1 18.1 5.3 17.7 5.6 17.3C5.9 17 6.4 16.8 6.8 16.8H10C9.9 17.1 9.9 17.5 9.9 17.8C9.9 20.4 11.9 22.5 14.5 22.5C15.6 22.5 18.2 21.7 22.3 20V32.8H5.1V18.6ZM5.1 34.4H26.2C26 35.3 26.2 36.4 26.6 37.2H5.1V34.4ZM17.9 54.7H6.7C5.8 54.7 5.1 54 5.1 53.1V38.9H24.9C24.6 39.2 24.3 39.5 24 39.8H20.7C19 39.8 17.6 41.2 17.6 43V53.4C17.6 53.9 17.7 54.3 17.9 54.7Z" fill="white"/>
</svg>
