<svg width="48" height="48" viewBox="0 0 48 48" fill="none" xmlns="http://www.w3.org/2000/svg">
<path fill-rule="evenodd" clip-rule="evenodd" d="M31.8138 16.6989C32.1998 16.304 32.1925 15.6708 31.7975 15.2848C31.4026 14.8988 30.7694 14.9061 30.3834 15.3011L23.5493 22.2939L16.7152 15.3011C16.3292 14.9061 15.696 14.8988 15.3011 15.2848C14.9061 15.6708 14.8988 16.304 15.2848 16.6989L22.2866 23.8633L15.2848 31.0276C14.8988 31.4226 14.9061 32.0557 15.3011 32.4417C15.696 32.8278 16.3292 32.8205 16.7152 32.4255L23.5493 25.4327L30.3834 32.4255C30.7694 32.8205 31.4026 32.8278 31.7975 32.4417C32.1925 32.0557 32.1998 31.4226 31.8138 31.0276L24.812 23.8633L31.8138 16.6989Z" fill="white"/>
</svg>
