<svg width="32" height="32" viewBox="0 0 32 32" fill="none" xmlns="http://www.w3.org/2000/svg">
<path fill-rule="evenodd" clip-rule="evenodd" d="M27.4457 19.2157C27.4457 19.2157 29.8173 21.4504 30.404 22.4845C30.4154 22.4994 30.4243 22.516 30.4304 22.5335C30.6694 22.9155 30.7281 23.215 30.6108 23.4361C30.4128 23.8013 29.7425 23.9846 29.5152 24H25.3234C25.0316 24 24.4244 23.9272 23.6852 23.4403C23.1205 23.0638 22.5588 22.4439 22.0146 21.838C21.2021 20.9383 20.4996 20.1574 19.7882 20.1574C19.6984 20.1572 19.6091 20.1714 19.5242 20.1994C18.986 20.3617 18.3025 21.0936 18.3025 23.0429C18.3025 23.653 17.798 24 17.4445 24H15.5246C14.8705 24 11.4649 23.7817 8.44501 20.7437C4.74461 17.0243 1.42114 9.56306 1.38887 9.49729C1.18207 9.01452 1.6162 8.75144 2.08554 8.75144H6.31834C6.88594 8.75144 7.07074 9.07889 7.19981 9.37275C7.34941 9.70999 7.90381 11.0589 8.81314 12.5744C10.2857 15.0401 11.1906 16.0434 11.9137 16.0434C12.0495 16.0438 12.1831 16.01 12.3009 15.9454C13.2454 15.4501 13.0694 12.2316 13.0254 11.5683C13.0254 11.4396 13.0239 10.1312 12.5399 9.49869C12.1938 9.0453 11.6042 8.86899 11.2478 8.80462C11.3431 8.67308 11.5455 8.47158 11.8051 8.35263C12.4519 8.04478 13.6209 8 14.781 8H15.4249C16.6833 8.01679 17.0089 8.09376 17.4665 8.2043C18.3876 8.4142 18.4052 8.98373 18.3245 10.9232C18.301 11.4773 18.2761 12.1015 18.2761 12.8361C18.2761 12.9928 18.2688 13.1677 18.2688 13.3455C18.2409 14.3404 18.2042 15.4613 18.9405 15.9216C19.036 15.9784 19.1462 16.0085 19.2588 16.0084C19.514 16.0084 20.2781 16.0084 22.3505 12.615C23.2598 11.1163 23.9638 9.34896 24.0122 9.21602C24.0533 9.14186 24.1765 8.93336 24.3261 8.8494C24.4325 8.79538 24.5517 8.76839 24.6722 8.77103H29.6516C30.1942 8.77103 30.5624 8.8494 30.6342 9.0453C30.7545 9.36295 30.6108 10.3327 28.3374 13.2657C27.9546 13.7541 27.6188 14.1767 27.324 14.5461C25.2633 17.1265 25.2633 17.2566 27.4457 19.2157Z" fill="white"/>
</svg>
