<svg width="60" height="60" viewBox="0 0 60 60" fill="none" xmlns="http://www.w3.org/2000/svg">
<path d="M34 30C32.1 30 30.5 31.6 30.5 33.5C30.5 35.4 32.1 37 34 37C35.9 37 37.5 35.4 37.5 33.5C37.5 31.6 36 30 34 30ZM34 35C33.2 35 32.6 34.3 32.6 33.5C32.6 32.7 33.2 32 34 32C34.8 32 35.5 32.7 35.5 33.5C35.5 34.3 34.8 35 34 35Z" fill="white"/>
<path d="M43.9 30C42 30 40.4 31.6 40.4 33.5C40.4 35.4 42 37 43.9 37C45.8 37 47.4 35.4 47.4 33.5C47.4 31.6 45.9 30 43.9 30ZM43.9 35C43.1 35 42.5 34.3 42.5 33.5C42.5 32.7 43.1 32 43.9 32C44.7 32 45.4 32.7 45.4 33.5C45.4 34.3 44.7 35 43.9 35Z" fill="white"/>
<path d="M26.6 35.8C24.7 35.8 23.1 37.4 23.1 39.3C23.1 41.2 24.7 42.8 26.6 42.8C28.5 42.8 30.1 41.2 30.1 39.3C30.1 37.4 28.5 35.8 26.6 35.8ZM26.6 40.8C25.8 40.8 25.2 40.1 25.2 39.3C25.2 38.5 25.9 37.8 26.6 37.8C27.4 37.8 28.1 38.5 28.1 39.3C28.1 40.1 27.4 40.8 26.6 40.8Z" fill="white"/>
<path d="M53.8 20H40V6C40 5.4 39.5 5 39 5H20.9C20.3 5 19.9 5.5 19.9 6V20H6C5.4 20 5 20.5 5 21V39.3C5 39.9 5.5 40.3 6 40.3H19.8V54.3C19.8 54.9 20.3 55.3 20.8 55.3H38.9C44.3 55.3 48.2 51.7 48.2 46.8C48.2 41.6 44 37.4 38.9 37.4C33.8 37.4 29.6 41.6 29.6 46.8C29.6 49.4 30.7 51.7 32.6 53.3H21.9V39.3C21.9 38.7 21.4 38.3 20.9 38.3H7.1V22.1H20.9C21.5 22.1 21.9 21.6 21.9 21.1V7.1H38V21.1C38 21.7 38.5 22.1 39 22.1H52.8V36.2C52.3 36 51.8 35.9 51.3 35.9C49.4 35.9 47.8 37.5 47.8 39.4C47.8 41.3 49.4 42.9 51.3 42.9C53.2 42.9 54.8 41.3 54.8 39.4V21C54.8 20.5 54.4 20 53.8 20ZM31.8 46.9C31.8 42.9 35 39.6 39 39.6C43 39.6 46.2 42.9 46.2 46.9C46.2 50.7 43.2 53.4 39 53.4C34.7 53.3 31.8 50.7 31.8 46.9ZM51.3 40.8C50.5 40.8 49.8 40.1 49.8 39.3C49.8 38.5 50.5 37.8 51.3 37.8C52.1 37.8 52.8 38.5 52.8 39.3C52.8 40.1 52.1 40.8 51.3 40.8Z" fill="white"/>
</svg>
