<svg width="434" height="134" viewBox="0 0 434 134" fill="none" xmlns="http://www.w3.org/2000/svg">
<path d="M209.769 6.19987C208.789 5.20205 207.62 4.40865 206.329 3.86596C205.039 3.32327 203.652 3.04217 202.252 3.03906C200.843 3.04091 199.449 3.32703 198.154 3.88016C196.859 4.4333 195.691 5.24201 194.718 6.25749C193.718 5.24392 192.526 4.43768 191.212 3.88529C189.898 3.3329 188.487 3.0453 187.06 3.03906C185.659 3.04171 184.273 3.3226 182.982 3.86532C181.692 4.40803 180.522 5.20168 179.543 6.19987C178.595 7.15452 177.85 8.29072 177.355 9.53991C176.859 10.7891 176.623 12.1254 176.66 13.4681C176.957 25.0577 192.281 31.3382 193.776 31.9226C194.062 32.0409 194.367 32.1024 194.677 32.1037C195.042 32.1042 195.402 32.0167 195.726 31.8485C198.022 30.9184 212.363 24.6791 212.652 13.4681C212.689 12.1254 212.453 10.7891 211.957 9.53991C211.462 8.29072 210.717 7.15452 209.769 6.19987ZM194.66 27.4201C191.637 26.0866 181.36 20.9997 181.162 13.3529C181.143 12.6101 181.274 11.8711 181.55 11.1806C181.825 10.4902 182.239 9.86263 182.765 9.33598C183.912 8.20795 185.449 7.56003 187.06 7.52511C191.827 7.34402 195.883 14.3406 195.775 17.8554C197.576 16.6207 198.361 12.4639 197.229 10.3073C197.761 9.45746 198.501 8.7563 199.38 8.26963C200.258 7.78297 201.246 7.52678 202.252 7.52511C203.052 7.52763 203.845 7.68906 204.582 7.99997C205.32 8.31089 205.988 8.76506 206.547 9.33598C207.073 9.86263 207.486 10.4902 207.762 11.1806C208.037 11.8711 208.169 12.6101 208.15 13.3529C207.952 21.0162 197.667 26.1031 194.66 27.4283V27.4201Z" fill="#FBFBFB"/>
<path d="M277.063 69.5857C277.063 60.1691 279.915 52.2863 285.621 45.9372C291.326 39.5882 298.736 36.4164 307.85 36.4219C317.014 36.4219 324.449 39.5745 330.154 45.8796C335.859 52.1848 338.707 60.0868 338.696 69.5857C338.696 79.0187 335.846 86.9317 330.146 93.3247C324.446 99.7176 317.011 102.914 307.842 102.914C298.689 102.914 291.268 99.7369 285.579 93.3823C279.89 87.0278 277.052 79.0956 277.063 69.5857ZM295.319 69.5857C295.319 74.1184 296.42 77.8691 298.623 80.8378C299.716 82.2326 301.115 83.3599 302.712 84.1333C304.31 84.9068 306.063 85.306 307.84 85.3004C309.616 85.2949 311.367 84.8847 312.959 84.1013C314.552 83.3178 315.943 82.1818 317.028 80.7802C319.354 77.5186 320.539 73.5847 320.398 69.5857C320.398 65.1298 319.33 61.5108 317.193 58.7286C316.139 57.2363 314.73 56.0274 313.092 55.2101C311.455 54.3928 309.64 53.9925 307.809 54.045C306.043 53.9893 304.291 54.3635 302.703 55.1352C301.115 55.9069 299.74 57.0527 298.697 58.4735C296.445 61.4312 295.319 65.1353 295.319 69.5857Z" fill="#FBFBFB"/>
<path d="M177.493 74.2108V58.0528C177.526 50.9191 175.323 45.4453 170.885 41.6314C166.876 38.1743 161.509 36.443 154.785 36.4375C151.228 36.5083 147.737 37.4075 144.591 39.0633C141.953 40.4959 139.441 42.1481 137.082 44.002C135.087 41.4323 132.42 39.4589 129.375 38.2978C126.433 37.1147 123.295 36.4948 120.123 36.4704C116.9 36.4113 113.702 37.0341 110.739 38.2978C108.165 39.3825 105.962 41.1864 104.394 43.4917C103.693 41.9237 102.591 40.5669 101.198 39.5571C99.4813 38.2981 97.3973 37.6358 95.2664 37.6722C94.032 37.6245 92.802 37.844 91.6611 38.3158C90.5202 38.7876 89.4955 39.5004 88.6578 40.405C86.9911 42.2469 86.1032 44.6593 86.1796 47.1382V92.1303C86.1287 93.3922 86.3296 94.6517 86.7706 95.8357C87.2116 97.0197 87.8839 98.1048 88.7487 99.0281C89.5906 99.9105 90.6101 100.606 91.7404 101.068C92.8708 101.531 94.0864 101.75 95.3077 101.712C96.5425 101.757 97.7726 101.536 98.9134 101.063C100.054 100.589 101.079 99.8757 101.916 98.9705C103.62 97.1047 104.53 94.6519 104.452 92.1303V63.0492C104.357 60.2371 105.193 57.4718 106.831 55.1801C107.644 54.1779 108.672 53.3704 109.839 52.8176C111.007 52.2647 112.285 51.9805 113.578 51.986C114.871 51.9916 116.146 52.2867 117.309 52.8495C118.472 53.4124 119.493 54.2286 120.296 55.2377C121.975 57.4927 122.847 60.2427 122.774 63.0492V92.1303C122.724 93.3922 122.924 94.6517 123.365 95.8357C123.806 97.0197 124.479 98.1048 125.344 99.0281C126.181 99.8966 127.191 100.581 128.309 101.037C129.427 101.494 130.629 101.712 131.836 101.679C133.071 101.726 134.302 101.505 135.443 101.032C136.584 100.559 137.608 99.8441 138.445 98.9376C140.123 97.073 141.011 94.6333 140.923 92.1303V63.0492C140.828 60.2371 141.664 57.4718 143.302 55.1801C144.115 54.1779 145.143 53.3704 146.31 52.8176C147.478 52.2647 148.756 51.9805 150.049 51.986C151.342 51.9916 152.617 52.2867 153.78 52.8495C154.942 53.4124 155.964 54.2286 156.767 55.2377C158.446 57.4927 159.318 60.2427 159.245 63.0492V92.1303C159.196 93.392 159.398 94.651 159.839 95.8347C160.28 97.0185 160.951 98.1038 161.815 99.0281C163.267 100.568 165.243 101.514 167.357 101.679H167.746C167.952 101.679 168.15 101.679 168.357 101.679C168.563 101.679 168.762 101.679 168.968 101.679H177.46L177.493 74.2108Z" fill="#FBFBFB"/>
<path d="M360.223 12.9788C359.37 12.1007 358.35 11.4014 357.222 10.922C356.094 10.4427 354.882 10.193 353.656 10.1876C352.429 10.1822 351.214 10.4213 350.082 10.8908C348.95 11.3602 347.924 12.0506 347.064 12.9212C345.379 14.7984 344.491 17.2533 344.585 19.7696V92.1308C344.486 94.6746 345.401 97.1543 347.13 99.0286C348.595 100.587 350.6 101.532 352.739 101.671H353.069C353.276 101.671 353.474 101.671 353.689 101.671C353.904 101.671 354.094 101.671 354.3 101.671H362.842V19.7696C362.89 17.2526 361.95 14.8161 360.223 12.9788Z" fill="#FBFBFB"/>
<path d="M199.983 40.3049C199.128 39.4318 198.106 38.737 196.979 38.2608C195.851 37.7847 194.64 37.5367 193.416 37.5313C192.191 37.526 190.978 37.7633 189.846 38.2296C188.714 38.6959 187.687 39.3818 186.824 40.2473C185.126 42.0994 184.222 44.5393 184.304 47.0464V92.1949C184.255 93.4484 184.454 94.6993 184.891 95.8759C185.327 97.0526 185.993 98.1317 186.849 99.0516C188.318 100.602 190.322 101.541 192.458 101.677H192.788C192.995 101.677 193.193 101.677 193.399 101.677C193.606 101.677 193.812 101.677 194.019 101.677H202.56V47.0464C202.616 44.5503 201.692 42.1312 199.983 40.3049Z" fill="#FBFBFB"/>
<path d="M261.41 37.4872V37.6601C259.761 37.8133 258.195 38.4491 256.908 39.4874C255.601 40.5343 254.564 41.8777 253.884 43.4055C252.1 41.0669 249.773 39.1943 247.102 37.9481C244.252 36.8398 241.206 36.3163 238.148 36.4089C230.179 36.4089 223.482 39.6163 218.058 46.0313C212.633 52.4462 209.927 60.3592 209.938 69.7703C209.938 78.5503 212.14 85.92 216.546 91.8795C221.398 98.4316 228.006 101.708 236.372 101.708H236.743C239.721 101.768 242.685 101.302 245.5 100.333C248.598 99.2318 251.29 97.2234 253.224 94.5711C253.224 99.9818 252.051 104.065 249.705 106.819C247.358 109.574 243.457 110.946 237.999 110.935C233.99 110.935 229.413 109.643 224.27 107.058C222.542 106.118 220.626 105.572 218.661 105.461C217.664 105.494 216.686 105.734 215.788 106.167C214.89 106.599 214.093 107.214 213.448 107.972C212.701 108.69 212.104 109.549 211.692 110.498C211.279 111.447 211.059 112.469 211.044 113.503C211.044 118.025 214.404 121.578 221.123 124.163C226.643 126.228 232.499 127.261 238.396 127.208C248.143 127.208 255.914 124.755 261.707 119.849C268.261 114.219 271.535 105.875 271.529 94.818V37.4872H261.41ZM249.911 80.9483C248.82 82.3412 247.427 83.4699 245.836 84.2499C244.245 85.0298 242.497 85.4407 240.724 85.4518C238.951 85.4629 237.199 85.0739 235.598 84.3139C233.997 83.5539 232.59 82.4427 231.481 81.0636C229.279 78.1332 228.177 74.292 228.177 69.5398C228.177 65.0894 229.292 61.3908 231.523 58.444C232.575 57.0153 233.962 55.8652 235.564 55.0946C237.165 54.324 238.932 53.9564 240.709 54.0238C242.537 53.9813 244.348 54.3851 245.984 55.2C247.619 56.0149 249.03 57.2163 250.093 58.6992C252.208 61.4869 253.265 65.1168 253.265 69.5892C253.265 74.1658 252.147 77.9576 249.911 80.9648V80.9483Z" fill="#FBFBFB"/>
<path d="M428.393 12.984C427.569 12.0715 426.555 11.3491 425.422 10.8672C424.289 10.3852 423.065 10.1554 421.834 10.1936C420.599 10.147 419.37 10.3671 418.229 10.8388C417.088 11.3105 416.063 12.0227 415.225 12.9264C413.545 14.8029 412.657 17.2535 412.747 19.7666V41.5959C410.968 40.1002 408.978 38.8743 406.84 37.9577C403.891 36.8536 400.754 36.3308 397.605 36.4185C389.642 36.4185 382.945 39.6287 377.515 46.0491C372.085 52.4695 369.353 60.3139 369.32 69.5823C369.32 78.8671 372.055 86.7445 377.523 93.2143C382.992 99.684 389.669 102.916 397.555 102.911C404.208 102.911 409.44 100.573 413.251 95.8977C413.982 97.542 415.14 98.9626 416.605 100.013C417.832 100.952 419.295 101.536 420.834 101.701H421.148C421.371 101.701 421.602 101.701 421.834 101.701C422.065 101.701 422.247 101.701 422.445 101.701H430.953V19.7748C431.009 17.2672 430.091 14.8349 428.393 12.984ZM409.343 80.7768C408.255 82.179 406.86 83.315 405.264 84.0985C403.668 84.8819 401.913 85.292 400.134 85.2976C398.355 85.3031 396.599 84.904 394.998 84.1305C393.397 83.3571 391.995 82.2298 390.897 80.8344C388.694 77.8657 387.593 74.115 387.593 69.5823C387.593 65.0496 388.711 61.3455 390.947 58.4701C392 57.0385 393.39 55.8862 394.995 55.1141C396.599 54.3421 398.369 53.9738 400.149 54.0416C401.983 53.9894 403.802 54.3897 405.444 55.2068C407.085 56.0239 408.499 57.2325 409.558 58.7252C411.651 61.5074 412.697 65.1264 412.697 69.5823C412.697 74.0381 411.579 77.7696 409.343 80.7768Z" fill="#FBFBFB"/>
<path d="M80.6212 89.2917C80.0079 86.8289 79.224 84.4113 78.2752 82.0564L60.0191 32.4795C57.2655 25 54.757 20.2506 52.4936 18.2311C50.1293 16.1835 47.0745 15.1042 43.9438 15.2103C41.9539 15.1724 39.9849 15.6199 38.2082 16.5136C36.4315 17.4074 34.901 18.7204 33.7501 20.3383C32.1916 22.4291 30.3246 26.4761 28.1493 32.4795L17.5096 60.9021L3.07812 100.725C3.07812 100.725 10.9093 102.816 17.1874 101.68C18.2697 101.644 19.3334 101.389 20.3144 100.932C21.2954 100.475 22.1735 99.8253 22.8955 99.0211L23.0525 98.8236C23.5594 98.2683 23.9673 97.6308 24.2585 96.9386C25.0256 95.4517 25.6613 93.9011 26.1585 92.3044L28.5128 84.781H59.7217L62.076 92.3044C62.9847 95.5228 64.0751 97.7947 65.3224 99.1364C66.8865 100.859 69.1141 101.721 72.0053 101.721C74.3952 101.846 76.7477 101.09 78.6139 99.5973C79.4346 98.8839 80.0836 97.9955 80.5126 96.998C80.9416 96.0006 81.1397 94.9196 81.0921 93.8354C81.0895 92.3089 80.9317 90.7866 80.6212 89.2917ZM34.1549 67.1661L44.6294 36.4223L54.0714 67.1661H34.1549Z" fill="#FBFBFB"/>
<path d="M5.6782 114.043L10.2051 119.994V114.932C10.2051 113.771 10.5933 113.203 11.4276 113.203C12.262 113.203 12.6502 113.771 12.6502 114.932V122.768C12.6502 123.78 12.3198 124.233 11.535 124.233C11.1843 124.161 10.8525 124.017 10.5609 123.81C10.2692 123.604 10.0242 123.338 9.84159 123.031L5.71125 117.574V122.513C5.71125 123.673 5.32298 124.249 4.48865 124.249C3.65432 124.249 3.25781 123.673 3.25781 122.513V114.907C3.25781 113.837 3.61303 113.22 4.39779 113.22C4.66185 113.244 4.91605 113.332 5.13891 113.475C5.36177 113.619 5.54675 113.813 5.6782 114.043Z" fill="#FBFBFB"/>
<path d="M18.3599 124.314C16.4104 124.314 14.75 122.602 14.75 120.108C14.75 117.614 16.4021 115.894 18.4508 115.894C18.811 115.875 19.1705 115.94 19.5014 116.083C19.8324 116.226 20.1258 116.443 20.359 116.717C20.4589 116.499 20.6178 116.314 20.8178 116.182C21.0177 116.049 21.2508 115.975 21.4907 115.968C22.3168 115.968 22.672 116.519 22.672 117.68V122.462C22.672 123.623 22.292 124.191 21.4907 124.191C21.238 124.194 20.9909 124.116 20.7868 123.968C20.5826 123.819 20.4325 123.609 20.359 123.368C20.1197 123.666 19.8153 123.907 19.469 124.071C19.1226 124.235 18.7434 124.318 18.3599 124.314ZM17.1952 120.083C17.1952 121.285 17.8643 122.149 18.7399 122.149C19.6155 122.149 20.3012 121.26 20.3012 120.083C20.3012 118.906 19.599 118.058 18.7399 118.058C17.8808 118.058 17.1952 118.906 17.1952 120.083Z" fill="#FBFBFB"/>
<path d="M28.1207 115.158V116.261H28.4428C29.3928 116.261 29.9545 116.623 29.9545 117.265C29.9545 117.907 29.4589 118.294 28.4428 118.294H28.1207V122.5C28.1207 123.661 27.7572 124.229 26.9477 124.229C26.1381 124.229 25.7499 123.661 25.7499 122.5V118.294H25.659C24.8329 118.294 24.3125 117.882 24.3125 117.265C24.3125 116.648 24.7999 116.261 25.7499 116.261V115.158C25.7499 113.997 26.1298 113.438 26.9477 113.438C27.7655 113.438 28.1207 114.038 28.1207 115.158Z" fill="#FBFBFB"/>
<path d="M33.9958 117.712V120.395C33.9958 121.515 34.2519 122.149 35.2267 122.149C36.2014 122.149 36.4493 121.515 36.4493 120.395V117.712C36.4493 116.551 36.8292 116 37.6471 116C38.4649 116 38.8201 116.551 38.8201 117.712V120.881C38.8201 123.153 37.5397 124.314 35.2267 124.314C32.9137 124.314 31.625 123.153 31.625 120.881V117.712C31.625 116.551 32.005 116 32.8228 116C33.6406 116 33.9958 116.551 33.9958 117.712Z" fill="#FBFBFB"/>
<path d="M45.1517 115.891C45.4733 115.903 45.7776 116.038 46.0021 116.268C46.2265 116.498 46.3538 116.805 46.3578 117.125C46.3578 118.072 45.3004 118.146 44.3339 118.599C43.6731 118.92 43.5822 119.208 43.5822 120.014V122.484C43.5822 123.644 43.2187 124.212 42.4009 124.212C41.5831 124.212 41.2031 123.644 41.2031 122.484V117.701C41.2031 116.541 41.5831 115.989 42.4009 115.989C42.6413 115.995 42.8752 116.068 43.0755 116.201C43.2758 116.333 43.4343 116.52 43.5326 116.738C43.7312 116.496 43.9769 116.295 44.2552 116.15C44.5334 116.004 44.8384 115.916 45.1517 115.891Z" fill="#FBFBFB"/>
<path d="M51.1182 124.314C49.1604 124.314 47.5 122.602 47.5 120.108C47.5 117.614 49.1521 115.894 51.209 115.894C51.5681 115.875 51.9266 115.94 52.2563 116.082C52.586 116.225 52.8779 116.442 53.109 116.717C53.2103 116.499 53.3707 116.313 53.5721 116.181C53.7734 116.048 54.0079 115.975 54.249 115.968C55.0751 115.968 55.422 116.519 55.422 117.68V122.462C55.422 123.623 55.0503 124.191 54.249 124.191C53.9952 124.195 53.7469 124.117 53.5413 123.969C53.3357 123.82 53.1841 123.609 53.109 123.368C52.8731 123.668 52.5705 123.91 52.2251 124.074C51.8797 124.238 51.5008 124.32 51.1182 124.314ZM49.9534 120.084C49.9534 121.285 50.6143 122.15 51.4899 122.15C52.3655 122.15 53.0512 121.261 53.0512 120.084C53.0512 118.906 52.3573 118.059 51.4899 118.059C50.6225 118.059 49.9534 118.906 49.9534 120.084Z" fill="#FBFBFB"/>
<path d="M60.2697 114.338V122.495C60.2697 123.655 59.9062 124.223 59.0884 124.223C58.2706 124.223 57.8906 123.655 57.8906 122.495V114.338C57.8906 113.177 58.2706 112.617 59.0884 112.617C59.9062 112.617 60.2697 113.21 60.2697 114.338Z" fill="#FBFBFB"/>
<path d="M65.3643 122.856C65.3654 123.036 65.3304 123.215 65.2614 123.382C65.1924 123.549 65.0907 123.7 64.9622 123.828C64.8338 123.955 64.6812 124.055 64.5134 124.123C64.3456 124.191 64.1658 124.225 63.9848 124.222C63.8035 124.227 63.6231 124.195 63.4547 124.128C63.2863 124.06 63.1333 123.96 63.005 123.832C62.8768 123.704 62.776 123.552 62.7086 123.384C62.6413 123.216 62.609 123.037 62.6135 122.856C62.5988 122.667 62.6234 122.477 62.6859 122.298C62.7483 122.119 62.8473 121.955 62.9764 121.816C63.1056 121.677 63.2622 121.566 63.4364 121.49C63.6107 121.414 63.7988 121.375 63.9889 121.375C64.1791 121.375 64.3672 121.414 64.5414 121.49C64.7156 121.566 64.8722 121.677 65.0014 121.816C65.1306 121.955 65.2295 122.119 65.2919 122.298C65.3544 122.477 65.379 122.667 65.3643 122.856Z" fill="#FBFBFB"/>
<path d="M80.0493 117.524V114.947C80.0493 113.787 80.4458 113.219 81.2801 113.219C82.1144 113.219 82.5027 113.787 82.5027 114.947V122.512C82.5027 123.672 82.1062 124.249 81.2801 124.249C80.454 124.249 80.0493 123.672 80.0493 122.512V119.787H75.5472V122.512C75.5472 123.672 75.1507 124.249 74.3163 124.249C73.482 124.249 73.0938 123.672 73.0938 122.512V114.947C73.0938 113.787 73.4903 113.219 74.3163 113.219C75.1424 113.219 75.5472 113.787 75.5472 114.947V117.524H80.0493Z" fill="#FBFBFB"/>
<path d="M88.8707 122.269C90.0603 122.269 90.8368 121.495 91.3489 121.495C91.4737 121.487 91.5988 121.505 91.7161 121.548C91.8334 121.591 91.9403 121.658 92.0299 121.745C92.1195 121.832 92.1897 121.937 92.2361 122.052C92.2824 122.168 92.3038 122.292 92.2989 122.417C92.2989 123.355 90.7872 124.343 88.7138 124.343C88.1614 124.351 87.6131 124.247 87.1023 124.038C86.5914 123.828 86.1287 123.517 85.7424 123.123C85.356 122.73 85.054 122.262 84.8547 121.749C84.6555 121.235 84.5632 120.687 84.5834 120.137C84.5555 119.595 84.6383 119.053 84.8269 118.543C85.0154 118.034 85.3058 117.568 85.6805 117.174C86.0551 116.78 86.5061 116.466 87.0062 116.251C87.5064 116.036 88.0451 115.924 88.5899 115.922C89.1051 115.914 89.6166 116.01 90.0939 116.204C90.5711 116.397 91.0043 116.685 91.3675 117.049C91.7307 117.413 92.0165 117.847 92.2077 118.324C92.399 118.8 92.4918 119.311 92.4806 119.824C92.4806 120.647 92.1007 120.787 91.2994 120.787H87.0369C87.0574 121.005 87.1214 121.217 87.2252 121.41C87.329 121.603 87.4704 121.774 87.6412 121.912C87.812 122.05 88.0088 122.153 88.2199 122.214C88.431 122.275 88.6523 122.294 88.8707 122.269ZM90.2007 119.248C90.1672 118.861 89.9873 118.501 89.6974 118.241C89.4075 117.981 89.0293 117.841 88.6394 117.848C88.2485 117.846 87.8703 117.987 87.5776 118.246C87.2848 118.504 87.0982 118.861 87.0534 119.248H90.2007Z" fill="#FBFBFB"/>
<path d="M97.6338 124.314C95.6843 124.314 94.0156 122.602 94.0156 120.108C94.0156 117.614 95.6678 115.894 97.7247 115.894C98.0848 115.875 98.4444 115.94 98.7753 116.083C99.1062 116.226 99.3997 116.443 99.6329 116.717C99.732 116.499 99.8907 116.313 100.091 116.18C100.291 116.048 100.524 115.974 100.765 115.968C101.591 115.968 101.946 116.519 101.946 117.68V122.462C101.946 123.623 101.566 124.191 100.765 124.191C100.512 124.194 100.265 124.116 100.061 123.968C99.8565 123.819 99.7064 123.609 99.6329 123.368C99.3936 123.666 99.0892 123.907 98.7428 124.071C98.3965 124.235 98.0172 124.318 97.6338 124.314ZM96.469 120.083C96.469 121.285 97.1382 122.149 98.0138 122.149C98.8894 122.149 99.5668 121.26 99.5668 120.083C99.5668 118.906 98.8729 118.058 98.0138 118.058C97.1547 118.058 96.469 118.906 96.469 120.083Z" fill="#FBFBFB"/>
<path d="M106.785 114.338V122.495C106.785 123.655 106.421 124.223 105.604 124.223C104.786 124.223 104.414 123.655 104.414 122.495V114.338C104.414 113.177 104.786 112.617 105.604 112.617C106.421 112.617 106.785 113.21 106.785 114.338Z" fill="#FBFBFB"/>
<path d="M112.316 115.158V116.261H112.63C113.58 116.261 114.142 116.623 114.142 117.265C114.142 117.907 113.646 118.294 112.63 118.294H112.316V122.5C112.316 123.661 111.953 124.229 111.135 124.229C110.317 124.229 109.937 123.661 109.937 122.5V118.294H109.846C109.02 118.294 108.5 117.882 108.5 117.265C108.5 116.648 108.987 116.261 109.937 116.261V115.158C109.937 113.997 110.317 113.438 111.135 113.438C111.953 113.438 112.316 114.038 112.316 115.158Z" fill="#FBFBFB"/>
<path d="M118.184 116.693C118.455 116.441 118.776 116.25 119.126 116.13C119.476 116.011 119.848 115.967 120.216 116.001C122.075 116.001 123.116 117.005 123.116 119.071V122.479C123.116 123.64 122.752 124.224 121.935 124.224C121.117 124.224 120.745 123.656 120.745 122.496V119.796C120.745 118.545 120.439 118.018 119.473 118.018C118.506 118.018 118.168 118.561 118.168 119.746V122.463C118.168 123.623 117.804 124.208 116.995 124.208C116.185 124.208 115.797 123.64 115.797 122.479V114.338C115.797 113.178 116.177 112.602 116.995 112.602C117.812 112.602 118.168 113.178 118.168 114.338V116.676L118.184 116.693Z" fill="#FBFBFB"/>
<path d="M127.145 117.145L128.491 120.734L129.953 116.948C130.21 116.298 130.515 116.001 131.003 116.001C131.157 115.987 131.312 116.006 131.458 116.057C131.604 116.108 131.738 116.189 131.849 116.297C131.961 116.404 132.047 116.534 132.104 116.677C132.16 116.821 132.185 116.975 132.176 117.129C132.164 117.413 132.099 117.692 131.986 117.952L128.351 126.537C128.095 127.155 127.839 127.509 127.31 127.509C127.153 127.523 126.995 127.504 126.847 127.452C126.699 127.399 126.563 127.315 126.451 127.206C126.338 127.096 126.251 126.963 126.196 126.816C126.14 126.67 126.117 126.513 126.129 126.356C126.13 126.07 126.197 125.788 126.327 125.533L127.31 123.401L124.906 117.812C124.811 117.603 124.763 117.375 124.766 117.145C124.764 116.992 124.792 116.84 124.85 116.697C124.907 116.555 124.993 116.426 125.101 116.317C125.21 116.208 125.339 116.122 125.482 116.063C125.624 116.005 125.777 115.975 125.93 115.977C126.6 116.001 126.872 116.405 127.145 117.145Z" fill="#FBFBFB"/>
<path d="M136.474 122.856C136.475 123.036 136.44 123.215 136.371 123.382C136.302 123.549 136.2 123.7 136.072 123.828C135.943 123.955 135.791 124.055 135.623 124.123C135.455 124.191 135.275 124.225 135.094 124.222C134.913 124.227 134.732 124.195 134.564 124.128C134.396 124.06 134.243 123.96 134.114 123.832C133.986 123.704 133.885 123.552 133.818 123.384C133.751 123.216 133.718 123.037 133.723 122.856C133.708 122.667 133.733 122.477 133.795 122.298C133.858 122.119 133.957 121.955 134.086 121.816C134.215 121.677 134.372 121.566 134.546 121.49C134.72 121.414 134.908 121.375 135.098 121.375C135.288 121.375 135.477 121.414 135.651 121.49C135.825 121.566 135.982 121.677 136.111 121.816C136.24 121.955 136.339 122.119 136.401 122.298C136.464 122.477 136.488 122.667 136.474 122.856Z" fill="#FBFBFB"/>
<path d="M148.095 113.414C150.573 113.414 152.043 114.847 152.043 117.061C152.043 119.275 150.672 120.691 148.293 120.691H146.641V122.526C146.641 123.687 146.244 124.263 145.41 124.263C144.576 124.263 144.188 123.687 144.188 122.526V115.118C144.188 113.933 144.518 113.406 145.84 113.406L148.095 113.414ZM146.649 118.477H147.707C148.822 118.477 149.359 117.991 149.359 117.061C149.359 116.131 148.813 115.653 147.707 115.653H146.649V118.477Z" fill="#FBFBFB"/>
<path d="M157.878 122.27C159.076 122.27 159.844 121.496 160.356 121.496C160.482 121.487 160.608 121.504 160.726 121.547C160.844 121.589 160.952 121.656 161.043 121.743C161.133 121.83 161.204 121.936 161.251 122.052C161.298 122.168 161.32 122.293 161.315 122.418C161.315 123.357 159.803 124.344 157.729 124.344C157.177 124.353 156.629 124.249 156.118 124.039C155.607 123.829 155.144 123.518 154.758 123.125C154.372 122.731 154.07 122.264 153.87 121.75C153.671 121.237 153.579 120.688 153.599 120.138C153.571 119.596 153.654 119.054 153.842 118.545C154.031 118.036 154.321 117.57 154.696 117.176C155.071 116.782 155.522 116.468 156.022 116.252C156.522 116.037 157.061 115.925 157.605 115.924C158.124 115.907 158.641 115.995 159.124 116.183C159.607 116.372 160.047 116.655 160.417 117.018C160.787 117.38 161.079 117.814 161.276 118.292C161.473 118.771 161.57 119.284 161.562 119.801C161.562 120.624 161.182 120.764 160.381 120.764H156.11C156.146 121.196 156.352 121.597 156.683 121.88C157.014 122.162 157.444 122.302 157.878 122.27ZM159.208 119.249C159.179 118.862 159.001 118.501 158.712 118.241C158.423 117.98 158.045 117.84 157.655 117.85C157.264 117.847 156.886 117.989 156.593 118.247C156.3 118.505 156.114 118.862 156.069 119.249H159.208Z" fill="#FBFBFB"/>
<path d="M167.433 115.891C167.755 115.903 168.061 116.038 168.286 116.268C168.512 116.497 168.641 116.804 168.647 117.125C168.647 118.072 167.582 118.146 166.615 118.599C165.954 118.92 165.863 119.208 165.863 120.014V122.484C165.863 123.644 165.5 124.212 164.682 124.212C163.864 124.212 163.484 123.644 163.484 122.484V117.701C163.484 116.541 163.864 115.989 164.682 115.989C164.923 115.994 165.157 116.067 165.358 116.199C165.558 116.332 165.716 116.519 165.814 116.738C166.013 116.496 166.259 116.296 166.537 116.151C166.815 116.005 167.12 115.917 167.433 115.891Z" fill="#FBFBFB"/>
<path d="M175.008 113.811C175.008 114.477 174.595 114.683 173.918 114.79C173.422 114.864 173.339 115.004 173.339 115.679V116.255H173.736C174.686 116.255 175.248 116.618 175.248 117.26C175.248 117.902 174.752 118.289 173.736 118.289H173.339V122.495C173.339 123.655 172.976 124.223 172.166 124.223C171.357 124.223 170.969 123.655 170.969 122.495V118.289H170.878C170.052 118.289 169.531 117.877 169.531 117.26C169.531 116.642 170.019 116.255 170.969 116.255V115.803C170.969 113.72 171.861 112.617 173.447 112.617C174.413 112.617 175.008 113.086 175.008 113.811Z" fill="#FBFBFB"/>
<path d="M180.386 122.269C181.584 122.269 182.352 121.495 182.865 121.495C182.99 121.485 183.115 121.502 183.233 121.545C183.351 121.588 183.459 121.655 183.548 121.742C183.638 121.829 183.709 121.934 183.754 122.051C183.8 122.167 183.821 122.292 183.815 122.417C183.815 123.355 182.303 124.343 180.229 124.343C179.677 124.351 179.129 124.247 178.618 124.037C178.107 123.828 177.644 123.517 177.258 123.123C176.872 122.73 176.57 122.262 176.37 121.749C176.171 121.235 176.079 120.687 176.099 120.137C176.071 119.594 176.154 119.051 176.343 118.541C176.532 118.031 176.823 117.565 177.199 117.171C177.574 116.777 178.026 116.463 178.528 116.248C179.029 116.034 179.568 115.923 180.114 115.922C180.628 115.915 181.139 116.012 181.615 116.206C182.091 116.4 182.524 116.688 182.886 117.052C183.248 117.416 183.533 117.849 183.724 118.325C183.915 118.802 184.007 119.311 183.996 119.824C183.996 120.647 183.616 120.787 182.815 120.787H178.586C178.627 121.221 178.841 121.621 179.178 121.899C179.516 122.177 179.95 122.31 180.386 122.269ZM181.716 119.248C181.685 118.86 181.505 118.499 181.215 118.238C180.925 117.978 180.545 117.839 180.155 117.848C179.765 117.848 179.387 117.99 179.095 118.248C178.803 118.505 178.616 118.861 178.569 119.248H181.716Z" fill="#FBFBFB"/>
<path d="M192.319 117.418C192.325 117.549 192.304 117.68 192.257 117.803C192.21 117.925 192.138 118.037 192.046 118.131C191.954 118.225 191.843 118.3 191.721 118.35C191.599 118.4 191.468 118.424 191.336 118.422C190.899 118.422 190.337 118.06 189.684 118.06C188.718 118.06 188.032 118.883 188.032 120.126C188.032 121.369 188.685 122.151 189.775 122.151C190.333 122.063 190.884 121.942 191.427 121.788C191.556 121.793 191.682 121.822 191.798 121.877C191.915 121.931 192.019 122.008 192.105 122.103C192.191 122.199 192.256 122.31 192.297 122.432C192.338 122.553 192.354 122.681 192.344 122.809C192.344 123.632 191.212 124.315 189.552 124.315C187.223 124.315 185.603 122.628 185.603 120.109C185.564 119.554 185.644 118.997 185.836 118.475C186.028 117.953 186.33 117.477 186.72 117.079C187.11 116.681 187.58 116.369 188.1 116.165C188.619 115.961 189.176 115.869 189.734 115.895C191.262 115.895 192.319 116.504 192.319 117.418Z" fill="#FBFBFB"/>
<path d="M197.332 115.158V116.261H197.654C198.604 116.261 199.166 116.623 199.166 117.265C199.166 117.907 198.67 118.294 197.654 118.294H197.332V122.5C197.332 123.661 196.968 124.229 196.159 124.229C195.349 124.229 194.961 123.661 194.961 122.5V118.294H194.87C194.044 118.294 193.523 117.882 193.523 117.265C193.523 116.648 194.011 116.261 194.961 116.261V115.158C194.961 113.997 195.341 113.438 196.159 113.438C196.976 113.438 197.332 114.038 197.332 115.158Z" fill="#FBFBFB"/>
<path d="M203.442 122.856C203.445 123.036 203.411 123.215 203.343 123.381C203.274 123.548 203.174 123.7 203.046 123.827C202.918 123.954 202.766 124.055 202.599 124.123C202.431 124.191 202.252 124.225 202.071 124.222C201.889 124.227 201.709 124.195 201.54 124.128C201.371 124.061 201.218 123.96 201.089 123.833C200.96 123.705 200.858 123.553 200.79 123.385C200.722 123.217 200.688 123.037 200.692 122.856C200.677 122.667 200.702 122.477 200.764 122.298C200.826 122.119 200.925 121.955 201.055 121.816C201.184 121.677 201.34 121.566 201.515 121.49C201.689 121.414 201.877 121.375 202.067 121.375C202.257 121.375 202.445 121.414 202.62 121.49C202.794 121.566 202.95 121.677 203.08 121.816C203.209 121.955 203.308 122.119 203.37 122.298C203.433 122.477 203.457 122.667 203.442 122.856Z" fill="#FBFBFB"/>
</svg>
