<svg width="142" height="44" viewBox="0 0 142 44" fill="none" xmlns="http://www.w3.org/2000/svg">
<g clip-path="url(#clip0_388_11318)">
<path d="M68.631 2.03788C68.3104 1.71024 67.9279 1.44971 67.5056 1.27152C67.0833 1.09332 66.6297 1.00102 66.1714 1C65.7105 1.00061 65.2544 1.09456 64.8308 1.27618C64.4072 1.45781 64.0247 1.72335 63.7064 2.0568C63.3792 1.72398 62.9894 1.45925 62.5594 1.27787C62.1293 1.09648 61.6677 1.00205 61.2009 1C60.7426 1.00087 60.289 1.0931 59.8667 1.27131C59.4444 1.44951 59.0618 1.71011 58.7414 2.03788C58.4311 2.35134 58.1876 2.72442 58.0254 3.13461C57.8633 3.54479 57.786 3.98356 57.7981 4.42446C57.8954 8.23001 62.9091 10.2922 63.3983 10.4841C63.4917 10.523 63.5918 10.5432 63.6929 10.5436C63.8124 10.5438 63.9302 10.515 64.0362 10.4598C64.7876 10.1544 69.4796 8.10568 69.5742 4.42446C69.5864 3.98356 69.509 3.54479 69.3469 3.13461C69.1848 2.72442 68.9412 2.35134 68.631 2.03788ZM63.6875 9.00571C62.6983 8.56786 59.336 6.89752 59.2711 4.38662C59.2647 4.14273 59.3079 3.90007 59.398 3.67336C59.4882 3.44664 59.6234 3.24058 59.7955 3.06765C60.1709 2.69725 60.6737 2.4845 61.2009 2.47303C62.7605 2.41357 64.0875 4.71095 64.0524 5.86505C64.6416 5.45963 64.8984 4.09471 64.5281 3.38658C64.7022 3.10753 64.9443 2.8773 65.2317 2.7175C65.5192 2.5577 65.8425 2.47358 66.1714 2.47303C66.4334 2.47386 66.6926 2.52686 66.9339 2.62896C67.1753 2.73105 67.3938 2.88018 67.5769 3.06765C67.749 3.24058 67.8842 3.44664 67.9743 3.67336C68.0644 3.90007 68.1076 4.14273 68.1012 4.38662C68.0363 6.90293 64.6713 8.57326 63.6875 9.00842V9.00571Z" fill="white"/>
<path d="M90.6484 22.8427C90.6484 19.7507 91.5818 17.1623 93.4486 15.0776C95.3153 12.9928 97.7397 11.9513 100.722 11.9531C103.72 11.9531 106.153 12.9883 108.019 15.0587C109.886 17.129 110.818 19.7237 110.814 22.8427C110.814 25.9402 109.882 28.5385 108.017 30.6376C106.152 32.7368 103.719 33.7864 100.719 33.7864C97.7244 33.7864 95.2964 32.7431 93.435 30.6566C91.5737 28.57 90.6448 25.9654 90.6484 22.8427ZM96.6217 22.8427C96.6217 24.3311 96.982 25.5627 97.7028 26.5375C98.0604 26.9955 98.5181 27.3656 99.0408 27.6196C99.5634 27.8735 100.137 28.0046 100.718 28.0028C101.299 28.001 101.872 27.8663 102.393 27.609C102.915 27.3518 103.37 26.9788 103.725 26.5186C104.486 25.4476 104.873 24.1558 104.827 22.8427C104.827 21.3796 104.478 20.1913 103.779 19.2777C103.434 18.7877 102.973 18.3908 102.437 18.1224C101.901 17.854 101.307 17.7226 100.708 17.7398C100.131 17.7215 99.5572 17.8444 99.0377 18.0978C98.5182 18.3512 98.0683 18.7274 97.7271 19.1939C96.9901 20.1652 96.6217 21.3814 96.6217 22.8427Z" fill="white"/>
<path d="M58.0708 24.3719V19.0663C58.0816 16.7239 57.3608 14.9265 55.9085 13.6742C54.5968 12.539 52.8408 11.9706 50.6407 11.9688C49.4769 11.992 48.3347 12.2873 47.3055 12.8309C46.4423 13.3014 45.6205 13.8439 44.8486 14.4526C44.1958 13.6088 43.3234 12.9608 42.3269 12.5796C41.3645 12.1911 40.3376 11.9876 39.2998 11.9796C38.2454 11.9601 37.1989 12.1646 36.2294 12.5796C35.3873 12.9358 34.6664 13.5281 34.1536 14.2851C33.9242 13.7702 33.5635 13.3247 33.1076 12.9931C32.5461 12.5797 31.8642 12.3622 31.167 12.3742C30.7632 12.3585 30.3607 12.4306 29.9874 12.5855C29.6141 12.7404 29.2789 12.9745 29.0048 13.2715C28.4594 13.8763 28.1689 14.6684 28.1939 15.4824V30.2559C28.1773 30.6703 28.243 31.0838 28.3873 31.4726C28.5316 31.8614 28.7516 32.2177 29.0345 32.5209C29.31 32.8106 29.6435 33.0389 30.0134 33.1907C30.3832 33.3426 30.7809 33.4146 31.1805 33.402C31.5846 33.417 31.987 33.3443 32.3603 33.1889C32.7335 33.0336 33.0687 32.7992 33.3428 32.502C33.9003 31.8893 34.1979 31.0839 34.1725 30.2559V20.7069C34.1413 19.7835 34.4149 18.8755 34.951 18.123C35.2167 17.7939 35.5531 17.5288 35.9352 17.3473C36.3173 17.1657 36.7353 17.0724 37.1583 17.0742C37.5813 17.0761 37.9985 17.173 38.379 17.3578C38.7595 17.5426 39.0936 17.8106 39.3565 18.142C39.9057 18.8824 40.1911 19.7854 40.1674 20.7069V30.2559C40.1507 30.6703 40.2164 31.0838 40.3607 31.4726C40.505 31.8614 40.725 32.2177 41.0079 32.5209C41.2818 32.8061 41.6123 33.0308 41.9781 33.1807C42.344 33.3306 42.7371 33.4023 43.1323 33.3912C43.5364 33.4067 43.9391 33.3343 44.3124 33.1789C44.6857 33.0235 45.0209 32.7888 45.2946 32.4912C45.8436 31.8789 46.1342 31.0778 46.1054 30.2559V20.7069C46.0742 19.7835 46.3478 18.8755 46.8838 18.123C47.1496 17.7939 47.486 17.5288 47.8681 17.3473C48.2502 17.1657 48.6682 17.0724 49.0912 17.0742C49.5142 17.0761 49.9314 17.173 50.3119 17.3578C50.6924 17.5426 51.0265 17.8106 51.2894 18.142C51.8386 18.8824 52.124 19.7854 52.1003 20.7069V30.2559C52.0842 30.6702 52.1502 31.0836 52.2945 31.4723C52.4387 31.861 52.6584 32.2174 52.9408 32.5209C53.4159 33.0267 54.0626 33.337 54.7544 33.3912H54.8815C54.949 33.3912 55.0139 33.3912 55.0815 33.3912C55.149 33.3912 55.2139 33.3912 55.2815 33.3912H58.06L58.0708 24.3719Z" fill="white"/>
<path d="M117.857 4.2603C117.578 3.97196 117.244 3.74234 116.875 3.58493C116.506 3.42753 116.109 3.34554 115.708 3.34378C115.307 3.34202 114.91 3.42052 114.539 3.57467C114.169 3.72882 113.833 3.95551 113.552 4.24138C113 4.85779 112.71 5.66385 112.741 6.49012V30.2505C112.708 31.0858 113.007 31.9 113.573 32.5154C114.052 33.0273 114.709 33.3375 115.408 33.383H115.516C115.584 33.383 115.649 33.383 115.719 33.383C115.789 33.383 115.852 33.383 115.919 33.383H118.714V6.49012C118.73 5.66362 118.422 4.86359 117.857 4.2603Z" fill="white"/>
<path d="M65.4292 13.2311C65.1493 12.9444 64.8152 12.7162 64.4463 12.5599C64.0774 12.4035 63.6811 12.3221 63.2804 12.3203C62.8797 12.3186 62.4827 12.3965 62.1125 12.5496C61.7422 12.7027 61.4061 12.9279 61.1237 13.2122C60.5682 13.8203 60.2723 14.6215 60.2993 15.4447V30.2696C60.2831 30.6812 60.3483 31.0919 60.4911 31.4783C60.634 31.8646 60.8517 32.219 61.1318 32.521C61.6124 33.0302 62.2682 33.3383 62.967 33.3832H63.0751C63.1427 33.3832 63.2075 33.3832 63.2751 33.3832C63.3427 33.3832 63.4102 33.3832 63.4778 33.3832H66.2725V15.4447C66.2908 14.6251 65.9882 13.8307 65.4292 13.2311Z" fill="white"/>
<path d="M85.5287 12.3106V12.3674C84.9893 12.4177 84.4767 12.6265 84.0557 12.9674C83.628 13.3112 83.2888 13.7523 83.0664 14.2539C82.4825 13.486 81.7211 12.8712 80.8474 12.462C79.9148 12.0981 78.9183 11.9261 77.9176 11.9566C75.3103 11.9566 73.1192 13.0098 71.3444 15.1161C69.5695 17.2225 68.6839 19.8208 68.6875 22.911C68.6875 25.794 69.4083 28.2139 70.8498 30.1708C72.4372 32.3222 74.5995 33.3979 77.3365 33.3979H77.4581C78.4323 33.4177 79.4022 33.2649 80.3231 32.9466C81.3369 32.585 82.2177 31.9255 82.8502 31.0546C82.8502 32.8312 82.4664 34.1718 81.6988 35.0764C80.9312 35.9809 79.6546 36.4314 77.8689 36.4278C76.5572 36.4278 75.0598 36.0034 73.3769 35.1547C72.8116 34.846 72.1847 34.6669 71.5417 34.6304C71.2156 34.6412 70.8954 34.7201 70.6017 34.8621C70.308 35.0041 70.0472 35.206 69.8362 35.4548C69.5918 35.6907 69.3965 35.9726 69.2615 36.2843C69.1265 36.5961 69.0546 36.9314 69.0497 37.2711C69.0497 38.7558 70.1488 39.9225 72.3471 40.7712C74.1534 41.4495 76.0693 41.7885 77.9987 41.7712C81.188 41.7712 83.7304 40.9658 85.626 39.3549C87.7702 37.5062 88.8414 34.7664 88.8396 31.1357V12.3106H85.5287ZM81.7664 26.5814C81.4095 27.0388 80.9536 27.4094 80.4331 27.6655C79.9125 27.9216 79.3407 28.0566 78.7606 28.0602C78.1804 28.0638 77.607 27.9361 77.0833 27.6866C76.5595 27.437 76.0991 27.0721 75.7364 26.6193C75.0157 25.6571 74.6553 24.3958 74.6553 22.8354C74.6553 21.374 75.0202 20.1596 75.7499 19.192C76.0941 18.7228 76.5481 18.3452 77.0721 18.0922C77.596 17.8391 78.174 17.7184 78.7555 17.7406C79.3537 17.7266 79.9462 17.8592 80.4814 18.1268C81.0165 18.3944 81.4781 18.7888 81.8259 19.2758C82.5178 20.1911 82.8637 21.383 82.8637 22.8516C82.8637 24.3543 82.498 25.5994 81.7664 26.5869V26.5814Z" fill="white"/>
<path d="M140.164 4.26201C139.894 3.96238 139.563 3.72517 139.192 3.56692C138.821 3.40867 138.421 3.3332 138.018 3.34576C137.614 3.33045 137.212 3.40272 136.838 3.55762C136.465 3.71251 136.13 3.94635 135.855 4.24309C135.306 4.85925 135.015 5.66391 135.045 6.48912V13.657C134.463 13.1658 133.812 12.7633 133.112 12.4623C132.147 12.0998 131.121 11.9281 130.09 11.9569C127.485 11.9569 125.294 13.011 123.517 15.1192C121.74 17.2274 120.847 19.8032 120.836 22.8465C120.836 25.8953 121.731 28.4819 123.52 30.6063C125.309 32.7307 127.494 33.792 130.074 33.7902C132.251 33.7902 133.963 33.0226 135.209 31.4874C135.449 32.0273 135.827 32.4938 136.307 32.8388C136.708 33.1472 137.187 33.3389 137.691 33.3929H137.793C137.866 33.3929 137.942 33.3929 138.018 33.3929C138.093 33.3929 138.153 33.3929 138.218 33.3929H141.002V6.49183C141.02 5.66843 140.72 4.86977 140.164 4.26201ZM133.931 26.5223C133.575 26.9827 133.118 27.3558 132.596 27.613C132.074 27.8703 131.5 28.0049 130.918 28.0068C130.336 28.0086 129.761 27.8775 129.237 27.6236C128.714 27.3696 128.255 26.9994 127.896 26.5413C127.175 25.5664 126.815 24.3349 126.815 22.8465C126.815 21.3582 127.18 20.1419 127.912 19.1977C128.257 18.7277 128.711 18.3493 129.236 18.0958C129.761 17.8423 130.34 17.7213 130.923 17.7436C131.523 17.7265 132.118 17.8579 132.655 18.1262C133.192 18.3945 133.655 18.7914 134.001 19.2815C134.686 20.1951 135.028 21.3834 135.028 22.8465C135.028 24.3096 134.663 25.5349 133.931 26.5223Z" fill="white"/>
<path d="M26.3752 29.312C26.1745 28.5033 25.918 27.7095 25.6076 26.9362L19.6344 10.6572C18.7334 8.20126 17.9127 6.64174 17.1721 5.97865C16.3985 5.3063 15.399 4.95188 14.3747 4.98672C13.7236 4.97429 13.0794 5.12121 12.4981 5.41469C11.9168 5.70817 11.416 6.13931 11.0394 6.67057C10.5295 7.35708 9.91866 8.68596 9.20693 10.6572L5.72571 19.99L1.00391 33.0662C1.00391 33.0662 3.56617 33.7527 5.6203 33.3797C5.97442 33.3678 6.32245 33.2843 6.64343 33.1343C6.96441 32.9842 7.25169 32.7708 7.48794 32.5067L7.53929 32.4418C7.70514 32.2595 7.83861 32.0502 7.93391 31.8229C8.18488 31.3347 8.39288 30.8255 8.55555 30.3012L9.32585 27.8308H19.5371L20.3074 30.3012C20.6047 31.358 20.9614 32.104 21.3696 32.5445C21.8813 33.1103 22.6101 33.3932 23.5561 33.3932C24.3381 33.4343 25.1078 33.1861 25.7184 32.6959C25.9869 32.4617 26.1992 32.1699 26.3396 31.8424C26.48 31.5149 26.5448 31.1599 26.5292 30.8039C26.5284 30.3027 26.4767 29.8028 26.3752 29.312ZM11.1719 22.0468L14.599 11.9519L17.6883 22.0468H11.1719Z" fill="white"/>
<path d="M1.85442 37.4397L3.33556 39.3939V37.7316C3.33556 37.3505 3.46259 37.1641 3.73558 37.1641C4.00856 37.1641 4.13559 37.3505 4.13559 37.7316V40.3047C4.13559 40.6372 4.02748 40.7858 3.77071 40.7858C3.65596 40.7623 3.54739 40.715 3.45198 40.6471C3.35656 40.5791 3.2764 40.492 3.21664 40.3912L1.86524 38.5993V40.2209C1.86524 40.602 1.7382 40.7912 1.46522 40.7912C1.19223 40.7912 1.0625 40.602 1.0625 40.2209V37.7235C1.0625 37.3722 1.17872 37.1695 1.43549 37.1695C1.52189 37.1776 1.60506 37.2064 1.67797 37.2534C1.75089 37.3005 1.81141 37.3644 1.85442 37.4397Z" fill="white"/>
<path d="M6.00144 40.8128C5.36358 40.8128 4.82031 40.2506 4.82031 39.4317C4.82031 38.6127 5.36088 38.0479 6.03117 38.0479C6.14901 38.0419 6.26664 38.0632 6.37493 38.11C6.48321 38.1569 6.57923 38.2281 6.65552 38.3181C6.68821 38.2467 6.74019 38.1859 6.80562 38.1424C6.87104 38.0989 6.9473 38.0746 7.0258 38.0722C7.29608 38.0722 7.41231 38.2533 7.41231 38.6344V40.2047C7.41231 40.5858 7.28798 40.7723 7.0258 40.7723C6.94312 40.7735 6.86227 40.7478 6.79548 40.699C6.72868 40.6503 6.67956 40.5811 6.65552 40.502C6.57721 40.6 6.47763 40.679 6.36431 40.7328C6.25099 40.7867 6.1269 40.814 6.00144 40.8128ZM5.62035 39.4236C5.62035 39.8182 5.83927 40.102 6.12577 40.102C6.41227 40.102 6.6366 39.8101 6.6366 39.4236C6.6366 39.0371 6.40686 38.7587 6.12577 38.7587C5.84468 38.7587 5.62035 39.0371 5.62035 39.4236Z" fill="white"/>
<path d="M9.19912 37.8149V38.1771H9.30453C9.61535 38.1771 9.79914 38.296 9.79914 38.5068C9.79914 38.7176 9.63697 38.8447 9.30453 38.8447H9.19912V40.2258C9.19912 40.6069 9.08019 40.7934 8.81532 40.7934C8.55044 40.7934 8.42341 40.6069 8.42341 40.2258V38.8447H8.39368C8.1234 38.8447 7.95312 38.7095 7.95312 38.5068C7.95312 38.3041 8.11259 38.1771 8.42341 38.1771V37.8149C8.42341 37.4338 8.54774 37.25 8.81532 37.25C9.08289 37.25 9.19912 37.4473 9.19912 37.8149Z" fill="white"/>
<path d="M11.1195 38.6481V39.5292C11.1195 39.8968 11.2032 40.1049 11.5222 40.1049C11.8411 40.1049 11.9222 39.8968 11.9222 39.5292V38.6481C11.9222 38.267 12.0465 38.0859 12.3141 38.0859C12.5817 38.0859 12.6979 38.267 12.6979 38.6481V39.6887C12.6979 40.4347 12.279 40.8158 11.5222 40.8158C10.7654 40.8158 10.3438 40.4347 10.3438 39.6887V38.6481C10.3438 38.267 10.4681 38.0859 10.7357 38.0859C11.0032 38.0859 11.1195 38.267 11.1195 38.6481Z" fill="white"/>
<path d="M14.7685 38.0547C14.8737 38.0588 14.9733 38.1032 15.0467 38.1786C15.1201 38.2541 15.1618 38.3548 15.1631 38.4601C15.1631 38.7709 14.8172 38.7953 14.5009 38.9439C14.2847 39.0493 14.255 39.1439 14.255 39.4088V40.2196C14.255 40.6007 14.1361 40.7872 13.8685 40.7872C13.6009 40.7872 13.4766 40.6007 13.4766 40.2196V38.6493C13.4766 38.2682 13.6009 38.0871 13.8685 38.0871C13.9471 38.0889 14.0237 38.113 14.0892 38.1565C14.1547 38.2001 14.2066 38.2613 14.2388 38.3331C14.3037 38.2533 14.3841 38.1876 14.4752 38.1397C14.5662 38.0919 14.666 38.0629 14.7685 38.0547Z" fill="white"/>
<path d="M16.7229 40.8129C16.0823 40.8129 15.5391 40.2507 15.5391 39.4318C15.5391 38.6128 16.0796 38.0479 16.7526 38.0479C16.8701 38.0418 16.9874 38.063 17.0953 38.1099C17.2032 38.1568 17.2987 38.2281 17.3743 38.3182C17.4074 38.2466 17.4599 38.1856 17.5258 38.1422C17.5917 38.0987 17.6684 38.0745 17.7473 38.0722C18.0175 38.0722 18.1311 38.2533 18.1311 38.6344V40.2048C18.1311 40.5859 18.0094 40.7723 17.7473 40.7723C17.6642 40.7737 17.583 40.7481 17.5157 40.6994C17.4485 40.6506 17.3988 40.5814 17.3743 40.5021C17.2971 40.6007 17.1981 40.68 17.0851 40.734C16.9721 40.7879 16.8481 40.8149 16.7229 40.8129ZM16.3418 39.4236C16.3418 39.8183 16.558 40.102 16.8445 40.102C17.131 40.102 17.3553 39.8101 17.3553 39.4236C17.3553 39.0371 17.1283 38.7588 16.8445 38.7588C16.5607 38.7588 16.3418 39.0371 16.3418 39.4236Z" fill="white"/>
<path d="M19.7159 37.5414V40.2199C19.7159 40.601 19.597 40.7875 19.3294 40.7875C19.0618 40.7875 18.9375 40.601 18.9375 40.2199V37.5414C18.9375 37.1604 19.0618 36.9766 19.3294 36.9766C19.597 36.9766 19.7159 37.1712 19.7159 37.5414Z" fill="white"/>
<path d="M21.3858 40.3378C21.3861 40.3971 21.3747 40.4558 21.3521 40.5106C21.3295 40.5654 21.2962 40.6151 21.2542 40.6569C21.2122 40.6986 21.1623 40.7316 21.1073 40.7539C21.0524 40.7761 20.9936 40.7872 20.9344 40.7865C20.8751 40.788 20.8161 40.7774 20.761 40.7554C20.7058 40.7333 20.6558 40.7003 20.6138 40.6584C20.5719 40.6164 20.5389 40.5664 20.5169 40.5113C20.4948 40.4562 20.4842 40.3972 20.4857 40.3378C20.4809 40.2758 20.489 40.2135 20.5094 40.1547C20.5298 40.0959 20.5622 40.042 20.6045 39.9964C20.6467 39.9507 20.698 39.9143 20.755 39.8893C20.812 39.8644 20.8735 39.8516 20.9357 39.8516C20.998 39.8516 21.0595 39.8644 21.1165 39.8893C21.1735 39.9143 21.2248 39.9507 21.267 39.9964C21.3093 40.042 21.3416 40.0959 21.3621 40.1547C21.3825 40.2135 21.3906 40.2758 21.3858 40.3378Z" fill="white"/>
<path d="M26.1898 38.5854V37.7395C26.1898 37.3584 26.3196 37.1719 26.5925 37.1719C26.8655 37.1719 26.9926 37.3584 26.9926 37.7395V40.2233C26.9926 40.6044 26.8628 40.7936 26.5925 40.7936C26.3223 40.7936 26.1898 40.6044 26.1898 40.2233V39.3287H24.7168V40.2233C24.7168 40.6044 24.5871 40.7936 24.3141 40.7936C24.0411 40.7936 23.9141 40.6044 23.9141 40.2233V37.7395C23.9141 37.3584 24.0438 37.1719 24.3141 37.1719C24.5844 37.1719 24.7168 37.3584 24.7168 37.7395V38.5854H26.1898Z" fill="white"/>
<path d="M29.0764 40.1465C29.4656 40.1465 29.7196 39.8924 29.8872 39.8924C29.928 39.8898 29.969 39.8957 30.0073 39.9098C30.0457 39.924 30.0807 39.9461 30.11 39.9746C30.1393 40.0031 30.1623 40.0375 30.1775 40.0755C30.1926 40.1135 30.1996 40.1543 30.198 40.1952C30.198 40.5033 29.7034 40.8276 29.025 40.8276C28.8443 40.8303 28.6649 40.7962 28.4977 40.7273C28.3306 40.6585 28.1792 40.5564 28.0528 40.4272C27.9264 40.298 27.8276 40.1444 27.7624 39.9758C27.6972 39.8072 27.667 39.6271 27.6736 39.4465C27.6645 39.2685 27.6916 39.0905 27.7533 38.9233C27.815 38.756 27.91 38.6031 28.0325 38.4737C28.1551 38.3443 28.3027 38.2412 28.4663 38.1705C28.63 38.0998 28.8062 38.0631 28.9845 38.0626C29.153 38.0601 29.3204 38.0915 29.4766 38.1551C29.6327 38.2186 29.7744 38.313 29.8933 38.4326C30.0121 38.5522 30.1056 38.6946 30.1682 38.8511C30.2308 39.0077 30.2611 39.1752 30.2575 39.3438C30.2575 39.6141 30.1332 39.66 29.871 39.66H28.4763C28.4831 39.7316 28.504 39.8012 28.538 39.8646C28.5719 39.9281 28.6182 39.9841 28.6741 40.0294C28.73 40.0747 28.7943 40.1084 28.8634 40.1285C28.9325 40.1486 29.0049 40.1547 29.0764 40.1465ZM29.5115 39.1546C29.5006 39.0275 29.4417 38.9093 29.3468 38.824C29.252 38.7386 29.1282 38.6926 29.0007 38.6951C28.8728 38.6943 28.749 38.7407 28.6533 38.8255C28.5575 38.9103 28.4964 39.0275 28.4818 39.1546H29.5115Z" fill="white"/>
<path d="M31.9377 40.8128C31.2999 40.8128 30.7539 40.2506 30.7539 39.4317C30.7539 38.6127 31.2945 38.0479 31.9675 38.0479C32.0853 38.0419 32.2029 38.0632 32.3112 38.11C32.4195 38.1569 32.5155 38.2281 32.5918 38.3181C32.6242 38.2465 32.6762 38.1855 32.7416 38.142C32.8071 38.0985 32.8835 38.0743 32.9621 38.0722C33.2324 38.0722 33.3486 38.2533 33.3486 38.6344V40.2047C33.3486 40.5858 33.2243 40.7723 32.9621 40.7723C32.8794 40.7735 32.7986 40.7478 32.7318 40.699C32.665 40.6503 32.6158 40.5811 32.5918 40.502C32.5135 40.6 32.4139 40.679 32.3006 40.7328C32.1873 40.7867 32.0632 40.814 31.9377 40.8128ZM31.5566 39.4236C31.5566 39.8182 31.7756 40.102 32.0621 40.102C32.3486 40.102 32.5702 39.8101 32.5702 39.4236C32.5702 39.0371 32.3432 38.7587 32.0621 38.7587C31.781 38.7587 31.5566 39.0371 31.5566 39.4236Z" fill="white"/>
<path d="M34.932 37.5414V40.2199C34.932 40.601 34.813 40.7875 34.5455 40.7875C34.2779 40.7875 34.1562 40.601 34.1562 40.2199V37.5414C34.1562 37.1604 34.2779 36.9766 34.5455 36.9766C34.813 36.9766 34.932 37.1712 34.932 37.5414Z" fill="white"/>
<path d="M36.7487 37.8149V38.1771H36.8514C37.1622 38.1771 37.346 38.296 37.346 38.5068C37.346 38.7176 37.1839 38.8447 36.8514 38.8447H36.7487V40.2258C36.7487 40.6069 36.6298 40.7934 36.3622 40.7934C36.0946 40.7934 35.9703 40.6069 35.9703 40.2258V38.8447H35.9406C35.6703 38.8447 35.5 38.7095 35.5 38.5068C35.5 38.3041 35.6595 38.1771 35.9703 38.1771V37.8149C35.9703 37.4338 36.0946 37.25 36.3622 37.25C36.6298 37.25 36.7487 37.4473 36.7487 37.8149Z" fill="white"/>
<path d="M38.6639 38.312C38.7525 38.2295 38.8575 38.1666 38.9721 38.1275C39.0867 38.0884 39.2083 38.0739 39.3288 38.085C39.9369 38.085 40.2775 38.4147 40.2775 39.0932V40.2121C40.2775 40.5932 40.1586 40.7851 39.891 40.7851C39.6234 40.7851 39.5018 40.5986 39.5018 40.2175V39.331C39.5018 38.9202 39.4018 38.7472 39.0856 38.7472C38.7693 38.7472 38.6585 38.9256 38.6585 39.3148V40.2067C38.6585 40.5878 38.5396 40.7797 38.2747 40.7797C38.0098 40.7797 37.8828 40.5932 37.8828 40.2121V37.539C37.8828 37.1579 38.0071 36.9688 38.2747 36.9688C38.5423 36.9688 38.6585 37.1579 38.6585 37.539V38.3066L38.6639 38.312Z" fill="white"/>
<path d="M41.5988 38.4619L42.0393 39.6404L42.5177 38.3971C42.6015 38.1836 42.7015 38.0863 42.861 38.0863C42.9114 38.0815 42.9623 38.0877 43.0101 38.1044C43.0579 38.1211 43.1015 38.148 43.138 38.1832C43.1744 38.2184 43.2028 38.261 43.2213 38.3082C43.2397 38.3554 43.2477 38.406 43.2448 38.4565C43.2409 38.5497 43.2198 38.6413 43.1826 38.7268L41.9934 41.5458C41.9096 41.7486 41.8258 41.8648 41.6528 41.8648C41.6015 41.8696 41.5498 41.8632 41.5013 41.8461C41.4527 41.8289 41.4085 41.8013 41.3717 41.7653C41.3349 41.7293 41.3064 41.6856 41.2882 41.6375C41.27 41.5893 41.2625 41.5377 41.2663 41.4864C41.2666 41.3925 41.2888 41.2999 41.3312 41.2161L41.6528 40.5161L40.8663 38.6809C40.8351 38.6122 40.8194 38.5374 40.8204 38.4619C40.8196 38.4116 40.829 38.3616 40.8478 38.3148C40.8667 38.2681 40.8947 38.2257 40.9302 38.1899C40.9657 38.1542 41.008 38.1259 41.0545 38.1067C41.1011 38.0875 41.1511 38.0778 41.2014 38.0781C41.4204 38.0862 41.5096 38.2187 41.5988 38.4619Z" fill="white"/>
<path d="M44.6475 40.3378C44.6478 40.3971 44.6364 40.4558 44.6138 40.5106C44.5912 40.5654 44.5579 40.6151 44.5159 40.6569C44.4739 40.6986 44.424 40.7316 44.3691 40.7539C44.3142 40.7761 44.2554 40.7872 44.1961 40.7865C44.1368 40.788 44.0778 40.7774 44.0227 40.7554C43.9676 40.7333 43.9175 40.7003 43.8755 40.6584C43.8336 40.6164 43.8006 40.5664 43.7786 40.5113C43.7566 40.4562 43.746 40.3972 43.7474 40.3378C43.7426 40.2758 43.7507 40.2135 43.7711 40.1547C43.7916 40.0959 43.8239 40.042 43.8662 39.9964C43.9084 39.9507 43.9597 39.9143 44.0167 39.8893C44.0737 39.8644 44.1352 39.8516 44.1975 39.8516C44.2597 39.8516 44.3212 39.8644 44.3782 39.8893C44.4352 39.9143 44.4865 39.9507 44.5287 39.9964C44.571 40.042 44.6034 40.0959 44.6238 40.1547C44.6442 40.2135 44.6523 40.2758 44.6475 40.3378Z" fill="white"/>
<path d="M48.4542 37.2371C49.2651 37.2371 49.7462 37.7074 49.7462 38.4344C49.7462 39.1615 49.2975 39.6264 48.5191 39.6264H47.9785V40.2291C47.9785 40.6102 47.8488 40.7994 47.5758 40.7994C47.3028 40.7994 47.1758 40.6102 47.1758 40.2291V37.7966C47.1758 37.4074 47.2839 37.2344 47.7163 37.2344L48.4542 37.2371ZM47.9812 38.8993H48.3272C48.6921 38.8993 48.8677 38.7398 48.8677 38.4344C48.8677 38.129 48.6894 37.9722 48.3272 37.9722H47.9812V38.8993Z" fill="white"/>
<path d="M51.6557 40.147C52.0476 40.147 52.299 39.893 52.4665 39.893C52.5076 39.8899 52.5488 39.8955 52.5875 39.9095C52.6262 39.9235 52.6615 39.9455 52.6912 39.974C52.7208 40.0026 52.744 40.0372 52.7593 40.0754C52.7746 40.1135 52.7817 40.1545 52.7801 40.1957C52.7801 40.5038 52.2855 40.8281 51.607 40.8281C51.4263 40.8308 51.2469 40.7967 51.0798 40.7279C50.9126 40.659 50.7613 40.5569 50.6348 40.4277C50.5084 40.2985 50.4096 40.1449 50.3444 39.9763C50.2792 39.8077 50.249 39.6276 50.2556 39.447C50.2465 39.269 50.2736 39.091 50.3353 38.9238C50.397 38.7566 50.492 38.6036 50.6146 38.4742C50.7372 38.3448 50.8847 38.2417 51.0484 38.171C51.212 38.1003 51.3883 38.0637 51.5665 38.0632C51.7362 38.0577 51.9052 38.0867 52.0634 38.1484C52.2215 38.2101 52.3654 38.3034 52.4865 38.4224C52.6075 38.5414 52.7032 38.6838 52.7676 38.8408C52.832 38.9979 52.8638 39.1664 52.8612 39.3362C52.8612 39.6065 52.7368 39.6524 52.4747 39.6524H51.0773C51.089 39.7945 51.1564 39.9261 51.2647 40.0188C51.373 40.1114 51.5136 40.1575 51.6557 40.147ZM52.0909 39.1551C52.0812 39.028 52.0231 38.9094 51.9285 38.8239C51.834 38.7384 51.7102 38.6925 51.5827 38.6956C51.4548 38.6948 51.3311 38.7412 51.2353 38.826C51.1395 38.9108 51.0784 39.028 51.0638 39.1551H52.0909Z" fill="white"/>
<path d="M54.7802 38.0547C54.8857 38.0588 54.9856 38.1031 55.0594 38.1785C55.1333 38.2538 55.1755 38.3546 55.1775 38.4601C55.1775 38.7709 54.8289 38.7953 54.5126 38.9439C54.2964 39.0493 54.2667 39.1439 54.2667 39.4088V40.2196C54.2667 40.6007 54.1478 40.7872 53.8802 40.7872C53.6126 40.7872 53.4883 40.6007 53.4883 40.2196V38.6493C53.4883 38.2682 53.6126 38.0871 53.8802 38.0871C53.9589 38.0886 54.0356 38.1125 54.1012 38.1561C54.1668 38.1997 54.2186 38.2611 54.2505 38.3331C54.3156 38.2536 54.3961 38.1879 54.4871 38.1401C54.5781 38.0923 54.6778 38.0633 54.7802 38.0547Z" fill="white"/>
<path d="M57.2568 37.3685C57.2568 37.5874 57.1217 37.655 56.9 37.6901C56.7379 37.7144 56.7108 37.7604 56.7108 37.982V38.1712H56.8406C57.1514 38.1712 57.3352 38.2901 57.3352 38.5009C57.3352 38.7118 57.173 38.8388 56.8406 38.8388H56.7108V40.2199C56.7108 40.601 56.5919 40.7875 56.327 40.7875C56.0622 40.7875 55.9351 40.601 55.9351 40.2199V38.8388H55.9054C55.6351 38.8388 55.4648 38.7037 55.4648 38.5009C55.4648 38.2982 55.6243 38.1712 55.9351 38.1712V38.0225C55.9351 37.3387 56.227 36.9766 56.746 36.9766C57.0622 36.9766 57.2568 37.1306 57.2568 37.3685Z" fill="white"/>
<path d="M59.0178 40.1465C59.4097 40.1465 59.661 39.8924 59.8286 39.8924C59.8695 39.8893 59.9107 39.8949 59.9492 39.9089C59.9878 39.9229 60.023 39.945 60.0524 39.9736C60.0818 40.0022 60.1047 40.0368 60.1198 40.075C60.1348 40.1132 60.1415 40.1541 60.1394 40.1951C60.1394 40.5032 59.6448 40.8276 58.9664 40.8276C58.7857 40.8303 58.6063 40.7961 58.4391 40.7273C58.272 40.6585 58.1206 40.5563 57.9942 40.4271C57.8678 40.2979 57.769 40.1444 57.7038 39.9758C57.6386 39.8072 57.6084 39.6271 57.615 39.4464C57.6059 39.2682 57.633 39.09 57.6949 38.9226C57.7568 38.7552 57.852 38.6021 57.9749 38.4727C58.0977 38.3433 58.2457 38.2402 58.4096 38.1697C58.5736 38.0992 58.7501 38.0627 58.9286 38.0626C59.0969 38.0604 59.264 38.0921 59.4198 38.1558C59.5757 38.2196 59.7171 38.314 59.8356 38.4336C59.9542 38.5531 60.0474 38.6953 60.1098 38.8517C60.1723 39.0081 60.2025 39.1754 60.1989 39.3437C60.1989 39.614 60.0746 39.66 59.8124 39.66H58.4286C58.4422 39.8026 58.512 39.9339 58.6225 40.0252C58.733 40.1164 58.8751 40.16 59.0178 40.1465ZM59.4529 39.1545C59.4426 39.0272 59.3839 38.9086 59.2889 38.8232C59.1939 38.7377 59.0698 38.6919 58.9421 38.6951C58.8143 38.6948 58.6909 38.7415 58.5953 38.8262C58.4996 38.9108 58.4384 39.0277 58.4232 39.1545H59.4529Z" fill="white"/>
<path d="M62.9193 38.5483C62.9212 38.5914 62.9142 38.6344 62.8988 38.6747C62.8834 38.715 62.8599 38.7518 62.8297 38.7827C62.7996 38.8135 62.7635 38.8379 62.7236 38.8543C62.6837 38.8707 62.6408 38.8788 62.5977 38.878C62.4544 38.878 62.2706 38.7591 62.0571 38.7591C61.7409 38.7591 61.5165 39.0294 61.5165 39.4375C61.5165 39.8456 61.7301 40.1024 62.0868 40.1024C62.2692 40.0735 62.4497 40.0338 62.6274 39.9835C62.6694 39.9848 62.7108 39.9947 62.7489 40.0124C62.787 40.0302 62.8211 40.0555 62.8491 40.0868C62.8772 40.1182 62.8986 40.1549 62.912 40.1947C62.9255 40.2345 62.9307 40.2767 62.9274 40.3186C62.9274 40.5889 62.5571 40.8132 62.0139 40.8132C61.2517 40.8132 60.7219 40.2592 60.7219 39.4321C60.7091 39.2499 60.7351 39.067 60.798 38.8954C60.861 38.7239 60.9595 38.5677 61.0872 38.437C61.2148 38.3063 61.3687 38.2041 61.5386 38.1371C61.7086 38.0701 61.8908 38.0398 62.0733 38.0483C62.5733 38.0483 62.9193 38.2483 62.9193 38.5483Z" fill="white"/>
<path d="M64.5624 37.8149V38.1771H64.6678C64.9786 38.1771 65.1624 38.296 65.1624 38.5068C65.1624 38.7176 65.0003 38.8447 64.6678 38.8447H64.5624V40.2258C64.5624 40.6069 64.4435 40.7934 64.1786 40.7934C63.9137 40.7934 63.7867 40.6069 63.7867 40.2258V38.8447H63.757C63.4867 38.8447 63.3164 38.7095 63.3164 38.5068C63.3164 38.3041 63.4759 38.1771 63.7867 38.1771V37.8149C63.7867 37.4338 63.911 37.25 64.1786 37.25C64.4462 37.25 64.5624 37.4473 64.5624 37.8149Z" fill="white"/>
<path d="M66.5615 40.3378C66.5623 40.397 66.5512 40.4556 66.5289 40.5104C66.5066 40.5652 66.4736 40.6149 66.4318 40.6567C66.3899 40.6985 66.3402 40.7315 66.2854 40.7538C66.2307 40.7761 66.172 40.7872 66.1129 40.7865C66.0534 40.788 65.9943 40.7774 65.9391 40.7554C65.8838 40.7334 65.8336 40.7004 65.7914 40.6585C65.7492 40.6166 65.716 40.5666 65.6937 40.5115C65.6713 40.4564 65.6604 40.3973 65.6615 40.3378C65.6567 40.2758 65.6648 40.2135 65.6852 40.1547C65.7056 40.0959 65.738 40.042 65.7803 39.9964C65.8225 39.9507 65.8737 39.9143 65.9308 39.8893C65.9878 39.8644 66.0493 39.8516 66.1115 39.8516C66.1737 39.8516 66.2353 39.8644 66.2923 39.8893C66.3493 39.9143 66.4005 39.9507 66.4428 39.9964C66.4851 40.042 66.5174 40.0959 66.5379 40.1547C66.5583 40.2135 66.5664 40.2758 66.5615 40.3378Z" fill="white"/>
</g>
<defs>
<clipPath id="clip0_388_11318">
<rect width="140" height="40.8664" fill="white" transform="translate(1 1)"/>
</clipPath>
</defs>
</svg>
