<svg width="60" height="60" viewBox="0 0 60 60" fill="none" xmlns="http://www.w3.org/2000/svg">
<path d="M56.9 18.7375C56.4 17.9375 55.7 17.3375 54.9 16.9375C54.4 16.7375 53.9 16.5375 53.4 16.4375L53.5 16.3375C54.5 14.5375 54.4 12.3375 53.3 10.5375C52.3 8.8375 50.4 7.7375 48.4 7.7375H48.2C46.2 7.8375 44.3 8.9375 43.3 10.7375V10.8375C42.3 9.8375 41 9.3375 39.6 9.3375H39.5C38 9.3375 36.5 10.0375 35.5 11.2375C34.5 12.4375 34.1 13.9375 34.3 15.5375C34.5 17.0375 35.3 18.3375 36.5 19.2375C35.2 23.3375 33.6 27.3375 31.7 31.2375H31.3L34.2 19.4375C34.6 18.0375 34.3 16.4375 33.5 15.1375C33.3 14.8375 33.1 14.5375 32.8 14.2375L35.2 6.7375C35.4 6.2375 35.3 5.7375 35 5.2375C34.7 4.8375 34.3 4.4375 33.8 4.3375L27.2 3.0375C26.7 2.9375 26.2 3.0375 25.7 3.3375C25.4 3.7375 25.1 4.2375 25.1 4.7375L24.4 12.5375C22.7 13.3375 21.5 14.9375 21.2 16.7375L20.2 23.2375C16.2 16.9375 10.2 13.8375 10.2 13.8375C9.8 13.6375 9.4 13.8375 9.2 14.1375C5.5 20.6375 6.4 28.4375 6.8 31.0375H3.8C3.4 31.0375 3 31.4375 3 31.8375C3 40.4375 7.6 47.7375 15.3 51.4375V56.2375C15.3 56.6375 15.6 57.0375 16.1 57.0375H36.9C37.1 57.0375 37.3 56.9375 37.5 56.8375C37.6 56.6375 37.7 56.4375 37.7 56.2375V51.4375C45.4 47.7375 50 40.4375 50 31.8375C50 31.4375 49.7 31.0375 49.2 31.0375H47.3C48.7 28.9375 49.9 27.3375 50.5 26.6375C52.2 27.3375 54.1 27.0375 55.6 26.0375C57.1 24.9375 58 23.1375 57.9 21.2375C57.7 20.3375 57.4 19.4375 56.9 18.7375ZM26.7 4.6375C26.8 4.6375 26.8 4.5375 26.9 4.6375L27.6 4.7375L27.2 8.7375C27.2 9.1375 27.5 9.5375 27.9 9.6375H28C28.4 9.6375 28.7 9.3375 28.8 8.9375L29.2 5.0375L31.2 5.4375L30.4 8.1375C30.3 8.5375 30.5 8.9375 30.9 9.1375C31.1 9.1375 31.3 9.1375 31.5 9.0375C31.7 8.9375 31.8 8.7375 31.9 8.5375L32.7 5.7375L33.5 5.9375C33.6 5.9375 33.6 6.0375 33.7 6.0375C33.7 6.1375 33.7 6.1375 33.7 6.2375L31.5 13.2375C31 12.9375 30.5 12.7375 29.9 12.6375L27.6 12.1375C27.3 12.0375 26.9 12.0375 26.5 12.0375C26.3 12.0375 26.1 12.0375 25.9 12.0375L26.5 4.8375C26.6 4.7375 26.6 4.7375 26.7 4.6375ZM21.9 22.0375L23.5 22.3375H23.6C24 22.3375 24.3 22.0375 24.4 21.6375C24.4 21.2375 24.2 20.8375 23.8 20.7375L22.2 20.4375L22.4 19.0375L25.6 19.6375C25.6 19.6375 25.7 19.6375 25.8 19.6375C26.2 19.6375 26.5 19.3375 26.6 18.9375C26.6 18.5375 26.4 18.1375 26 18.1375L22.7 17.4375L22.8 16.8375C23 15.7375 23.6 14.8375 24.4 14.2375C25.3 13.6375 26.4 13.3375 27.4 13.6375L29.7 14.1375C30.8 14.3375 31.7 14.9375 32.3 15.9375C32.9 16.8375 33.1 17.9375 32.8 19.0375L30.9 26.8375L29.7 26.6375C29.5 26.6375 29.3 26.6375 29.1 26.7375C28.9 26.8375 28.8 27.0375 28.8 27.2375C28.7 27.6375 29 28.0375 29.4 28.1375L30.4 28.2375L29.7 31.0375H23.3C22.9 29.1375 22.3 27.2375 21.5 25.4375L21.9 22.0375ZM10.1 15.5375C12.6 17.0375 19.8 22.1375 21.6 31.0375H16.1L15.9 30.2375L17.9 27.9375C18.2 27.6375 18.1 27.1375 17.8 26.8375C17.5 26.5375 17 26.5375 16.7 26.8375L15.2 28.4375L14.2 25.7375L16.1 23.5375C16.3 23.4375 16.3 23.1375 16.3 22.9375C16.3 22.7375 16.2 22.5375 16 22.3375C15.8 22.2375 15.6 22.1375 15.4 22.1375C15.2 22.1375 15 22.2375 14.9 22.4375L13.7 24.2375L12.6 21.0375C12.6 20.8375 12.4 20.6375 12.2 20.5375C12 20.4375 11.8 20.4375 11.6 20.5375C11.4 20.6375 11.2 20.7375 11.1 20.9375C11 21.1375 11 21.3375 11.1 21.5375L12.3 24.8375L9.9 24.5375C9.5 24.5375 9.1 24.7375 9 25.2375C9 25.6375 9.2 26.0375 9.7 26.1375L12.9 26.5375L13.8 29.1375L11.6 28.8375C11.4 28.8375 11.2 28.8375 11 28.9375C10.8 29.0375 10.7 29.2375 10.7 29.4375C10.6 29.8375 10.9 30.2375 11.4 30.3375L14.4 30.7375L14.5 31.0375H8.4C8 28.7375 7.2 21.6375 10.1 15.5375ZM48.4 32.6375C48.1 39.9375 44.2 46.2375 37.7 49.6375L37 50.0375L36.5157 50.2527C36.2629 50.3651 36.1 50.6158 36.1 50.8924V55.4375H16.9V50.9375C16.9 50.6375 16.8 50.4375 16.5 50.2375L16.1 50.0375C9.2 46.7375 4.9 40.2375 4.6 32.6375H48.4ZM55.8 23.4375C55.3 24.4375 54.5 25.0375 53.5 25.3375C52.5 25.6375 51.5 25.5375 50.6 25.0375C50.3 24.8375 49.9 24.9375 49.6 25.2375C49.6 25.2375 47.6 27.7375 45.4 31.1375H42.2C43.7 28.7375 45 26.7375 45 26.7375C45.1 26.5375 45.2 26.3375 45.1 26.1375C45.1 25.9375 44.9 25.7375 44.8 25.6375C44.6 25.5375 44.4 25.4375 44.2 25.5375C44 25.5375 43.8 25.7375 43.7 25.9375C43.3 26.5375 41.9 28.7375 40.3 31.2375H37.9C39.6 27.7375 40.9 24.5375 40.9 24.4375C41 24.2375 41 24.0375 40.9 23.8375C40.8 23.6375 40.7 23.4375 40.5 23.4375C40.3 23.3375 40.1 23.3375 39.9 23.4375C39.7 23.5375 39.6 23.6375 39.5 23.9375C39.2 24.6375 37.8 27.9375 36.2 31.2375H33.4C35.3 27.3375 36.9 23.3375 38.2 19.1375C38.3 18.7375 38.1 18.4375 37.8 18.2375C36.8 17.6375 36 16.6375 35.8 15.4375C35.6 14.2375 36 13.0375 36.8 12.1375C37.6 11.2375 38.8 10.8375 40 10.9375C41.2 11.0375 42.3 11.7375 42.9 12.7375C43 12.8375 43.1 12.9375 43.2 13.0375C43.4 13.1375 43.7 13.2375 43.9 13.1375C44.1 13.0375 44.3 12.8375 44.4 12.6375V12.2375C44.5 11.9375 44.6 11.6375 44.7 11.4375C45.3 10.3375 46.3 9.6375 47.5 9.3375C48.7 9.0375 49.9 9.3375 50.9 10.0375C51.9 10.7375 52.5 11.8375 52.6 13.0375C52.7 14.2375 52.3 15.4375 51.5 16.3375C51.5 16.4375 51.4 16.4375 51.4 16.5375V16.6375C51.3 16.8375 51.3 17.2375 51.4 17.4375C51.6 17.6375 51.8 17.8375 52.1 17.7375C53 17.6375 53.9 17.9375 54.7 18.5375C55.4 19.1375 55.9 19.9375 56.1 20.8375C56.3 21.7375 56.2 22.6375 55.8 23.4375Z" fill="white"/>
</svg>
