<svg width="60" height="60" viewBox="0 0 60 60" fill="none" xmlns="http://www.w3.org/2000/svg">
<path fill-rule="evenodd" clip-rule="evenodd" d="M36.6876 20.7195C35.969 21.4381 35.969 22.6032 36.6876 23.3218C37.4062 24.0404 38.5712 24.0404 39.2898 23.3218C40.0084 22.6032 40.0084 21.4381 39.2898 20.7195C38.5712 20.0009 37.4062 20.0009 36.6876 20.7195ZM35.2734 24.736C33.7737 23.2364 33.7737 20.805 35.2734 19.3053C36.773 17.8057 39.2044 17.8057 40.704 19.3053C42.2037 20.805 42.2037 23.2364 40.704 24.736C39.2044 26.2357 36.773 26.2357 35.2734 24.736Z" fill="white"/>
<path d="M25.327 22.8579C25.1273 22.6205 24.9157 22.3896 24.6922 22.1662C24.4388 21.9128 24.1759 21.6746 23.9047 21.4518L32.8915 12.465C33.1115 12.245 33.4214 12.1399 33.7299 12.1808L45.5522 13.7466C46.0004 13.806 46.3529 14.1586 46.4123 14.6067L47.9782 26.429C48.019 26.7375 47.9139 27.0474 47.6939 27.2675L20.0954 54.866C19.7048 55.2565 19.0717 55.2565 18.6811 54.866L5.29289 41.4778C4.90237 41.0873 4.90237 40.4541 5.29289 40.0636L8.75322 36.6032C8.97608 36.8745 9.21421 37.1374 9.46762 37.3908C9.69108 37.6142 9.92192 37.8258 10.1594 38.0255L7.41421 40.7707L19.3882 52.7447L45.9307 26.2023L44.5302 15.6287L33.9566 14.2283L25.327 22.8579Z" fill="white"/>
<path fill-rule="evenodd" clip-rule="evenodd" d="M10.1742 22.8736C6.36069 26.6871 6.36069 32.8699 10.1742 36.6834C13.9876 40.4969 20.1705 40.4969 23.984 36.6834C27.7974 32.8699 27.7974 26.6871 23.984 22.8736C20.1705 19.0601 13.9876 19.0601 10.1742 22.8736ZM8.75995 38.0976C4.16543 33.5031 4.16543 26.0539 8.75995 21.4594C13.3545 16.8649 20.8036 16.8649 25.3982 21.4594C29.9927 26.0539 29.9927 33.5031 25.3982 38.0976C20.8036 42.6921 13.3545 42.6921 8.75995 38.0976Z" fill="white"/>
<path fill-rule="evenodd" clip-rule="evenodd" d="M50.9339 8.2755C49.1599 6.50142 46.0447 6.54606 43.9709 8.61979C43.1379 9.45285 41.8414 11.2431 40.6759 13.2977C39.5057 15.3605 38.5592 17.5306 38.3162 19.1124L36.3394 18.8088C36.6394 16.8554 37.7364 14.4261 38.9363 12.3109C40.1408 10.1875 41.5408 8.22147 42.5567 7.20558C45.2997 4.46255 49.6858 4.1989 52.3482 6.86129C55.0105 9.52367 54.7469 13.9097 52.0039 16.6527C51.0183 17.6383 49.1408 18.9834 47.0967 20.1599L46.099 18.4266C48.0774 17.2878 49.7833 16.0449 50.5897 15.2385C52.6634 13.1648 52.708 10.0496 50.9339 8.2755Z" fill="white"/>
<path fill-rule="evenodd" clip-rule="evenodd" d="M12.4104 25.1049C12.6409 24.8744 12.9939 24.8191 13.2838 24.9683L16.3939 26.5683L18.8326 24.1296C19.0617 23.9005 19.4121 23.8444 19.7013 23.9906C19.9905 24.1368 20.1531 24.4522 20.1044 24.7726L19.5826 28.2088L22.6999 29.8126C22.9892 29.9613 23.1495 30.2796 23.097 30.6006C23.0445 30.9216 22.791 31.1721 22.4694 31.221L19.0463 31.7408L18.5264 35.164C18.4776 35.4855 18.2271 35.739 17.9061 35.7915C17.5851 35.8441 17.2668 35.6837 17.118 35.3945L15.5143 32.2771L12.078 32.7989C11.7577 32.8476 11.4423 32.685 11.2961 32.3958C11.1499 32.1066 11.206 31.7562 11.4351 31.5271L13.8738 29.0884L12.2738 25.9783C12.1246 25.6884 12.1798 25.3354 12.4104 25.1049ZM14.6778 27.3723L15.4579 28.8888C15.6071 29.1786 15.5519 29.5317 15.3214 29.7622L14.1104 30.9731L15.822 30.7132C16.1404 30.6649 16.4542 30.8252 16.6015 31.1116L17.3915 32.6471L17.6462 30.9696C17.6955 30.6449 17.9504 30.39 18.2751 30.3407L19.9525 30.086L18.4171 29.296C18.1307 29.1487 17.9703 28.835 18.0187 28.5165L18.2786 26.8049L17.0677 28.0159C16.8371 28.2464 16.4841 28.3016 16.1942 28.1525L14.6778 27.3723Z" fill="white"/>
</svg>
