<svg width="60" height="60" viewBox="0 0 60 60" fill="none" xmlns="http://www.w3.org/2000/svg">
<path d="M53.4939 25.5988C52.6489 24.9301 51.9552 24.0896 51.4583 23.1332C51.274 22.0196 51.3315 20.8795 51.6263 19.7901C51.9531 17.9224 52.2987 16.0547 51.2807 14.6727C50.2626 13.2907 48.3391 13.001 46.4901 12.7492C45.3806 12.6992 44.2951 12.4124 43.3058 11.9083C42.5324 11.1279 41.9341 10.1924 41.5498 9.16303C40.756 7.49128 39.9156 5.78238 38.2255 5.18461C36.5354 4.58678 34.9291 5.55815 33.3137 6.42658C32.3586 7.05692 31.2788 7.47466 30.1478 7.65018C29.0142 7.47883 27.9311 7.06485 26.9727 6.43618C25.3572 5.56778 23.6854 4.67104 22.0608 5.19421C20.4357 5.71699 19.5303 7.49127 18.7269 9.19098C18.3434 10.2203 17.7447 11.1562 16.9714 11.9367C15.9817 12.4403 14.8961 12.7267 13.7867 12.7772C11.919 13.0294 10.0513 13.2816 8.99609 14.7007C7.94093 16.1203 8.31447 17.9784 8.66924 19.7902C8.96565 20.8763 9.02611 22.0127 8.84685 23.1241C8.34823 24.0847 7.6512 24.928 6.80155 25.5989C5.48498 26.8409 4 28.2508 4 30.0626C4 31.8744 5.48498 33.2844 6.80155 34.5263C7.64661 35.195 8.34033 36.0355 8.83724 36.9919C9.02151 38.1055 8.96398 39.2456 8.66923 40.335C8.34239 42.2027 7.99677 44.0704 9.01484 45.4524C10.0329 46.8344 11.9564 47.1241 13.8054 47.3759C14.9149 47.4259 16.0004 47.7127 16.9897 48.2168C17.7631 48.9972 18.3614 49.9327 18.7457 50.9621C19.5582 52.6618 20.3986 54.4081 22.0796 54.9588C23.7605 55.51 25.376 54.5853 26.9914 53.7169C27.9419 53.0807 29.0184 52.6571 30.1477 52.4749C31.2813 52.6463 32.3644 53.0602 33.3228 53.6889C34.4947 54.4585 35.8326 54.9388 37.2262 55.0897C37.5689 55.0905 37.9091 55.0367 38.2347 54.9309C39.9248 54.3797 40.7653 52.6338 41.5686 50.9341C41.9521 49.9048 42.5508 48.9688 43.3241 48.1883C44.3138 47.6847 45.3994 47.3983 46.5088 47.3479C48.3765 47.0956 50.2442 46.8434 51.2994 45.4244C52.3546 44.0048 51.9811 42.1371 51.645 40.307C51.3486 39.2209 51.2878 38.0841 51.4674 36.9731C51.964 36.0242 52.6543 35.1908 53.4939 34.5263C54.8013 33.2843 56.2955 31.8739 56.2955 30.0626C56.2955 28.2507 54.8105 26.8407 53.4939 25.5988ZM52.2053 33.1722C51.1184 34.036 50.2539 35.147 49.6839 36.4127C49.3863 37.8156 49.428 39.2689 49.8053 40.6526C50.0666 42.0909 50.3376 43.5755 49.8053 44.3322C49.2729 45.0884 47.732 45.266 46.2754 45.4995C44.8521 45.5658 43.4655 45.9723 42.2319 46.6852C41.1867 47.6303 40.383 48.8118 39.8876 50.1312C39.2431 51.4762 38.5803 52.8582 37.6556 53.1571C36.7309 53.456 35.4798 52.7277 34.2095 52.0457C32.9901 51.2477 31.5973 50.7545 30.1477 50.6073C28.6982 50.7549 27.3049 51.2481 26.0855 52.0457C24.8157 52.7273 23.4987 53.4373 22.6395 53.1571C21.7802 52.877 21.0519 51.467 20.4074 50.1312C19.9121 48.8118 19.1088 47.6302 18.0636 46.6852C16.8299 45.9723 15.4434 45.5654 14.0201 45.4991C12.5635 45.3032 11.0505 45.0976 10.4902 44.3317C9.9299 43.5659 10.2101 42.0905 10.4902 40.6522C10.8679 39.2685 10.9092 37.8156 10.6115 36.4127C10.0416 35.147 9.17703 34.0359 8.09013 33.1722C6.99747 32.1358 5.86767 31.0709 5.86767 30.0625C5.86767 29.054 6.99747 27.9892 8.08095 26.9528C9.16785 26.089 10.0324 24.978 10.6023 23.7123C10.8996 22.3094 10.8579 20.8561 10.481 19.4724C10.2196 18.0341 9.94865 16.5495 10.481 15.7928C11.0134 15.0366 12.5543 14.859 14.0109 14.6255C15.4342 14.5592 16.8208 14.1527 18.0544 13.4398C19.0992 12.4947 19.9029 11.3132 20.3982 9.99376C21.0519 8.64923 21.7432 7.26724 22.677 6.9683C23.6109 6.66936 24.8528 7.3977 26.1231 8.07974C27.3312 8.87227 28.7112 9.36462 30.1478 9.51767C31.5974 9.37009 32.9907 8.8769 34.21 8.07933C35.4799 7.38852 36.7969 6.71612 37.6186 6.96831C38.4404 7.2205 39.2062 8.65842 39.8507 9.9942C40.346 11.3137 41.1498 12.4948 42.1945 13.4399C43.4282 14.1528 44.8147 14.5596 46.238 14.6259C47.6946 14.8218 49.2076 15.0274 49.7679 15.7933C50.3282 16.5592 50.048 18.0345 49.7679 19.4729C49.3906 20.8566 49.3489 22.3094 49.6466 23.7123C50.2165 24.978 51.0811 26.0891 52.168 26.9528C53.2982 27.9893 54.428 29.0541 54.428 30.0625C54.428 31.071 53.2982 32.1358 52.2147 33.1722L52.2053 33.1722Z" fill="white"/>
<path d="M30.1474 14.1829C25.9372 14.1829 21.8991 15.8555 18.922 18.8325C15.9449 21.8099 14.2724 25.848 14.2724 30.0579C14.2724 34.2678 15.945 38.3062 18.922 41.2833C21.8994 44.2604 25.9375 45.9329 30.1474 45.9329C34.3573 45.9329 38.3957 44.2603 41.3728 41.2833C44.3499 38.3059 46.0224 34.2678 46.0224 30.0579C46.0224 25.848 44.3498 21.8096 41.3728 18.8325C38.3954 15.8554 34.3573 14.1829 30.1474 14.1829ZM30.1474 44.0661C26.4324 44.0661 22.8692 42.5903 20.2423 39.9634C17.6154 37.3366 16.1396 33.7733 16.1396 30.0583C16.1396 26.3433 17.6154 22.7802 20.2423 20.1532C22.8691 17.5264 26.4324 16.0506 30.1474 16.0506C33.8624 16.0506 37.4256 17.5264 40.0525 20.1532C42.6794 22.7801 44.1552 26.3433 44.1552 30.0583C44.1552 33.7733 42.6794 37.3365 40.0525 39.9634C37.4257 42.5903 33.8624 44.0661 30.1474 44.0661Z" fill="white"/>
<path d="M26.4124 28.1906C27.403 28.1906 28.3531 27.7971 29.0539 27.0967C29.7543 26.3959 30.1478 25.4457 30.1478 24.4552C30.1478 23.4647 29.7543 22.5145 29.0539 21.8138C28.3531 21.1134 27.4029 20.7198 26.4124 20.7198C25.4219 20.7198 24.4717 21.1134 23.771 21.8138C23.0706 22.5146 22.677 23.4647 22.677 24.4552C22.677 25.4457 23.0706 26.3959 23.771 27.0967C24.4718 27.7971 25.4219 28.1906 26.4124 28.1906ZM26.4124 22.5875C26.9077 22.5875 27.383 22.7843 27.7332 23.1345C28.0833 23.4847 28.2801 23.96 28.2801 24.4552C28.2801 24.9505 28.0833 25.4258 27.7332 25.776C27.383 26.1261 26.9077 26.3229 26.4124 26.3229C25.9171 26.3229 25.4419 26.1261 25.0917 25.776C24.7415 25.4258 24.5447 24.9505 24.5447 24.4552C24.5447 23.96 24.7415 23.4847 25.0917 23.1345C25.4419 22.7843 25.9171 22.5875 26.4124 22.5875Z" fill="white"/>
<path d="M33.8832 30.9922C32.8927 30.9922 31.9425 31.3857 31.2418 32.0861C30.5414 32.7869 30.1478 33.7371 30.1478 34.7276C30.1478 35.7181 30.5414 36.6683 31.2418 37.369C31.9426 38.0694 32.8927 38.463 33.8832 38.463C34.8738 38.463 35.8239 38.0694 36.5247 37.369C37.2251 36.6682 37.6186 35.7181 37.6186 34.7276C37.6186 33.7371 37.2251 32.7869 36.5247 32.0861C35.8239 31.3857 34.8738 30.9922 33.8832 30.9922ZM33.8832 36.5953C33.388 36.5953 32.9127 36.3985 32.5625 36.0483C32.2123 35.6981 32.0155 35.2229 32.0155 34.7276C32.0155 34.2323 32.2123 33.757 32.5625 33.4069C32.9127 33.0567 33.388 32.8599 33.8832 32.8599C34.3785 32.8599 34.8538 33.0567 35.204 33.4069C35.5541 33.757 35.7509 34.2323 35.7509 34.7276C35.7509 35.2229 35.5541 35.6981 35.204 36.0483C34.8538 36.3985 34.3785 36.5953 33.8832 36.5953Z" fill="white"/>
<path d="M35.3486 21.8275C34.923 21.5361 34.3418 21.6449 34.0504 22.0705L23.778 37.0121C23.4945 37.4374 23.6054 38.0119 24.0273 38.3007C24.4492 38.5896 25.025 38.4854 25.3189 38.0673L35.5913 23.1257C35.8827 22.7 35.7739 22.1189 35.3486 21.8275Z" fill="white"/>
</svg>
