<svg width="60" height="60" viewBox="0 0 60 60" fill="none" xmlns="http://www.w3.org/2000/svg">
<path d="M42.3095 6.84142C42.1095 6.64142 41.9095 6.54142 41.7095 6.54142C41.6095 6.54142 38.8095 6.64142 36.0095 8.14142C36.1095 4.94142 35.0095 2.34142 35.0095 2.34142C34.9095 2.24142 34.7095 2.04142 34.5095 2.04142C34.3095 1.94142 34.0095 2.04142 33.8095 2.14142C33.7095 2.24142 31.5095 3.84142 30.0095 6.64142C28.3095 3.94142 26.0095 2.44142 25.9095 2.44142C25.7095 2.34142 25.4095 2.24142 25.2095 2.34142C25.0095 2.44142 24.8095 2.64142 24.7095 2.84142C24.6095 3.04142 23.3095 7.14142 24.7095 11.2414C25.5095 13.4414 26.8095 15.0414 28.0095 16.2414C24.5095 16.5414 21.4095 19.1414 20.4095 22.8414C20.2095 23.4414 20.0095 24.8414 19.8095 26.8414C19.8095 26.9414 19.8095 26.9414 19.8095 27.0414C19.2095 33.6414 18.5095 45.5414 18.0095 54.4414C17.9095 55.6414 18.6095 56.6414 19.7095 56.9414C19.9095 57.0414 20.1095 57.0414 20.3095 57.0414C21.2095 57.0414 22.0095 56.5414 22.4095 55.7414C25.1095 50.4414 28.9095 42.9414 31.9095 36.8414C32.0095 36.7414 32.0095 36.6414 32.1095 36.5414C32.1095 36.5414 32.1095 36.5414 32.1095 36.4414C34.5095 31.4414 35.9095 28.2414 36.2095 27.0414C37.2095 23.3414 35.8095 19.5414 32.9095 17.5414C34.4095 17.1414 36.5095 16.3414 38.2095 14.8414C41.5095 12.0414 42.3095 7.74142 42.4095 7.54142C42.6095 7.34142 42.5095 7.04142 42.3095 6.84142ZM32.8095 15.9414C33.8095 14.7414 35.0095 13.0414 35.6095 10.8414C35.7095 10.6414 35.7095 10.4414 35.7095 10.2414C37.5095 9.04142 39.4095 8.54142 40.6095 8.34142C40.1095 9.74142 39.2095 12.0414 37.2095 13.6414C35.9095 14.8414 34.2095 15.5414 32.8095 15.9414ZM30.6095 9.44142C31.3095 7.04142 32.9095 5.14142 33.9095 4.14142C34.3095 5.34142 34.7095 7.44142 34.3095 9.64142C34.3095 9.84142 34.2095 10.1414 34.1095 10.4414C33.5095 12.6414 32.1095 14.3414 31.0095 15.5414C31.0095 15.5414 30.9095 15.4414 30.8095 15.4414C30.7095 15.4414 30.7095 15.4414 30.6095 15.4414H30.5095C30.3095 13.8414 30.0095 11.6414 30.6095 9.44142ZM26.3095 10.7414C25.5095 8.34142 25.8095 5.84142 26.1095 4.44142C27.0095 5.24142 28.5095 6.64142 29.4095 8.54142C29.3095 8.74142 29.3095 8.94142 29.2095 9.14142C28.6095 11.3414 28.8095 13.4414 29.1095 14.9414C28.0095 13.8414 26.9095 12.4414 26.3095 10.7414ZM35.1095 24.5414C35.1095 25.2414 35.0095 25.8414 34.8095 26.5414C34.6095 27.3414 33.9095 29.0414 32.6095 31.8414L31.0095 31.4414C30.6095 31.3414 30.2095 31.5414 30.0095 31.9414C29.9095 32.3414 30.1095 32.7414 30.5095 32.9414L31.9095 33.3414C31.6095 33.9414 31.3095 34.6414 30.9095 35.3414L29.4095 34.9414C29.0095 34.8414 28.6095 35.0414 28.5095 35.4414C28.4095 35.8414 28.6095 36.2414 29.0095 36.4414L30.2095 36.7414C29.4095 38.4414 28.4095 40.3414 27.5095 42.1414L26.0095 41.7414C25.8095 41.7414 25.6095 41.7414 25.4095 41.8414C25.2095 41.9414 25.1095 42.1414 25.0095 42.3414C25.0095 42.5414 25.0095 42.7414 25.1095 42.9414C25.2095 43.1414 25.4095 43.2414 25.6095 43.3414L26.8095 43.6414C25.8095 45.6414 24.8095 47.5414 23.9095 49.4414L22.4095 49.0414C22.0095 48.9414 21.6095 49.1414 21.5095 49.5414C21.4095 49.7414 21.5095 49.9414 21.6095 50.1414C21.7095 50.3414 21.9095 50.4414 22.1095 50.5414L23.3095 50.8414C22.6095 52.3414 21.9095 53.6414 21.2095 54.9414C20.9095 55.5414 20.4095 55.4414 20.3095 55.4414C20.2095 55.4414 19.7095 55.2414 19.7095 54.5414C19.8095 52.0414 20.0095 48.9414 20.2095 45.8414L21.4095 46.1414C21.8095 46.2414 22.2095 46.0414 22.4095 45.6414C22.5095 45.4414 22.4095 45.2414 22.3095 45.0414C22.2095 44.8414 22.0095 44.7414 21.8095 44.6414L20.3095 44.2414C20.4095 42.2414 20.5095 40.1414 20.7095 38.1414L21.9095 38.4414C22.3095 38.5414 22.7095 38.3414 22.9095 37.9414C23.0095 37.5414 22.8095 37.1414 22.3095 36.9414L20.8095 36.5414C21.0095 33.0414 21.3095 30.1414 21.5095 27.9414L22.7095 28.2414C23.1095 28.3414 23.5095 28.1414 23.7095 27.6414C23.8095 27.4414 23.7095 27.2414 23.6095 27.0414C23.5095 26.8414 23.3095 26.7414 23.1095 26.6414L21.6095 26.2414C21.8095 24.6414 21.9095 23.5414 22.1095 22.9414C22.2095 22.7414 22.2095 22.5414 22.3095 22.2414L23.7095 22.6414C24.1095 22.7414 24.5095 22.5414 24.7095 22.1414C24.8095 21.7414 24.6095 21.3414 24.1095 21.1414L22.9095 21.0414C24.5095 18.4414 27.5095 17.1414 30.3095 17.8414C33.2095 18.6414 35.1095 21.4414 35.1095 24.5414Z" fill="white"/>
</svg>
