<svg width="60" height="60" viewBox="0 0 60 60" fill="none" xmlns="http://www.w3.org/2000/svg">
<path fill-rule="evenodd" clip-rule="evenodd" d="M29.2409 1.09518C29.5106 0.968273 29.8228 0.968273 30.0925 1.09518L34.472 3.15612C38.8721 5.22675 43.7356 6.11571 48.5836 5.73547L52.2551 5.44751C52.5331 5.42571 52.8075 5.52093 53.0122 5.71021C53.2169 5.89949 53.3333 6.16564 53.3333 6.44444V32.6558C53.3333 40.4518 49.2074 47.6656 42.4878 51.6184L30.1737 58.8619C29.8607 59.046 29.4726 59.046 29.1596 58.8619L16.8456 51.6184C10.1259 47.6656 6 40.4518 6 32.6558V6.44444C6 6.16564 6.11639 5.89949 6.3211 5.71021C6.52581 5.52093 6.80024 5.42571 7.07819 5.44751L10.7497 5.73547C15.5978 6.11571 20.4613 5.22675 24.8614 3.15612L29.2409 1.09518ZM29.6667 3.10519L25.713 4.96575C20.9986 7.18429 15.7877 8.13675 10.5933 7.72934L8 7.52595V32.6558C8 39.7431 11.7508 46.3011 17.8596 49.8945L29.6667 56.8398L41.4737 49.8945C47.5825 46.3011 51.3333 39.7431 51.3333 32.6558V7.52595L48.74 7.72934C43.5457 8.13675 38.3348 7.18429 33.6204 4.96576L29.6667 3.10519Z" fill="white"/>
<path fill-rule="evenodd" clip-rule="evenodd" d="M29.6684 17.2188C22.6114 17.2188 16.8906 22.9396 16.8906 29.9965C16.8906 37.0535 22.6114 42.7743 29.6684 42.7743C36.7254 42.7743 42.4462 37.0535 42.4462 29.9965C42.4462 22.9396 36.7254 17.2188 29.6684 17.2188ZM14.8906 29.9965C14.8906 21.835 21.5069 15.2188 29.6684 15.2188C37.8299 15.2188 44.4462 21.835 44.4462 29.9965C44.4462 38.1581 37.8299 44.7743 29.6684 44.7743C21.5069 44.7743 14.8906 38.1581 14.8906 29.9965Z" fill="white"/>
<path fill-rule="evenodd" clip-rule="evenodd" d="M36.9973 25.2526C37.41 25.6195 37.4472 26.2516 37.0803 26.6644L29.9692 34.6644C29.7862 34.8702 29.5265 34.9915 29.2512 34.9996C28.9759 35.0077 28.7094 34.9019 28.5147 34.7071L24.0702 30.2627C23.6797 29.8721 23.6797 29.239 24.0702 28.8484C24.4608 28.4579 25.0939 28.4579 25.4845 28.8484L29.179 32.543L35.5855 25.3356C35.9524 24.9229 36.5845 24.8857 36.9973 25.2526Z" fill="white"/>
</svg>
