<svg width="60" height="60" viewBox="0 0 60 60" fill="none" xmlns="http://www.w3.org/2000/svg">
<path d="M27.4 29.9352C27.4 30.3352 27.1 30.7352 26.7 30.7352C26.7 30.7352 26.6 30.7352 26.5 30.7352C25.1 30.4352 24.1 29.1352 24.1 27.7352C24.1 26.2352 25.1 25.0352 26.6 24.7352C26.8 24.7352 27 24.7352 27.1 24.8352C27.3 24.9352 27.4 25.2352 27.4 25.4352C27.4 25.8352 27 26.2352 26.7 26.3352C26.1 26.5352 25.7 27.1352 25.7 27.7352C25.7 28.3352 26.1 28.9352 26.7 29.1352C27.1 29.2352 27.3 29.5352 27.4 29.9352Z" fill="white"/>
<path d="M31.5 23.6352C31.5 24.0352 31.2 24.3352 30.8 24.3352C30.8 24.3352 30.7 24.3352 30.6 24.3352C29.2 24.0352 28.2 22.7352 28.2 21.3352C28.2 19.8352 29.2 18.6352 30.7 18.3352C30.9 18.3352 31.1 18.3352 31.2 18.4352C31.4 18.5352 31.5 18.8352 31.5 19.0352C31.5 19.4352 31.1 19.8352 30.8 19.9352C30.2 20.1352 29.8 20.7352 29.8 21.3352C29.8 21.9352 30.2 22.5352 30.8 22.7352C31.2 22.8352 31.5 23.2352 31.5 23.6352Z" fill="white"/>
<path d="M54.4 23.0352L50.2 16.8352V10.4352C50.2 9.23521 49.6 8.13521 48.6 7.53521L47.3 6.73521C46.7 5.13521 45.1 3.73521 43.1 3.23521C40.2 2.43521 37.3 3.73521 36.4 6.23521C35.1 9.73521 38.1 14.2352 39.9 16.5352C40.2 16.9352 40.3 17.5352 40 18.0352C39.7 18.5352 39.1 18.7352 38.5 18.5352L33.2 16.6352C32.9 16.5352 32.5 16.4352 32.1 16.4352H21.6L12.9 3.43521C12.8 3.23521 12.6 3.13521 12.3 3.13521C12.1 3.13521 11.8 3.13521 11.7 3.33521C10.8 4.23521 3 12.3352 3 22.8352C3 23.5352 3 24.2352 3.1 24.8352C3.8 31.7352 8 37.8352 15.7 43.1352V50.2352C15.7 52.0352 17.1 53.4352 18.9 53.4352H25.8C26 53.4352 26.3 53.3352 26.5 53.2352L30 50.7352L31.1 55.9352H29.4C29 55.9352 28.6 56.3352 28.6 56.7352C28.6 57.1352 29 57.5352 29.4 57.5352H37.6C38 57.5352 38.4 57.2352 38.4 56.7352C38.4 56.3352 38 55.9352 37.6 55.9352H32.7L31.4 49.7352L32.9 48.7352H40.7C43.9 48.7352 47.1 47.7352 49.7 46.0352L49.9 45.9352C54.5 42.9352 57.2 37.8352 57.2 32.3352C57.2 28.9352 56.2 25.7352 54.4 23.0352ZM47.5 9.23521C47.5 9.13521 47.6 9.03521 47.6 8.83521L47.8 8.93521C48 9.03521 48.2 9.23521 48.3 9.43521H47.5C47.5 9.33521 47.5 9.23521 47.5 9.23521ZM46.5 11.0352H48.7V18.4352C48.7 18.6352 48.5 18.8352 48.3 18.8352C48.1 18.8352 47.9 18.6352 47.9 18.4352V14.3352C47.9 13.7352 47.7 13.0352 47.4 12.5352L46.4 11.1352C46.4 11.1352 46.4 11.0352 46.5 11.0352ZM16.5 41.6352C14.3 40.1352 12.3 38.4352 10.7 36.7352L13.6 36.0352C13.8 36.0352 14 35.8352 14.1 35.6352C14.2 35.4352 14.2 35.1352 14.1 34.9352C14 34.6352 13.7 34.4352 13.4 34.4352C13.4 34.4352 13.3 34.4352 13.2 34.4352L9.5 35.3352C8 33.5352 6.8 31.5352 6 29.5352H11.8C12 29.5352 12.2 29.4352 12.4 29.3352C12.6 29.1352 12.6 28.9352 12.6 28.7352C12.6 28.3352 12.2 28.0352 11.8 28.0352H5.4C5 26.8352 4.8 25.6352 4.7 24.5352C4.6 23.5352 4.6 22.5352 4.7 21.5352L12.2 23.3352C12.4 23.4352 12.6 23.3352 12.8 23.2352C13 23.1352 13.1 22.9352 13.2 22.7352C13.2 22.6352 13.2 22.6352 13.2 22.5352C13.2 22.2352 13 21.8352 12.6 21.7352L4.9 19.8352C5.2 17.6352 5.9 15.3352 7 13.0352L14.4 17.5352C14.8 17.7352 15.3 17.6352 15.5 17.2352C15.6 17.1352 15.6 17.0352 15.6 16.8352C15.6 16.5352 15.4 16.3352 15.2 16.1352L7.7 11.5352C8.8 9.53521 10.1 7.43521 11.7 5.63521C11.9 5.43521 12.1 5.33521 12.3 5.33521C12.5 5.33521 12.8 5.43521 12.9 5.63521L20.1 16.4352C19 16.9352 18.3 18.0352 18.3 19.2352C18.3 20.1352 18.7 20.9352 19.4 21.5352C18.7 22.1352 18.3 22.9352 18.3 23.8352C18.3 24.7352 18.7 25.5352 19.4 26.1352C18.6 27.1352 18.2 27.9352 18.2 28.8352C18.2 29.7352 18.6 30.5352 19.3 31.1352C18.6 31.7352 18.2 32.5352 18.2 33.4352C18.2 34.6352 18.9 35.7352 20 36.2352L16.5 41.6352ZM49.1 44.4352L48.9 44.5352C46.5 46.1352 43.6 47.0352 40.7 47.0352H35.2L40.9 43.0352C43.8 41.0352 45.5 37.6352 45.5 34.1352V33.7352C45.5 29.0352 42.5 24.8352 38 23.4352C37.8 23.3352 37.5 23.4352 37.3 23.5352C37.1 23.7352 37 23.9352 37 24.2352C37 24.5352 37.2 24.8352 37.6 25.0352C41.4 26.3352 43.9 29.8352 43.9 33.8352V34.2352C43.9 37.2352 42.4 40.1352 39.9 41.8352L25.6 51.8352H22.4L25.6 46.9352C25.8 46.7352 25.8 46.4352 25.6 46.1352C25.5 45.8352 25.2 45.7352 24.9 45.7352C24.6 45.7352 24.4 45.8352 24.2 46.1352L20.4 51.8352H18.2L21.4 46.9352C21.6 46.7352 21.6 46.4352 21.4 46.1352C21.3 45.9352 21 45.7352 20.7 45.7352C20.4 45.7352 20.2 45.8352 20 46.1352L17.1 50.6352V43.4352L22.9 34.5352C23.1 34.3352 23.1 34.0352 22.9 33.7352C22.8 33.4352 22.5 33.3352 22.2 33.3352C21.9 33.3352 21.7 33.4352 21.5 33.7352L20.9 34.9352C20.2 34.7352 19.8 34.1352 19.8 33.4352C19.8 32.7352 20.2 32.2352 20.8 31.9352C21.2 31.8352 21.5 31.5352 21.5 31.0352C21.5 30.6352 21.2 30.3352 20.8 30.1352C20.2 29.9352 19.8 29.3352 19.8 28.7352C19.8 28.1352 20.2 27.5352 20.8 27.2352C21.2 27.0352 21.5 26.7352 21.5 26.3352C21.5 25.9352 21.2 25.6352 20.8 25.4352C20.2 25.2352 19.8 24.6352 19.8 24.0352C19.8 23.4352 20.2 22.8352 20.8 22.6352C21.2 22.4352 21.5 22.1352 21.5 21.7352C21.5 21.3352 21.2 21.0352 20.8 20.8352C20.2 20.6352 19.8 20.0352 19.8 19.3352C19.8 18.5352 20.5 17.8352 21.3 17.8352H31.6C32.1 17.8352 32.7 17.9352 33.2 18.1352L38.1 19.8352C39.4 20.2352 40.7 19.8352 41.4 18.7352C42.1 17.7352 42 16.3352 41.2 15.4352C39.9 13.7352 36.9 9.53521 37.9 6.63521C38.5 4.93521 40.6 4.13521 42.7 4.63521C44.3 5.03521 45.6 6.13521 45.9 7.43521V7.63521C46 7.93521 46 8.33521 45.9 8.63521C45.7 9.23521 45.3 9.73521 44.7 10.1352C44.5 10.2352 44.3 10.5352 44.3 10.8352C44.3 11.0352 44.3 11.1352 44.4 11.2352L46 13.5352C46.1 13.6352 46.1 13.7352 46.1 13.8352V18.1352C46.1 19.2352 47 20.1352 48.1 20.1352C48.8 20.1352 49.5 19.7352 49.8 19.1352L52.9 23.7352C54.6 26.1352 55.4 29.0352 55.4 32.0352C55.6 37.1352 53.2 41.7352 49.1 44.4352Z" fill="white"/>
<path d="M43.8 6.33521C42.9 6.33521 42.2 7.03521 42.2 7.93521C42.2 8.83521 42.9 9.53521 43.8 9.53521C44.7 9.53521 45.4 8.83521 45.4 7.93521C45.4 7.03521 44.7 6.33521 43.8 6.33521ZM43.8 8.33521C43.6 8.33521 43.4 8.13521 43.4 7.93521C43.4 7.73521 43.6 7.53521 43.8 7.53521C44 7.53521 44.2 7.73521 44.2 7.93521C44.2 8.13521 44 8.33521 43.8 8.33521Z" fill="white"/>
</svg>
