<svg width="60" height="60" viewBox="0 0 60 60" fill="none" xmlns="http://www.w3.org/2000/svg">
<path d="M52.6 38.2C51.9 31.5 51.8 29.1 51.8 28.3V28.2C51.7 27.4 51.7 27.3 51.6 26.8C51.5 26.6 51.3 26.4 51.1 26.3C50.9 26.2 50.6 26.2 50.4 26.3C48.8 27 47.4 27.7 46 28.4C43.3 21.1 38 13 30.3 4.3C30 3.9 29.3 3.9 29 4.3C26.3 7.4 23.8 10.4 21.7 13.3C21.4 13.3 21.1 13.3 20.9 13.3C17.5 13.3 14.3 14.6 11.8 17.1C9.4 19.5 8 22.7 8 26.2C8 29.7 9.4 32.8 11.6 35.1C10.4 42.9 12.8 49.3 18.3 53.2C21.5 55.4 25.5 56.7 29.7 56.7C32.9 56.7 36.1 56 38.9 54.6C40.1 55 41.3 55.2 42.5 55.2C43.1 55.2 43.8 55.1 44.5 55C47.2 54.5 49.5 52.8 50.9 50.2C52.5 47.1 53.1 43.1 52.6 38.2ZM9.8 26.1C9.8 20 14.8 15.1 20.8 15.1C21.2 15.1 21.6 15.1 21.9 15.2C27.4 15.8 31.8 20.5 31.8 26.2C31.8 32.3 26.8 37.2 20.8 37.2C14.7 37.1 9.8 32.2 9.8 26.1ZM19.3 51.7C14.6 48.4 12.5 43 13.2 36.4C15.3 38 18 38.9 20.8 38.9C27.9 38.9 33.6 33.1 33.6 26.1C33.6 20 29.3 14.9 23.6 13.6C25.4 11.2 27.4 8.7 29.6 6.2C36.9 14.5 41.9 22.2 44.3 29.2C39.8 31.7 36.5 34.4 34.3 37.2C30.9 41.6 31.1 45.2 31.8 47.6C32.6 50.1 34.3 52.1 36.6 53.5C31.1 55.8 24.2 55.1 19.3 51.7ZM49.3 49.2C48.1 51.3 46.3 52.7 44.1 53.1C42.6 53.4 41 53.3 39.6 52.8C39.6 50.4 39.8 47.9 40.4 45.7L43.8 45.5C44.3 45.5 44.7 45.1 44.6 44.6C44.6 44.4 44.5 44.1 44.3 44C44.1 43.8 43.9 43.8 43.7 43.8L41 43.9C41.9 41.6 43.3 39.9 45.3 39.4C45.5 39.3 45.7 39.2 45.8 39C45.9 38.8 46 38.6 45.9 38.3C45.8 38.1 45.7 37.9 45.5 37.7C45.3 37.6 45.1 37.5 44.8 37.6C42.6 38.2 40.8 39.9 39.6 42.6L38.7 40.8C38.6 40.6 38.4 40.4 38.2 40.3C38 40.2 37.7 40.2 37.5 40.3C37.3 40.4 37.1 40.6 37 40.8C36.9 41 36.9 41.3 37.1 41.5L38.8 44.8C38.2 46.9 37.8 49.3 37.8 51.8C35.9 50.7 34.3 48.9 33.7 46.8C31.7 40.6 37.9 33.6 50.1 28.1V28.3C50.2 29.5 50.3 32.1 50.9 38.1C51.3 43 50.8 46.6 49.3 49.2Z" fill="white"/>
<path fill-rule="evenodd" clip-rule="evenodd" d="M27.5 21.6C27.9 22 28 22.6 27.6 23L20.5 31C20.3 31.2 20 31.3 19.8 31.3C19.5 31.3 19.3 31.2 19.1 31L14.7 26.6C14.3 26.2 14.3 25.6 14.7 25.2C15.1 24.8 15.7 24.8 16.1 25.2L19.8 28.9L26.2 21.7C26.5 21.2 27.1 21.2 27.5 21.6Z" fill="white"/>
</svg>
