<svg width="48" height="48" viewBox="0 0 48 48" fill="none" xmlns="http://www.w3.org/2000/svg">
<rect width="48" height="48" rx="16" fill="#336F3F"/>
<path d="M32.4928 27H15.5072C14.6753 27 14 27.6721 14 28.5C14 29.3268 14.6753 30 15.5072 30H32.4928C33.3247 30 34 29.3268 34 28.5C34 27.6721 33.3247 27 32.4928 27Z" fill="white"/>
<path d="M34 19.4994C34 18.6723 33.3239 18 32.4921 18H15.509C14.6761 18 14 18.6723 14 19.4994C14 20.3277 14.6761 21 15.509 21H32.4921C33.3239 21 34 20.3277 34 19.4994Z" fill="white"/>
</svg>
