<svg width="56" height="7" viewBox="0 0 56 7" fill="none" xmlns="http://www.w3.org/2000/svg">
<path d="M2.26701 6.51948C4.39621 3.6419 10.6455 1.98157 17.002 1.38871C20.9225 1.02029 24.9282 0.770282 28.9824 0.83605C33.0366 0.901819 37.1414 1.23201 41.1885 1.46894C45.6898 1.72476 50.1811 2.2202 54.3118 3.18071C54.7624 3.28518 55.338 3.12052 55.4972 2.93855C55.6586 2.70522 53.6472 2.38748 53.6472 2.38748C53.6472 2.38748 38.3889 0.409494 30.1684 0.239001C22.2129 0.0795303 13.9403 0.249777 7.41114 2.25852C4.26189 3.22482 1.74115 4.57732 0.496614 6.24009C0.0967578 6.73782 1.90429 7.0359 2.26701 6.51948Z" fill="#FBEC51"/>
</svg>
