<svg width="48" height="48" viewBox="0 0 48 48" fill="none" xmlns="http://www.w3.org/2000/svg">
<path d="M28.8772 16.8611L16.8665 28.8718C16.2783 29.46 16.276 30.4127 16.8614 30.9982C17.4461 31.5828 18.3996 31.5813 18.9878 30.9931L30.9985 18.9824C31.5867 18.3942 31.5882 17.4407 31.0036 16.856C30.4181 16.2706 29.4654 16.2729 28.8772 16.8611Z" fill="white"/>
<path d="M31.1795 31.1399C31.7644 30.555 31.7617 29.6015 31.1735 29.0134L19.1647 17.0046C18.5758 16.4156 17.6223 16.4129 17.0374 16.9978C16.4517 17.5834 16.4544 18.5369 17.0434 19.1259L29.0522 31.1347C29.6404 31.7229 30.5939 31.7256 31.1795 31.1399Z" fill="white"/>
</svg>
