<svg width="293" height="239" viewBox="0 0 293 239" fill="none" xmlns="http://www.w3.org/2000/svg">
<path d="M0.812408 10.8407C4.44262 6.63384 9.92405 4.92268 15.2323 4.0633C19.8793 3.34813 24.6039 3.13932 29.2745 3.33159C38.4932 3.75798 47.6443 5.98382 56.0556 9.80179C60.7824 11.9561 65.3251 14.6106 69.4792 17.767C70.5402 18.5518 69.2692 20.189 68.2408 19.3794C61.0927 13.9815 52.8764 10.0148 44.2317 7.71142C35.6443 5.41574 26.6113 4.69352 17.7724 5.77687C12.3155 6.44117 6.1928 7.71579 2.4248 12.0791C2.07649 12.4989 1.44781 12.6183 0.995536 12.2948C0.575778 11.9465 0.464098 11.2605 0.812408 10.8407Z" fill="#3D954E"/>
<path d="M49.1547 21.9415C54.3918 21.3934 59.6366 20.788 64.8737 20.2399C65.4946 20.1778 66.0583 20.1079 66.6793 20.0458C67.2429 19.976 67.8809 20.0037 68.4352 19.7867C69.1692 19.5356 68.9661 18.6623 68.7569 18.0507C68.0346 15.6196 67.1326 13.2227 66.2957 10.7762C65.3333 7.96275 64.4034 5.12449 63.4409 2.31102C63.0225 1.08777 64.9378 0.29592 65.3238 1.54395C66.2444 4.2351 67.165 6.92624 68.053 9.64218C68.9318 12.211 69.9004 14.7628 70.6568 17.3734C70.9513 18.4341 71.1406 19.6265 70.5431 20.596C69.8001 21.7793 68.3785 21.9377 67.1366 22.0619C64.3834 22.3615 61.6301 22.6612 58.8768 22.9608C55.707 23.321 52.5697 23.6563 49.3752 23.984C48.1007 24.133 47.8478 22.1153 49.1547 21.9415Z" fill="#3D954E"/>
<path d="M228.943 228.791C230.436 233.261 235.066 235.963 239.379 237.135C244.161 238.446 249.234 238.294 253.999 236.922C263.661 234.191 271.202 227.096 277.391 219.504C281.246 214.779 284.613 209.693 287.568 204.342C287.842 203.845 287.44 203.097 286.976 202.915C286.387 202.675 285.823 203.009 285.549 203.507C283.035 208.026 280.193 212.334 277.022 216.43C274.111 220.158 270.996 223.733 267.447 226.864C260.506 232.88 251.519 237.092 242.151 235.502C237.747 234.76 232.5 232.475 230.978 227.869C230.774 227.319 230.049 227.108 229.543 227.317C228.897 227.599 228.739 228.241 228.943 228.791Z" fill="#3D954E"/>
<path d="M292.681 220.329C291.123 214.84 289.565 209.35 288.007 203.861C287.691 202.728 287.465 201.164 286.089 200.883C285.403 200.72 284.757 201.002 284.145 201.375C283.533 201.748 282.964 202.126 282.347 202.543C279.938 204.083 277.567 205.672 275.157 207.213C272.458 208.986 269.764 210.716 267.065 212.489C266.588 212.833 266.552 213.576 266.9 214.01C267.287 214.491 267.944 214.519 268.421 214.175C272.821 211.312 277.221 208.448 281.573 205.624C282.705 204.912 283.799 204.151 284.932 203.439C285.072 203.366 285.438 203.23 285.544 203.066C285.645 202.945 285.583 203.114 285.505 203.018C285.282 202.642 285.375 203.004 285.375 203.004C285.37 203.047 285.574 203.597 285.569 203.64C285.662 204.002 285.759 204.32 285.852 204.682C286.548 207.176 287.288 209.674 287.979 212.212C288.768 215.067 289.6 217.928 290.389 220.783C290.545 221.372 291.029 221.776 291.656 221.668C292.292 221.474 292.841 220.874 292.681 220.329Z" fill="#3D954E"/>
</svg>
