<svg width="60" height="60" fill="none" xmlns="http://www.w3.org/2000/svg"><path d="M34 30c-1.9 0-3.5 1.6-3.5 3.5S32.1 37 34 37s3.5-1.6 3.5-3.5S36 30 34 30Zm0 5c-.8 0-1.4-.7-1.4-1.5S33.2 32 34 32c.8 0 1.5.7 1.5 1.5S34.8 35 34 35ZM43.9 30c-1.9 0-3.5 1.6-3.5 3.5S42 37 43.9 37s3.5-1.6 3.5-3.5-1.5-3.5-3.5-3.5Zm0 5c-.8 0-1.4-.7-1.4-1.5s.6-1.5 1.4-1.5c.8 0 1.5.7 1.5 1.5s-.7 1.5-1.5 1.5ZM26.6 35.8c-1.9 0-3.5 1.6-3.5 3.5s1.6 3.5 3.5 3.5 3.5-1.6 3.5-3.5-1.6-3.5-3.5-3.5Zm0 5c-.8 0-1.4-.7-1.4-1.5s.7-1.5 1.4-1.5c.8 0 1.5.7 1.5 1.5s-.7 1.5-1.5 1.5Z" fill="#fff"/><path d="M53.8 20H40V6c0-.6-.5-1-1-1H20.9c-.6 0-1 .5-1 1v14H6c-.6 0-1 .5-1 1v18.3c0 .6.5 1 1 1h13.8v14c0 .6.5 1 1 1h18.1c5.4 0 9.3-3.6 9.3-8.5 0-5.2-4.2-9.4-9.3-9.4-5.1 0-9.3 4.2-9.3 9.4 0 2.6 1.1 4.9 3 6.5H21.9v-14c0-.6-.5-1-1-1H7.1V22.1h13.8c.6 0 1-.5 1-1v-14H38v14c0 .6.5 1 1 1h13.8v14.1c-.5-.2-1-.3-1.5-.3-1.9 0-3.5 1.6-3.5 3.5s1.6 3.5 3.5 3.5 3.5-1.6 3.5-3.5V21c0-.5-.4-1-1-1Zm-22 26.9c0-4 3.2-7.3 7.2-7.3s7.2 3.3 7.2 7.3c0 3.8-3 6.5-7.2 6.5-4.3-.1-7.2-2.7-7.2-6.5Zm19.5-6.1c-.8 0-1.5-.7-1.5-1.5s.7-1.5 1.5-1.5 1.5.7 1.5 1.5-.7 1.5-1.5 1.5Z" fill="#fff"/></svg>