<svg width="60" height="60" fill="none" xmlns="http://www.w3.org/2000/svg"><path d="M53.9 39.8h-3.5c-.7-1-1.9-1.7-3.1-1.8 1.3-1.5 1.4-3.8.1-5.4V18.4c0-1.8-1.5-3.3-3.2-3.3h-4.1c-.8-1.2-2.2-2-3.6-2 1.7-1.8 1.7-4.7-.1-6.5-.9-.9-2-1.4-3.2-1.4-1.2 0-2.3.5-3.1 1.3C30 4 28 2 25.5 2 23 2 21 4 20.9 6.5c-.8-.8-2-1.3-3.1-1.3-1.2 0-2.4.5-3.2 1.4-1.8 1.8-1.8 4.7-.1 6.5-1.5 0-2.8.8-3.6 2h-4c-1.9 0-3.4 1.5-3.4 3.5v34.5c0 1.8 1.5 3.3 3.2 3.3h47.2c1.6 0 3-1.4 3-3V42.8c0-1.7-1.3-3-3-3Zm-27-7.1h-2.8V19.2c.6-.2 1.1-.5 1.4-.6.3.1.8.3 1.4.6v13.5Zm-7.7 10.2c0-.8.7-1.5 1.5-1.5h2.7c0 .3-.1.5-.1.8 0 2.3 1.9 4.3 4.2 4.3 1 0 3.3-.7 7-2.2v10.5h-14c-.7 0-1.3-.6-1.3-1.4V42.9Zm15.9-.7c-4 1.6-6.8 2.6-7.6 2.6-1.4 0-2.5-1.2-2.5-2.6 0-1.4 1.1-2.6 2.5-2.6 1.1.1 5.6 1.8 7.6 2.6Zm1 1.4c.5-.2.9-.4 1.2-.5.3.1.7.3 1.1.5v11.1h-2.3V43.6Zm1.1-3.6c-.8-2-2.5-6.6-2.5-7.8 0-1.4 1.1-2.6 2.5-2.6s2.5 1.2 2.5 2.6c.1 1.2-1.6 5.8-2.5 7.8Zm-8.3-2.7c-.6-.4-1-1.1-1.1-1.9-.1-.8.2-1.6.7-2.1.5-.5 1.1-.8 1.8-.8h.3c.8.1 1.5.6 2 1.3.9 1.5 2.4 4.9 3.2 6.7-2.2-.7-5.5-2.2-6.9-3.2Zm17-.3c-.8.8-5.3 2.9-7.2 3.6.8-1.8 2.8-6.5 3.6-7.3.5-.5 1.1-.8 1.8-.8s1.3.3 1.8.8.7 1.2.7 1.8c.1.8-.2 1.4-.7 1.9Zm8 17.7H40V44.3c3.6 1.5 6 2.2 7 2.2 2.3 0 4.2-1.9 4.2-4.2 0-.2 0-.5-.1-.8h2.8c.7 0 1.3.6 1.3 1.4v10.6c.1.6-.5 1.2-1.3 1.2ZM47 39.6c1.4 0 2.5 1.2 2.5 2.6 0 1.4-1.1 2.6-2.5 2.6-1.1 0-5.1-1.5-7.6-2.6 2.2-.9 6.5-2.6 7.6-2.6Zm-6.1-21.8c0-.3 0-.6-.1-1h3.4c.9 0 1.6.7 1.6 1.6v12.9c-1.5-.7-3.2-.4-4.4.7-.2-2.2-2-4-4.2-4-1.2 0-2.2.5-3 1.3-.7.7-1.1 1.7-1.1 2.6-.8-.7-1.7-1-2.7-1-.6 0-1.3.1-1.9.4V19.9c4.1 1.7 6.8 2.5 7.9 2.5 2.5 0 4.5-2.1 4.5-4.6Zm-1.6 0c0 1.7-1.3 3-2.9 3-1 0-4.2-1.1-8.8-3 2.2-.9 7.4-3 8.8-3 1.6 0 2.9 1.3 2.9 3ZM29 11.5c.8-1.7 1.6-3.2 2.1-3.7.5-.6 1.3-.9 2.1-.9s1.5.3 2.1.9c1.1 1.2 1.1 3.1 0 4.2-1 1-6.2 3.3-8.2 4.2.3-1.1 1.1-3 1.9-4.7Zm-3.5-7.8c1.6 0 2.9 1.3 2.9 3 0 1.3-2 6.6-2.9 8.9-.9-2.3-2.9-7.6-2.9-8.9-.1-1.7 1.2-3 2.9-3Zm-9.8 4.1c.5-.6 1.3-.9 2-.9.8 0 1.5.3 2.1.9.9 1 3.2 6.1 4.1 8.4-2.2-1-7.3-3.2-8.2-4.2-1.2-1.1-1.2-3 0-4.2Zm-1.1 7c1.2 0 6.2 1.9 8.7 3-2.5 1-7.4 3-8.7 3-1.6 0-2.9-1.3-2.9-3-.1-1.7 1.2-3 2.9-3Zm-9.5 3.8c0-.5.2-.9.5-1.3.3-.3.8-.5 1.2-.5H10c-.1.3-.1.7-.1 1 0 2.6 2 4.7 4.6 4.7 1.1 0 3.7-.8 7.8-2.5v12.8H5.1V18.6Zm0 15.8h21.1c-.2.9 0 2 .4 2.8H5.1v-2.8Zm12.8 20.3H6.7c-.9 0-1.6-.7-1.6-1.6V38.9h19.8l-.9.9h-3.3c-1.7 0-3.1 1.4-3.1 3.2v10.4c0 .5.1.9.3 1.3Z" fill="#fff"/></svg>