<svg width="60" height="60" fill="none" xmlns="http://www.w3.org/2000/svg"><path fill-rule="evenodd" clip-rule="evenodd" d="M29.24 1.095a1 1 0 0 1 .853 0l4.379 2.061a28 28 0 0 0 14.112 2.58l3.671-.288a1 1 0 0 1 1.078.996v26.212a22 22 0 0 1-10.845 18.962l-12.314 7.244a1 1 0 0 1-1.014 0l-12.314-7.244A22 22 0 0 1 6 32.656V6.444a1 1 0 0 1 1.078-.996l3.672.287A28 28 0 0 0 24.86 3.156l4.38-2.06Zm.427 2.01-3.954 1.86a30 30 0 0 1-15.12 2.764L8 7.526v25.13a20 20 0 0 0 9.86 17.239l11.807 6.945 11.807-6.946a20 20 0 0 0 9.86-17.238V7.526l-2.594.203a30 30 0 0 1-15.12-2.763l-3.953-1.86Z" fill="#fff"/><path fill-rule="evenodd" clip-rule="evenodd" d="M29.668 17.219c-7.057 0-12.777 5.72-12.777 12.777 0 7.058 5.72 12.778 12.777 12.778 7.057 0 12.778-5.72 12.778-12.777 0-7.057-5.72-12.778-12.778-12.778ZM14.891 29.996c0-8.161 6.616-14.777 14.777-14.777 8.162 0 14.778 6.616 14.778 14.778 0 8.161-6.616 14.777-14.778 14.777-8.161 0-14.777-6.616-14.777-14.777Z" fill="#fff"/><path fill-rule="evenodd" clip-rule="evenodd" d="M36.997 25.253a1 1 0 0 1 .083 1.411l-7.11 8a1 1 0 0 1-1.455.043l-4.445-4.444a1 1 0 0 1 1.415-1.415l3.694 3.695 6.407-7.207a1 1 0 0 1 1.411-.083Z" fill="#fff"/></svg>