<svg width="60" height="60" fill="none" xmlns="http://www.w3.org/2000/svg"><path d="M27.4 29.935c0 .4-.3.8-.7.8h-.2c-1.4-.3-2.4-1.6-2.4-3 0-1.5 1-2.7 2.5-3 .2 0 .4 0 .5.1.2.1.3.4.3.6 0 .4-.4.8-.7.9-.6.2-1 .8-1 1.4 0 .6.4 1.2 1 1.4.4.1.6.4.7.8ZM31.5 23.635c0 .4-.3.7-.7.7h-.2c-1.4-.3-2.4-1.6-2.4-3 0-1.5 1-2.7 2.5-3 .2 0 .4 0 .5.1.2.1.3.4.3.6 0 .4-.4.8-.7.9-.6.2-1 .8-1 1.4 0 .6.4 1.2 1 1.4.4.1.7.5.7.9Z" fill="#fff"/><path d="m54.4 23.035-4.2-6.2v-6.4c0-1.2-.6-2.3-1.6-2.9l-1.3-.8c-.6-1.6-2.2-3-4.2-3.5-2.9-.8-5.8.5-6.7 3-1.3 3.5 1.7 8 3.5 10.3.3.4.4 1 .1 1.5-.3.5-.9.7-1.5.5l-5.3-1.9c-.3-.1-.7-.2-1.1-.2H21.6l-8.7-13c-.1-.2-.3-.3-.6-.3-.2 0-.5 0-.6.2-.9.9-8.7 9-8.7 19.5 0 .7 0 1.4.1 2 .7 6.9 4.9 13 12.6 18.3v7.1c0 1.8 1.4 3.2 3.2 3.2h6.9c.2 0 .5-.1.7-.2l3.5-2.5 1.1 5.2h-1.7c-.4 0-.8.4-.8.8s.4.8.8.8h8.2c.4 0 .8-.3.8-.8 0-.4-.4-.8-.8-.8h-4.9l-1.3-6.2 1.5-1h7.8c3.2 0 6.4-1 9-2.7l.2-.1c4.6-3 7.3-8.1 7.3-13.6 0-3.4-1-6.6-2.8-9.3Zm-6.9-13.8c0-.1.1-.2.1-.4l.2.1c.2.1.4.3.5.5h-.8v-.2Zm-1 1.8h2.2v7.4c0 .2-.2.4-.4.4s-.4-.2-.4-.4v-4.1c0-.6-.2-1.3-.5-1.8l-1-1.4s0-.1.1-.1Zm-30 30.6c-2.2-1.5-4.2-3.2-5.8-4.9l2.9-.7c.2 0 .4-.2.5-.4.1-.2.1-.5 0-.7-.1-.3-.4-.5-.7-.5h-.2l-3.7.9c-1.5-1.8-2.7-3.8-3.5-5.8h5.8c.2 0 .4-.1.6-.2.2-.2.2-.4.2-.6 0-.4-.4-.7-.8-.7H5.4c-.4-1.2-.6-2.4-.7-3.5-.1-1-.1-2 0-3l7.5 1.8c.2.1.4 0 .6-.1.2-.1.3-.3.4-.5v-.2c0-.3-.2-.7-.6-.8l-7.7-1.9c.3-2.2 1-4.5 2.1-6.8l7.4 4.5c.4.2.9.1 1.1-.3.1-.1.1-.2.1-.4 0-.3-.2-.5-.4-.7l-7.5-4.6c1.1-2 2.4-4.1 4-5.9.2-.2.4-.3.6-.3.2 0 .5.1.6.3l7.2 10.8c-1.1.5-1.8 1.6-1.8 2.8 0 .9.4 1.7 1.1 2.3-.7.6-1.1 1.4-1.1 2.3 0 .9.4 1.7 1.1 2.3-.8 1-1.2 1.8-1.2 2.7 0 .9.4 1.7 1.1 2.3-.7.6-1.1 1.4-1.1 2.3 0 1.2.7 2.3 1.8 2.8l-3.5 5.4Zm32.6 2.8-.2.1c-2.4 1.6-5.3 2.5-8.2 2.5h-5.5l5.7-4c2.9-2 4.6-5.4 4.6-8.9v-.4c0-4.7-3-8.9-7.5-10.3-.2-.1-.5 0-.7.1-.2.2-.3.4-.3.7 0 .3.2.6.6.8 3.8 1.3 6.3 4.8 6.3 8.8v.4c0 3-1.5 5.9-4 7.6l-14.3 10h-3.2l3.2-4.9c.2-.2.2-.5 0-.8-.1-.3-.4-.4-.7-.4-.3 0-.5.1-.7.4l-3.8 5.7h-2.2l3.2-4.9c.2-.2.2-.5 0-.8-.1-.2-.4-.4-.7-.4-.3 0-.5.1-.7.4l-2.9 4.5v-7.2l5.8-8.9c.2-.2.2-.5 0-.8-.1-.3-.4-.4-.7-.4-.3 0-.5.1-.7.4l-.6 1.2c-.7-.2-1.1-.8-1.1-1.5s.4-1.2 1-1.5c.4-.1.7-.4.7-.9 0-.4-.3-.7-.7-.9-.6-.2-1-.8-1-1.4 0-.6.4-1.2 1-1.5.4-.2.7-.5.7-.9s-.3-.7-.7-.9c-.6-.2-1-.8-1-1.4 0-.6.4-1.2 1-1.4.4-.2.7-.5.7-.9s-.3-.7-.7-.9c-.6-.2-1-.8-1-1.5 0-.8.7-1.5 1.5-1.5h10.3c.5 0 1.1.1 1.6.3l4.9 1.7c1.3.4 2.6 0 3.3-1.1.7-1 .6-2.4-.2-3.3-1.3-1.7-4.3-5.9-3.3-8.8.6-1.7 2.7-2.5 4.8-2 1.6.4 2.9 1.5 3.2 2.8v.2c.1.3.1.7 0 1-.2.6-.6 1.1-1.2 1.5-.2.1-.4.4-.4.7 0 .2 0 .3.1.4l1.6 2.3c.1.1.1.2.1.3v4.3c0 1.1.9 2 2 2 .7 0 1.4-.4 1.7-1l3.1 4.6c1.7 2.4 2.5 5.3 2.5 8.3.2 5.1-2.2 9.7-6.3 12.4Z" fill="#fff"/><path d="M43.8 6.335c-.9 0-1.6.7-1.6 1.6 0 .9.7 1.6 1.6 1.6.9 0 1.6-.7 1.6-1.6 0-.9-.7-1.6-1.6-1.6Zm0 2c-.2 0-.4-.2-.4-.4s.2-.4.4-.4.4.2.4.4-.2.4-.4.4Z" fill="#fff"/></svg>