<svg width="60" height="60" fill="none" xmlns="http://www.w3.org/2000/svg"><path fill-rule="evenodd" clip-rule="evenodd" d="M36.688 20.72a1.84 1.84 0 1 0 2.602 2.602 1.84 1.84 0 0 0-2.602-2.602Zm-1.415 4.016a3.84 3.84 0 1 1 5.43-5.43 3.84 3.84 0 0 1-5.43 5.43Z" fill="#fff"/><path d="M25.327 22.858a10.886 10.886 0 0 0-1.422-1.406l8.986-8.987a1 1 0 0 1 .839-.284l11.822 1.566a1 1 0 0 1 .86.86l1.566 11.822a1 1 0 0 1-.284.838L20.095 54.867a1 1 0 0 1-1.414 0L5.293 41.478a1 1 0 0 1 0-1.414l3.46-3.46a10.882 10.882 0 0 0 1.406 1.422L7.414 40.77l11.974 11.974 26.543-26.543-1.4-10.573-10.574-1.4-8.63 8.629Z" fill="#fff"/><path fill-rule="evenodd" clip-rule="evenodd" d="M10.174 22.874c-3.813 3.813-3.813 9.996 0 13.81 3.814 3.813 9.997 3.813 13.81 0 3.813-3.814 3.813-9.997 0-13.81-3.814-3.814-9.996-3.814-13.81 0ZM8.76 38.098c-4.595-4.595-4.595-12.044 0-16.639 4.595-4.594 12.044-4.594 16.638 0 4.595 4.595 4.595 12.044 0 16.639-4.594 4.594-12.043 4.594-16.638 0ZM50.934 8.275c-1.774-1.774-4.89-1.729-6.963.345-.833.833-2.13 2.623-3.295 4.678-1.17 2.063-2.117 4.233-2.36 5.814l-1.977-.303c.3-1.954 1.397-4.383 2.597-6.498 1.205-2.123 2.605-4.09 3.62-5.105 2.744-2.743 7.13-3.007 9.792-.345 2.663 2.663 2.399 7.049-.344 9.792-.986.985-2.863 2.33-4.907 3.507l-.998-1.733c1.978-1.14 3.684-2.382 4.49-3.188 2.074-2.074 2.119-5.19.345-6.964Z" fill="#fff"/><path fill-rule="evenodd" clip-rule="evenodd" d="M12.41 25.105a.75.75 0 0 1 .874-.137l3.11 1.6 2.439-2.438a.75.75 0 0 1 1.271.643l-.521 3.436 3.117 1.604a.75.75 0 0 1-.23 1.408l-3.424.52-.52 3.423a.75.75 0 0 1-1.408.23l-1.604-3.117-3.436.522a.75.75 0 0 1-.643-1.272l2.439-2.439-1.6-3.11a.75.75 0 0 1 .136-.873Zm2.268 2.267.78 1.517a.75.75 0 0 1-.137.873l-1.21 1.211 1.711-.26a.75.75 0 0 1 .78.399l.79 1.535.254-1.677a.75.75 0 0 1 .63-.63l1.677-.254-1.536-.79a.75.75 0 0 1-.398-.78l.26-1.711-1.211 1.21a.75.75 0 0 1-.874.137l-1.516-.78Z" fill="#fff"/></svg>