<svg width="60" height="60" fill="none" xmlns="http://www.w3.org/2000/svg"><path d="M42.31 6.841c-.2-.2-.4-.3-.6-.3-.1 0-2.9.1-5.7 1.6.1-3.2-1-5.8-1-5.8-.1-.1-.3-.3-.5-.3-.2-.1-.5 0-.7.1-.1.1-2.3 1.7-3.8 4.5-1.7-2.7-4-4.2-4.1-4.2-.2-.1-.5-.2-.7-.1-.2.1-.4.3-.5.5-.1.2-1.4 4.3 0 8.4.8 2.2 2.1 3.8 3.3 5-3.5.3-6.6 2.9-7.6 6.6-.2.6-.4 2-.6 4v.2c-.6 6.6-1.3 18.5-1.8 27.4-.1 1.2.6 2.2 1.7 2.5.2.1.4.1.6.1.9 0 1.7-.5 2.1-1.3 2.7-5.3 6.5-12.8 9.5-18.9.1-.1.1-.2.2-.3v-.1c2.4-5 3.8-8.2 4.1-9.4 1-3.7-.4-7.5-3.3-9.5 1.5-.4 3.6-1.2 5.3-2.7 3.3-2.8 4.1-7.1 4.2-7.3.2-.2.1-.5-.1-.7Zm-9.5 9.1c1-1.2 2.2-2.9 2.8-5.1.1-.2.1-.4.1-.6 1.8-1.2 3.7-1.7 4.9-1.9-.5 1.4-1.4 3.7-3.4 5.3-1.3 1.2-3 1.9-4.4 2.3Zm-2.2-6.5c.7-2.4 2.3-4.3 3.3-5.3.4 1.2.8 3.3.4 5.5 0 .2-.1.5-.2.8-.6 2.2-2 3.9-3.1 5.1 0 0-.1-.1-.2-.1H30.51c-.2-1.6-.5-3.8.1-6Zm-4.3 1.3c-.8-2.4-.5-4.9-.2-6.3.9.8 2.4 2.2 3.3 4.1-.1.2-.1.4-.2.6-.6 2.2-.4 4.3-.1 5.8-1.1-1.1-2.2-2.5-2.8-4.2Zm8.8 13.8c0 .7-.1 1.3-.3 2-.2.8-.9 2.5-2.2 5.3l-1.6-.4c-.4-.1-.8.1-1 .5-.1.4.1.8.5 1l1.4.4c-.3.6-.6 1.3-1 2l-1.5-.4c-.4-.1-.8.1-.9.5-.1.4.1.8.5 1l1.2.3c-.8 1.7-1.8 3.6-2.7 5.4l-1.5-.4c-.2 0-.4 0-.6.1-.2.1-.3.3-.4.5 0 .2 0 .4.1.6.1.2.3.3.5.4l1.2.3c-1 2-2 3.9-2.9 5.8l-1.5-.4c-.4-.1-.8.1-.9.5-.1.2 0 .4.1.6.1.2.3.3.5.4l1.2.3c-.7 1.5-1.4 2.8-2.1 4.1-.3.6-.8.5-.9.5-.1 0-.6-.2-.6-.9.1-2.5.3-5.6.5-8.7l1.2.3c.4.1.8-.1 1-.5.1-.2 0-.4-.1-.6-.1-.2-.3-.3-.5-.4l-1.5-.4c.1-2 .2-4.1.4-6.1l1.2.3c.4.1.8-.1 1-.5.1-.4-.1-.8-.6-1l-1.5-.4c.2-3.5.5-6.4.7-8.6l1.2.3c.4.1.8-.1 1-.6.1-.2 0-.4-.1-.6-.1-.2-.3-.3-.5-.4l-1.5-.4c.2-1.6.3-2.7.5-3.3.1-.2.1-.4.2-.7l1.4.4c.4.1.8-.1 1-.5.1-.4-.1-.8-.6-1l-1.2-.1c1.6-2.6 4.6-3.9 7.4-3.2 2.9.8 4.8 3.6 4.8 6.7Z" fill="#fff"/></svg>