<svg width="60" height="60" fill="none" xmlns="http://www.w3.org/2000/svg"><path d="M53.494 25.599a7.63 7.63 0 0 1-2.036-2.466 7.876 7.876 0 0 1 .168-3.343c.327-1.868.673-3.735-.345-5.117-1.018-1.382-2.942-1.672-4.79-1.924a7.785 7.785 0 0 1-3.185-.84 7.75 7.75 0 0 1-1.756-2.746c-.794-1.672-1.634-3.38-3.325-3.978-1.69-.598-3.296.373-4.911 1.242a7.966 7.966 0 0 1-3.166 1.223 7.957 7.957 0 0 1-3.175-1.214c-1.616-.868-3.288-1.765-4.912-1.242-1.625.523-2.53 2.297-3.334 3.997a7.742 7.742 0 0 1-1.756 2.746c-.99.503-2.075.79-3.184.84-1.868.252-3.736.505-4.79 1.924-1.056 1.42-.683 3.277-.328 5.09a7.89 7.89 0 0 1 .178 3.333A7.635 7.635 0 0 1 6.802 25.6C5.485 26.84 4 28.25 4 30.063c0 1.811 1.485 3.221 2.802 4.463a7.63 7.63 0 0 1 2.035 2.466 7.877 7.877 0 0 1-.168 3.343c-.327 1.868-.672 3.735.346 5.117 1.018 1.382 2.941 1.672 4.79 1.924 1.11.05 2.195.337 3.185.84a7.75 7.75 0 0 1 1.756 2.746c.812 1.7 1.653 3.446 3.334 3.997 1.68.551 3.296-.374 4.911-1.242a7.95 7.95 0 0 1 3.157-1.242 7.957 7.957 0 0 1 3.175 1.214 8.846 8.846 0 0 0 3.903 1.4c.343.002.683-.052 1.009-.158 1.69-.551 2.53-2.297 3.334-3.997a7.743 7.743 0 0 1 1.755-2.746 7.803 7.803 0 0 1 3.185-.84c1.867-.252 3.735-.505 4.79-1.924 1.056-1.42.682-3.287.346-5.117a7.884 7.884 0 0 1-.178-3.334 7.635 7.635 0 0 1 2.027-2.447c1.307-1.242 2.801-2.652 2.801-4.463 0-1.812-1.485-3.222-2.801-4.464Zm-1.289 7.573a8.705 8.705 0 0 0-2.521 3.24 9.009 9.009 0 0 0 .121 4.24c.262 1.439.533 2.923 0 3.68-.532.756-2.073.934-3.53 1.167a8.91 8.91 0 0 0-4.043 1.186 8.83 8.83 0 0 0-2.344 3.446c-.645 1.345-1.308 2.727-2.232 3.026-.925.299-2.176-.43-3.447-1.111a9.095 9.095 0 0 0-4.061-1.439 9.107 9.107 0 0 0-4.063 1.439c-1.27.681-2.586 1.391-3.445 1.111-.86-.28-1.588-1.69-2.233-3.026a8.827 8.827 0 0 0-2.343-3.446A8.91 8.91 0 0 0 14.02 45.5c-1.457-.196-2.97-.401-3.53-1.167-.56-.766-.28-2.242 0-3.68a9 9 0 0 0 .121-4.24 8.703 8.703 0 0 0-2.52-3.24c-1.094-1.036-2.223-2.101-2.223-3.11 0-1.008 1.13-2.073 2.213-3.11a8.704 8.704 0 0 0 2.521-3.24 9.018 9.018 0 0 0-.121-4.24c-.261-1.438-.532-2.923 0-3.68.532-.755 2.073-.933 3.53-1.166a8.91 8.91 0 0 0 4.043-1.186 8.832 8.832 0 0 0 2.344-3.446c.654-1.345 1.345-2.727 2.279-3.026.934-.299 2.176.43 3.446 1.112a9.093 9.093 0 0 0 4.025 1.438 9.106 9.106 0 0 0 4.062-1.439c1.27-.69 2.587-1.363 3.409-1.11.821.252 1.587 1.69 2.232 3.025.495 1.32 1.299 2.5 2.343 3.446a8.91 8.91 0 0 0 4.044 1.186c1.457.196 2.97.401 3.53 1.167.56.766.28 2.242 0 3.68a9.006 9.006 0 0 0-.121 4.24 8.703 8.703 0 0 0 2.521 3.24c1.13 1.036 2.26 2.101 2.26 3.11 0 1.008-1.13 2.073-2.213 3.11h-.01Z" fill="#fff"/><path d="M30.147 14.183a15.876 15.876 0 1 0 0 31.752 15.876 15.876 0 0 0 0-31.752Zm0 29.883a14.008 14.008 0 1 1 0-28.016 14.008 14.008 0 0 1 0 28.016Z" fill="#fff"/><path d="M26.412 28.19a3.737 3.737 0 0 0 2.642-6.376 3.737 3.737 0 0 0-6.377 2.641 3.737 3.737 0 0 0 3.735 3.736Zm0-5.603a1.868 1.868 0 1 1 0 3.737 1.868 1.868 0 0 1 0-3.737ZM33.883 30.992a3.737 3.737 0 1 0 0 7.473 3.737 3.737 0 0 0 0-7.473Zm0 5.603a1.868 1.868 0 1 1 0-3.736 1.868 1.868 0 0 1 0 3.736ZM35.349 21.828a.934.934 0 0 0-1.299.242L23.778 37.013a.934.934 0 0 0 1.54 1.055l10.273-14.941a.934.934 0 0 0-.242-1.299Z" fill="#fff"/></svg>