<svg width="60" height="60" fill="none" xmlns="http://www.w3.org/2000/svg"><path d="M24.1 20.997c0 .2-.1.4-.3.6l-4.9 4.4c-.2.2-.4.2-.6.2-.2 0-.4-.1-.6-.2l-2.7-2.4c-.2-.2-.3-.4-.3-.6 0-.2.1-.4.3-.6.4-.3.9-.3 1.2 0l2.1 1.8 4.3-3.8c.3-.3.9-.3 1.2 0 .3.1.3.3.3.6ZM24.1 29.798c0 .2-.1.5-.2.7l-4.9 5.3c-.2.2-.4.3-.6.3-.2 0-.5-.1-.6-.3l-2.7-2.9c-.3-.4-.3-.9 0-1.3s.9-.4 1.3 0l2 2.2 4.2-4.6c.3-.4.9-.4 1.3 0 .2.1.2.3.2.6ZM24.1 39.795c0 .2-.1.4-.3.6l-4.9 4.4c-.2.2-.4.2-.6.2-.2 0-.4-.1-.6-.2l-2.7-2.4c-.2-.2-.3-.4-.3-.6 0-.2.1-.4.3-.6.4-.3.9-.3 1.2 0l2.1 1.9 4.3-3.8c.3-.3.9-.3 1.2 0 .3.1.3.3.3.5Z" fill="#fff"/><path d="M34 53.198c0 .5-.4 1-1 1H14.5c-1.2 0-2.3-.5-3.2-1.3-.8-.8-1.3-2-1.3-3.2v-36.8c0-1.2.5-2.3 1.3-3.2.8-.8 2-1.3 3.2-1.3h5.9c.5 0 1 .4 1 1 0 .5-.4 1-1 1h-5.9c-.7 0-1.3.3-1.8.8s-.8 1.1-.8 1.8v36.8c0 .7.3 1.3.8 1.8s1.1.8 1.8.8H33c.6-.2 1 .3 1 .8ZM46.4 12.897v22.6c0 .3-.1.5-.3.7-.2.2-.4.3-.7.3-.2 0-.5-.1-.7-.3-.2-.2-.3-.4-.3-.7v-22.6c0-.7-.3-1.3-.8-1.8-.4-.5-1-.8-1.7-.8h-5.7c-.5 0-1-.4-1-1 0-.5.4-1 1-1h5.7c1.2 0 2.3.5 3.2 1.3.8 1 1.3 2.1 1.3 3.3Z" fill="#fff"/><path d="M34.4 6.3c-.2-.2-.4-.3-.7-.3h-11c-.2 0-.5.1-.7.3-.2.2-.3.4-.3.7v5.1c0 .2.1.5.3.7.2.2.4.3.7.3h11c.3 0 .5-.1.7-.3.2-.2.3-.4.3-.7V7c0-.3-.1-.5-.3-.7Zm-1.6 1.6V11h-9.1V7.9h9.1ZM34.597 25.297c0 .5-.4 1-1 1h-7.8c-.5 0-1-.4-1-1 0-.5.4-1 1-1h7.8c.6.1 1 .5 1 1ZM37.197 22.094c0 .5-.4 1-.9 1h-10.5c-.2 0-.5-.1-.7-.3-.2-.2-.3-.4-.3-.7 0-.2.1-.5.3-.7.2-.2.4-.3.7-.3h10.5c.5.1.9.5.9 1ZM34.597 34.898c0 .2-.1.5-.3.7-.2.2-.4.3-.7.3h-7.8c-.5 0-1-.4-1-1 0-.5.4-1 1-1h7.8c.2 0 .5.1.7.3.2.2.3.5.3.7ZM31.097 44.297c0 .5-.4 1-1 1h-4.3c-.5 0-1-.4-1-1 0-.5.4-1 1-1h4.3c.5.1 1 .5 1 1ZM37.197 31.695c0 .2-.1.5-.3.7-.2.2-.4.3-.7.3h-10.4c-.5 0-1-.4-1-1 0-.5.4-1 1-1h10.5c.2 0 .5.1.7.3.1.2.2.5.2.7ZM55.297 44.895c-.5-1.7-1.6-3.2-3.1-4.2-1.3-.8-2.9-1.2-4.5-1l.5-.8c.1-.2.2-.5.1-.7-.1-.2-.2-.5-.4-.6-.2-.1-.5-.2-.7-.1-.2.1-.5.2-.6.4l-1.1 2c-2.1-1-4.5-1-6.6 0-2.2 1-3.8 3-4.3 5.3-.6 2.4 0 4.8 1.5 6.7 1.5 1.9 3.7 2.9 6.1 2.9h.1c2.4 0 4.7-1.2 6.1-3.1 1.3-1.8 1.9-4 1.5-6.1 1.5.7 3.2.8 4.7.4.2-.1.5-.2.6-.5.1-.1.2-.4.1-.6Zm-2.2-.5c-1 0-2-.2-2.8-.7-.9-.5-1.6-1.2-2-2.1 1 0 2 .2 2.9.7.7.4 1.4 1.2 1.9 2.1Zm-7.2 7.2c-1.4 1.1-3.2 1.6-5 1.2-1.8-.4-3.2-1.5-4.1-3.1-.8-1.6-.9-3.5-.1-5.1.7-1.7 2.2-2.9 3.9-3.3.5-.1 1-.2 1.5-.2.8 0 1.6.2 2.3.5l-.5.9c-.1.2-.2.5-.1.7.1.2.2.5.5.6.5.3 1 .1 1.3-.4l.5-.8c1.2 1.1 2 2.7 2 4.4 0 1.8-.8 3.4-2.2 4.6Z" fill="#fff"/></svg>