<svg width="60" height="60" fill="none" xmlns="http://www.w3.org/2000/svg"><path d="M56.9 18.738c-.5-.8-1.2-1.4-2-1.8-.5-.2-1-.4-1.5-.5l.1-.1c1-1.8.9-4-.2-5.8-1-1.7-2.9-2.8-4.9-2.8h-.2c-2 .1-3.9 1.2-4.9 3v.1c-1-1-2.3-1.5-3.7-1.5h-.1c-1.5 0-3 .7-4 1.9s-1.4 2.7-1.2 4.3c.2 1.5 1 2.8 2.2 3.7-1.3 4.1-2.9 8.1-4.8 12h-.4l2.9-11.8c.4-1.4.1-3-.7-4.3-.2-.3-.4-.6-.7-.9l2.4-7.5c.2-.5.1-1-.2-1.5-.3-.4-.7-.8-1.2-.9l-6.6-1.3c-.5-.1-1 0-1.5.3-.3.4-.6.9-.6 1.4l-.7 7.8c-1.7.8-2.9 2.4-3.2 4.2l-1 6.5c-4-6.3-10-9.4-10-9.4-.4-.2-.8 0-1 .3-3.7 6.5-2.8 14.3-2.4 16.9h-3c-.4 0-.8.4-.8.8 0 8.6 4.6 15.9 12.3 19.6v4.8c0 .4.3.8.8.8h20.8c.2 0 .4-.1.6-.2.1-.2.2-.4.2-.6v-4.8c7.7-3.7 12.3-11 12.3-19.6 0-.4-.3-.8-.8-.8h-1.9c1.4-2.1 2.6-3.7 3.2-4.4 1.7.7 3.6.4 5.1-.6 1.5-1.1 2.4-2.9 2.3-4.8-.2-.9-.5-1.8-1-2.5Zm-30.2-14.1c.1 0 .1-.1.2 0l.7.1-.4 4c0 .4.3.8.7.9h.1c.4 0 .7-.3.8-.7l.4-3.9 2 .4-.8 2.7c-.1.4.1.8.5 1 .2 0 .4 0 .6-.1.2-.1.3-.3.4-.5l.8-2.8.8.2c.1 0 .1.1.2.1v.2l-2.2 7c-.5-.3-1-.5-1.6-.6l-2.3-.5c-.3-.1-.7-.1-1.1-.1h-.6l.6-7.2.2-.2Zm-4.8 17.4 1.6.3h.1c.4 0 .7-.3.8-.7 0-.4-.2-.8-.6-.9l-1.6-.3.2-1.4 3.2.6h.2c.4 0 .7-.3.8-.7 0-.4-.2-.8-.6-.8l-3.3-.7.1-.6c.2-1.1.8-2 1.6-2.6.9-.6 2-.9 3-.6l2.3.5c1.1.2 2 .8 2.6 1.8.6.9.8 2 .5 3.1l-1.9 7.8-1.2-.2c-.2 0-.4 0-.6.1-.2.1-.3.3-.3.5-.1.4.2.8.6.9l1 .1-.7 2.8h-6.4c-.4-1.9-1-3.8-1.8-5.6l.4-3.4Zm-11.8-6.5c2.5 1.5 9.7 6.6 11.5 15.5h-5.5l-.2-.8 2-2.3c.3-.3.2-.8-.1-1.1-.3-.3-.8-.3-1.1 0l-1.5 1.6-1-2.7 1.9-2.2c.2-.1.2-.4.2-.6 0-.2-.1-.4-.3-.6-.2-.1-.4-.2-.6-.2-.2 0-.4.1-.5.3l-1.2 1.8-1.1-3.2c0-.2-.2-.4-.4-.5-.2-.1-.4-.1-.6 0-.2.1-.4.2-.5.4-.1.2-.1.4 0 .6l1.2 3.3-2.4-.3c-.4 0-.8.2-.9.7 0 .4.2.8.7.9l3.2.4.9 2.6-2.2-.3c-.2 0-.4 0-.6.1-.2.1-.3.3-.3.5-.1.4.2.8.7.9l3 .4.1.3H8.4c-.4-2.3-1.2-9.4 1.7-15.5Zm38.3 17.1c-.3 7.3-4.2 13.6-10.7 17l-.7.4-.484.215a.7.7 0 0 0-.416.64v4.544H16.9v-4.5c0-.3-.1-.5-.4-.7l-.4-.2c-6.9-3.3-11.2-9.8-11.5-17.4h43.8Zm7.4-9.2c-.5 1-1.3 1.6-2.3 1.9-1 .3-2 .2-2.9-.3-.3-.2-.7-.1-1 .2 0 0-2 2.5-4.2 5.9h-3.2c1.5-2.4 2.8-4.4 2.8-4.4.1-.2.2-.4.1-.6 0-.2-.2-.4-.3-.5-.2-.1-.4-.2-.6-.1-.2 0-.4.2-.5.4-.4.6-1.8 2.8-3.4 5.3h-2.4c1.7-3.5 3-6.7 3-6.8.1-.2.1-.4 0-.6-.1-.2-.2-.4-.4-.4-.2-.1-.4-.1-.6 0-.2.1-.3.2-.4.5-.3.7-1.7 4-3.3 7.3h-2.8c1.9-3.9 3.5-7.9 4.8-12.1.1-.4-.1-.7-.4-.9-1-.6-1.8-1.6-2-2.8-.2-1.2.2-2.4 1-3.3.8-.9 2-1.3 3.2-1.2 1.2.1 2.3.8 2.9 1.8l.3.3c.2.1.5.2.7.1.2-.1.4-.3.5-.5v-.4c.1-.3.2-.6.3-.8.6-1.1 1.6-1.8 2.8-2.1 1.2-.3 2.4 0 3.4.7s1.6 1.8 1.7 3c.1 1.2-.3 2.4-1.1 3.3 0 .1-.1.1-.1.2v.1c-.1.2-.1.6 0 .8.2.2.4.4.7.3.9-.1 1.8.2 2.6.8.7.6 1.2 1.4 1.4 2.3.2.9.1 1.8-.3 2.6Z" fill="#fff"/></svg>