<svg xmlns="http://www.w3.org/2000/svg" xmlns:xlink="http://www.w3.org/1999/xlink"><defs><clipPath id="a"><path fill="#fff" transform="translate(1 1)" d="M0 0h140v40.866H0z"/></clipPath></defs><symbol id="icon-arrow-down" viewBox="0 0 18 10"><g fill="none"><path d="m16.098 1-7.55 7.725L1 1" stroke="#3F3F3F" stroke-width="2" stroke-linecap="round" stroke-linejoin="round"/></g></symbol><symbol id="icon-arrow-left" viewBox="0 0 11 18"><g fill="none"><path d="M9.414 16.414 1.69 8.864l7.725-7.549" stroke="#3F3F3F" stroke-width="2" stroke-linecap="round" stroke-linejoin="round"/></g></symbol><symbol id="icon-arrow-right" viewBox="0 0 11 18"><g fill="none"><path d="m1.688 1.313 7.724 7.549-7.725 7.55" stroke="#3F3F3F" stroke-width="2" stroke-linecap="round" stroke-linejoin="round"/></g></symbol><symbol id="icon-arrow-up" viewBox="0 0 18 10"><g fill="none"><path d="m16.098 8.727-7.55-7.725L1 8.727" stroke="#3F3F3F" stroke-width="2" stroke-linecap="round" stroke-linejoin="round"/></g></symbol><symbol id="icon-check" viewBox="0 0 14 10"><g fill="none"><path d="M1.223 4.556 5.667 9l7.111-8" stroke="#fff" stroke-width="2" stroke-linecap="round" stroke-linejoin="round"/></g></symbol><symbol id="icon-dietetics" viewBox="0 0 60 60"><g fill="none"><path d="M34 30c-1.9 0-3.5 1.6-3.5 3.5S32.1 37 34 37s3.5-1.6 3.5-3.5S36 30 34 30Zm0 5c-.8 0-1.4-.7-1.4-1.5S33.2 32 34 32c.8 0 1.5.7 1.5 1.5S34.8 35 34 35ZM43.9 30c-1.9 0-3.5 1.6-3.5 3.5S42 37 43.9 37s3.5-1.6 3.5-3.5-1.5-3.5-3.5-3.5Zm0 5c-.8 0-1.4-.7-1.4-1.5s.6-1.5 1.4-1.5c.8 0 1.5.7 1.5 1.5s-.7 1.5-1.5 1.5ZM26.6 35.8c-1.9 0-3.5 1.6-3.5 3.5s1.6 3.5 3.5 3.5 3.5-1.6 3.5-3.5-1.6-3.5-3.5-3.5Zm0 5c-.8 0-1.4-.7-1.4-1.5s.7-1.5 1.4-1.5c.8 0 1.5.7 1.5 1.5s-.7 1.5-1.5 1.5Z" fill="#fff"/><path d="M53.8 20H40V6c0-.6-.5-1-1-1H20.9c-.6 0-1 .5-1 1v14H6c-.6 0-1 .5-1 1v18.3c0 .6.5 1 1 1h13.8v14c0 .6.5 1 1 1h18.1c5.4 0 9.3-3.6 9.3-8.5 0-5.2-4.2-9.4-9.3-9.4-5.1 0-9.3 4.2-9.3 9.4 0 2.6 1.1 4.9 3 6.5H21.9v-14c0-.6-.5-1-1-1H7.1V22.1h13.8c.6 0 1-.5 1-1v-14H38v14c0 .6.5 1 1 1h13.8v14.1c-.5-.2-1-.3-1.5-.3-1.9 0-3.5 1.6-3.5 3.5s1.6 3.5 3.5 3.5 3.5-1.6 3.5-3.5V21c0-.5-.4-1-1-1Zm-22 26.9c0-4 3.2-7.3 7.2-7.3s7.2 3.3 7.2 7.3c0 3.8-3 6.5-7.2 6.5-4.3-.1-7.2-2.7-7.2-6.5Zm19.5-6.1c-.8 0-1.5-.7-1.5-1.5s.7-1.5 1.5-1.5 1.5.7 1.5 1.5-.7 1.5-1.5 1.5Z" fill="#fff"/></g></symbol><symbol id="icon-discounts" viewBox="0 0 60 60"><g fill="none"><path d="M53.494 25.599a7.63 7.63 0 0 1-2.036-2.466 7.876 7.876 0 0 1 .168-3.343c.327-1.868.673-3.735-.345-5.117-1.018-1.382-2.942-1.672-4.79-1.924a7.785 7.785 0 0 1-3.185-.84 7.75 7.75 0 0 1-1.756-2.746c-.794-1.672-1.634-3.38-3.325-3.978-1.69-.598-3.296.373-4.911 1.242a7.966 7.966 0 0 1-3.166 1.223 7.957 7.957 0 0 1-3.175-1.214c-1.616-.868-3.288-1.765-4.912-1.242-1.625.523-2.53 2.297-3.334 3.997a7.742 7.742 0 0 1-1.756 2.746c-.99.503-2.075.79-3.184.84-1.868.252-3.736.505-4.79 1.924-1.056 1.42-.683 3.277-.328 5.09a7.89 7.89 0 0 1 .178 3.333A7.635 7.635 0 0 1 6.802 25.6C5.485 26.84 4 28.25 4 30.063c0 1.811 1.485 3.221 2.802 4.463a7.63 7.63 0 0 1 2.035 2.466 7.877 7.877 0 0 1-.168 3.343c-.327 1.868-.672 3.735.346 5.117 1.018 1.382 2.941 1.672 4.79 1.924 1.11.05 2.195.337 3.185.84a7.75 7.75 0 0 1 1.756 2.746c.812 1.7 1.653 3.446 3.334 3.997 1.68.551 3.296-.374 4.911-1.242a7.95 7.95 0 0 1 3.157-1.242 7.957 7.957 0 0 1 3.175 1.214 8.846 8.846 0 0 0 3.903 1.4c.343.002.683-.052 1.009-.158 1.69-.551 2.53-2.297 3.334-3.997a7.743 7.743 0 0 1 1.755-2.746 7.803 7.803 0 0 1 3.185-.84c1.867-.252 3.735-.505 4.79-1.924 1.056-1.42.682-3.287.346-5.117a7.884 7.884 0 0 1-.178-3.334 7.635 7.635 0 0 1 2.027-2.447c1.307-1.242 2.801-2.652 2.801-4.463 0-1.812-1.485-3.222-2.801-4.464Zm-1.289 7.573a8.705 8.705 0 0 0-2.521 3.24 9.009 9.009 0 0 0 .121 4.24c.262 1.439.533 2.923 0 3.68-.532.756-2.073.934-3.53 1.167a8.91 8.91 0 0 0-4.043 1.186 8.83 8.83 0 0 0-2.344 3.446c-.645 1.345-1.308 2.727-2.232 3.026-.925.299-2.176-.43-3.447-1.111a9.095 9.095 0 0 0-4.061-1.439 9.107 9.107 0 0 0-4.063 1.439c-1.27.681-2.586 1.391-3.445 1.111-.86-.28-1.588-1.69-2.233-3.026a8.827 8.827 0 0 0-2.343-3.446A8.91 8.91 0 0 0 14.02 45.5c-1.457-.196-2.97-.401-3.53-1.167-.56-.766-.28-2.242 0-3.68a9 9 0 0 0 .121-4.24 8.703 8.703 0 0 0-2.52-3.24c-1.094-1.036-2.223-2.101-2.223-3.11 0-1.008 1.13-2.073 2.213-3.11a8.704 8.704 0 0 0 2.521-3.24 9.018 9.018 0 0 0-.121-4.24c-.261-1.438-.532-2.923 0-3.68.532-.755 2.073-.933 3.53-1.166a8.91 8.91 0 0 0 4.043-1.186 8.832 8.832 0 0 0 2.344-3.446c.654-1.345 1.345-2.727 2.279-3.026.934-.299 2.176.43 3.446 1.112a9.093 9.093 0 0 0 4.025 1.438 9.106 9.106 0 0 0 4.062-1.439c1.27-.69 2.587-1.363 3.409-1.11.821.252 1.587 1.69 2.232 3.025.495 1.32 1.299 2.5 2.343 3.446a8.91 8.91 0 0 0 4.044 1.186c1.457.196 2.97.401 3.53 1.167.56.766.28 2.242 0 3.68a9.006 9.006 0 0 0-.121 4.24 8.703 8.703 0 0 0 2.521 3.24c1.13 1.036 2.26 2.101 2.26 3.11 0 1.008-1.13 2.073-2.213 3.11h-.01Z" fill="#fff"/><path d="M30.147 14.183a15.876 15.876 0 1 0 0 31.752 15.876 15.876 0 0 0 0-31.752Zm0 29.883a14.008 14.008 0 1 1 0-28.016 14.008 14.008 0 0 1 0 28.016Z" fill="#fff"/><path d="M26.412 28.19a3.737 3.737 0 0 0 2.642-6.376 3.737 3.737 0 0 0-6.377 2.641 3.737 3.737 0 0 0 3.735 3.736Zm0-5.603a1.868 1.868 0 1 1 0 3.737 1.868 1.868 0 0 1 0-3.737ZM33.883 30.992a3.737 3.737 0 1 0 0 7.473 3.737 3.737 0 0 0 0-7.473Zm0 5.603a1.868 1.868 0 1 1 0-3.736 1.868 1.868 0 0 1 0 3.736ZM35.349 21.828a.934.934 0 0 0-1.299.242L23.778 37.013a.934.934 0 0 0 1.54 1.055l10.273-14.941a.934.934 0 0 0-.242-1.299Z" fill="#fff"/></g></symbol><symbol id="icon-insta" viewBox="0 0 24 24"><g fill="none"><path d="M15.2 12A3.2 3.2 0 1 1 12 8.8a3.21 3.21 0 0 1 3.2 3.2ZM22 7.6v8.8a5.6 5.6 0 0 1-5.6 5.6H7.6A5.6 5.6 0 0 1 2 16.4V7.6A5.6 5.6 0 0 1 7.6 2h8.8A5.6 5.6 0 0 1 22 7.6ZM16.8 12a4.8 4.8 0 1 0-9.6 0 4.8 4.8 0 0 0 9.6 0Zm1.6-5.2a1.2 1.2 0 1 0-2.4 0 1.2 1.2 0 0 0 2.4 0Z" fill="#fff"/></g></symbol><symbol id="icon-menu-cross" viewBox="0 0 48 48"><g fill="none"><path fill-rule="evenodd" clip-rule="evenodd" d="M31.814 16.699a1 1 0 1 0-1.43-1.398l-6.835 6.993-6.834-6.993a1 1 0 1 0-1.43 1.398l7.002 7.164-7.002 7.165a1 1 0 0 0 1.43 1.398l6.834-6.993 6.834 6.992a1 1 0 1 0 1.43-1.397l-7.001-7.165 7.002-7.164Z" fill="#fff"/></g></symbol><symbol id="icon-promotions" viewBox="0 0 60 60"><g fill="none"><path d="M53.9 39.8h-3.5c-.7-1-1.9-1.7-3.1-1.8 1.3-1.5 1.4-3.8.1-5.4V18.4c0-1.8-1.5-3.3-3.2-3.3h-4.1c-.8-1.2-2.2-2-3.6-2 1.7-1.8 1.7-4.7-.1-6.5-.9-.9-2-1.4-3.2-1.4-1.2 0-2.3.5-3.1 1.3C30 4 28 2 25.5 2 23 2 21 4 20.9 6.5c-.8-.8-2-1.3-3.1-1.3-1.2 0-2.4.5-3.2 1.4-1.8 1.8-1.8 4.7-.1 6.5-1.5 0-2.8.8-3.6 2h-4c-1.9 0-3.4 1.5-3.4 3.5v34.5c0 1.8 1.5 3.3 3.2 3.3h47.2c1.6 0 3-1.4 3-3V42.8c0-1.7-1.3-3-3-3Zm-27-7.1h-2.8V19.2c.6-.2 1.1-.5 1.4-.6.3.1.8.3 1.4.6v13.5Zm-7.7 10.2c0-.8.7-1.5 1.5-1.5h2.7c0 .3-.1.5-.1.8 0 2.3 1.9 4.3 4.2 4.3 1 0 3.3-.7 7-2.2v10.5h-14c-.7 0-1.3-.6-1.3-1.4V42.9Zm15.9-.7c-4 1.6-6.8 2.6-7.6 2.6-1.4 0-2.5-1.2-2.5-2.6 0-1.4 1.1-2.6 2.5-2.6 1.1.1 5.6 1.8 7.6 2.6Zm1 1.4c.5-.2.9-.4 1.2-.5.3.1.7.3 1.1.5v11.1h-2.3V43.6Zm1.1-3.6c-.8-2-2.5-6.6-2.5-7.8 0-1.4 1.1-2.6 2.5-2.6s2.5 1.2 2.5 2.6c.1 1.2-1.6 5.8-2.5 7.8Zm-8.3-2.7c-.6-.4-1-1.1-1.1-1.9-.1-.8.2-1.6.7-2.1.5-.5 1.1-.8 1.8-.8h.3c.8.1 1.5.6 2 1.3.9 1.5 2.4 4.9 3.2 6.7-2.2-.7-5.5-2.2-6.9-3.2Zm17-.3c-.8.8-5.3 2.9-7.2 3.6.8-1.8 2.8-6.5 3.6-7.3.5-.5 1.1-.8 1.8-.8s1.3.3 1.8.8.7 1.2.7 1.8c.1.8-.2 1.4-.7 1.9Zm8 17.7H40V44.3c3.6 1.5 6 2.2 7 2.2 2.3 0 4.2-1.9 4.2-4.2 0-.2 0-.5-.1-.8h2.8c.7 0 1.3.6 1.3 1.4v10.6c.1.6-.5 1.2-1.3 1.2ZM47 39.6c1.4 0 2.5 1.2 2.5 2.6 0 1.4-1.1 2.6-2.5 2.6-1.1 0-5.1-1.5-7.6-2.6 2.2-.9 6.5-2.6 7.6-2.6Zm-6.1-21.8c0-.3 0-.6-.1-1h3.4c.9 0 1.6.7 1.6 1.6v12.9c-1.5-.7-3.2-.4-4.4.7-.2-2.2-2-4-4.2-4-1.2 0-2.2.5-3 1.3-.7.7-1.1 1.7-1.1 2.6-.8-.7-1.7-1-2.7-1-.6 0-1.3.1-1.9.4V19.9c4.1 1.7 6.8 2.5 7.9 2.5 2.5 0 4.5-2.1 4.5-4.6Zm-1.6 0c0 1.7-1.3 3-2.9 3-1 0-4.2-1.1-8.8-3 2.2-.9 7.4-3 8.8-3 1.6 0 2.9 1.3 2.9 3ZM29 11.5c.8-1.7 1.6-3.2 2.1-3.7.5-.6 1.3-.9 2.1-.9s1.5.3 2.1.9c1.1 1.2 1.1 3.1 0 4.2-1 1-6.2 3.3-8.2 4.2.3-1.1 1.1-3 1.9-4.7Zm-3.5-7.8c1.6 0 2.9 1.3 2.9 3 0 1.3-2 6.6-2.9 8.9-.9-2.3-2.9-7.6-2.9-8.9-.1-1.7 1.2-3 2.9-3Zm-9.8 4.1c.5-.6 1.3-.9 2-.9.8 0 1.5.3 2.1.9.9 1 3.2 6.1 4.1 8.4-2.2-1-7.3-3.2-8.2-4.2-1.2-1.1-1.2-3 0-4.2Zm-1.1 7c1.2 0 6.2 1.9 8.7 3-2.5 1-7.4 3-8.7 3-1.6 0-2.9-1.3-2.9-3-.1-1.7 1.2-3 2.9-3Zm-9.5 3.8c0-.5.2-.9.5-1.3.3-.3.8-.5 1.2-.5H10c-.1.3-.1.7-.1 1 0 2.6 2 4.7 4.6 4.7 1.1 0 3.7-.8 7.8-2.5v12.8H5.1V18.6Zm0 15.8h21.1c-.2.9 0 2 .4 2.8H5.1v-2.8Zm12.8 20.3H6.7c-.9 0-1.6-.7-1.6-1.6V38.9h19.8l-.9.9h-3.3c-1.7 0-3.1 1.4-3.1 3.2v10.4c0 .5.1.9.3 1.3Z" fill="#fff"/></g></symbol><symbol id="icon-special-prices" viewBox="0 0 60 60"><g fill="none"><path fill-rule="evenodd" clip-rule="evenodd" d="M36.688 20.72a1.84 1.84 0 1 0 2.602 2.602 1.84 1.84 0 0 0-2.602-2.602Zm-1.415 4.016a3.84 3.84 0 1 1 5.43-5.43 3.84 3.84 0 0 1-5.43 5.43Z" fill="#fff"/><path d="M25.327 22.858a10.886 10.886 0 0 0-1.422-1.406l8.986-8.987a1 1 0 0 1 .839-.284l11.822 1.566a1 1 0 0 1 .86.86l1.566 11.822a1 1 0 0 1-.284.838L20.095 54.867a1 1 0 0 1-1.414 0L5.293 41.478a1 1 0 0 1 0-1.414l3.46-3.46a10.882 10.882 0 0 0 1.406 1.422L7.414 40.77l11.974 11.974 26.543-26.543-1.4-10.573-10.574-1.4-8.63 8.629Z" fill="#fff"/><path fill-rule="evenodd" clip-rule="evenodd" d="M10.174 22.874c-3.813 3.813-3.813 9.996 0 13.81 3.814 3.813 9.997 3.813 13.81 0 3.813-3.814 3.813-9.997 0-13.81-3.814-3.814-9.996-3.814-13.81 0ZM8.76 38.098c-4.595-4.595-4.595-12.044 0-16.639 4.595-4.594 12.044-4.594 16.638 0 4.595 4.595 4.595 12.044 0 16.639-4.594 4.594-12.043 4.594-16.638 0ZM50.934 8.275c-1.774-1.774-4.89-1.729-6.963.345-.833.833-2.13 2.623-3.295 4.678-1.17 2.063-2.117 4.233-2.36 5.814l-1.977-.303c.3-1.954 1.397-4.383 2.597-6.498 1.205-2.123 2.605-4.09 3.62-5.105 2.744-2.743 7.13-3.007 9.792-.345 2.663 2.663 2.399 7.049-.344 9.792-.986.985-2.863 2.33-4.907 3.507l-.998-1.733c1.978-1.14 3.684-2.382 4.49-3.188 2.074-2.074 2.119-5.19.345-6.964Z" fill="#fff"/><path fill-rule="evenodd" clip-rule="evenodd" d="M12.41 25.105a.75.75 0 0 1 .874-.137l3.11 1.6 2.439-2.438a.75.75 0 0 1 1.271.643l-.521 3.436 3.117 1.604a.75.75 0 0 1-.23 1.408l-3.424.52-.52 3.423a.75.75 0 0 1-1.408.23l-1.604-3.117-3.436.522a.75.75 0 0 1-.643-1.272l2.439-2.439-1.6-3.11a.75.75 0 0 1 .136-.873Zm2.268 2.267.78 1.517a.75.75 0 0 1-.137.873l-1.21 1.211 1.711-.26a.75.75 0 0 1 .78.399l.79 1.535.254-1.677a.75.75 0 0 1 .63-.63l1.677-.254-1.536-.79a.75.75 0 0 1-.398-.78l.26-1.711-1.211 1.21a.75.75 0 0 1-.874.137l-1.516-.78Z" fill="#fff"/></g></symbol><symbol id="icon-telegram" viewBox="0 0 32 32"><g fill="none"><path d="M26.38 6.803 5.12 14.95c-1.45.58-1.442 1.383-.266 1.742l5.459 1.692 12.628-7.917c.597-.361 1.143-.167.694.229L13.404 19.87H13.4l.003.001-.377 5.59c.552 0 .795-.251 1.105-.548l2.65-2.561 5.515 4.047c1.017.556 1.747.27 2-.935l3.62-16.952c.37-1.476-.567-2.145-1.537-1.709Z" fill="#fff"/></g></symbol><symbol id="icon-vk" viewBox="0 0 32 32"><g fill="none"><path fill-rule="evenodd" clip-rule="evenodd" d="M27.446 19.216s2.371 2.234 2.958 3.268c.011.015.02.032.026.05.24.382.298.681.18.902-.197.365-.867.549-1.095.564h-4.192c-.291 0-.899-.073-1.638-.56-.564-.376-1.126-.996-1.67-1.602-.813-.9-1.515-1.68-2.227-1.68-.09 0-.179.013-.264.041-.538.163-1.222.895-1.222 2.844 0 .61-.504.957-.857.957h-1.92c-.655 0-4.06-.218-7.08-3.256-3.7-3.72-7.024-11.18-7.056-11.247-.207-.482.227-.746.697-.746h4.232c.568 0 .753.328.882.622.15.337.704 1.686 1.613 3.201 1.473 2.466 2.378 3.47 3.1 3.47.136 0 .27-.034.388-.099.944-.495.768-3.713.724-4.377 0-.128-.001-1.437-.485-2.07-.346-.453-.936-.629-1.292-.693.095-.132.298-.333.557-.452.647-.308 1.816-.353 2.976-.353h.644c1.258.017 1.584.094 2.041.204.922.21.94.78.858 2.72a43.289 43.289 0 0 0-.048 1.912c0 .157-.007.332-.007.51-.028.994-.065 2.115.672 2.576a.622.622 0 0 0 .318.086c.255 0 1.02 0 3.091-3.393.91-1.499 1.614-3.266 1.662-3.399.041-.074.165-.283.314-.367a.73.73 0 0 1 .346-.078h4.98c.542 0 .91.078.982.274.12.318-.023 1.288-2.297 4.22-.382.49-.718.912-1.013 1.281-2.06 2.58-2.06 2.71.122 4.67Z" fill="#fff"/></g></symbol><symbol id="icon-weaning-program" viewBox="0 0 60 60"><g fill="none"><path d="M24.1 20.997c0 .2-.1.4-.3.6l-4.9 4.4c-.2.2-.4.2-.6.2-.2 0-.4-.1-.6-.2l-2.7-2.4c-.2-.2-.3-.4-.3-.6 0-.2.1-.4.3-.6.4-.3.9-.3 1.2 0l2.1 1.8 4.3-3.8c.3-.3.9-.3 1.2 0 .3.1.3.3.3.6ZM24.1 29.798c0 .2-.1.5-.2.7l-4.9 5.3c-.2.2-.4.3-.6.3-.2 0-.5-.1-.6-.3l-2.7-2.9c-.3-.4-.3-.9 0-1.3s.9-.4 1.3 0l2 2.2 4.2-4.6c.3-.4.9-.4 1.3 0 .2.1.2.3.2.6ZM24.1 39.795c0 .2-.1.4-.3.6l-4.9 4.4c-.2.2-.4.2-.6.2-.2 0-.4-.1-.6-.2l-2.7-2.4c-.2-.2-.3-.4-.3-.6 0-.2.1-.4.3-.6.4-.3.9-.3 1.2 0l2.1 1.9 4.3-3.8c.3-.3.9-.3 1.2 0 .3.1.3.3.3.5Z" fill="#fff"/><path d="M34 53.198c0 .5-.4 1-1 1H14.5c-1.2 0-2.3-.5-3.2-1.3-.8-.8-1.3-2-1.3-3.2v-36.8c0-1.2.5-2.3 1.3-3.2.8-.8 2-1.3 3.2-1.3h5.9c.5 0 1 .4 1 1 0 .5-.4 1-1 1h-5.9c-.7 0-1.3.3-1.8.8s-.8 1.1-.8 1.8v36.8c0 .7.3 1.3.8 1.8s1.1.8 1.8.8H33c.6-.2 1 .3 1 .8ZM46.4 12.897v22.6c0 .3-.1.5-.3.7-.2.2-.4.3-.7.3-.2 0-.5-.1-.7-.3-.2-.2-.3-.4-.3-.7v-22.6c0-.7-.3-1.3-.8-1.8-.4-.5-1-.8-1.7-.8h-5.7c-.5 0-1-.4-1-1 0-.5.4-1 1-1h5.7c1.2 0 2.3.5 3.2 1.3.8 1 1.3 2.1 1.3 3.3Z" fill="#fff"/><path d="M34.4 6.3c-.2-.2-.4-.3-.7-.3h-11c-.2 0-.5.1-.7.3-.2.2-.3.4-.3.7v5.1c0 .2.1.5.3.7.2.2.4.3.7.3h11c.3 0 .5-.1.7-.3.2-.2.3-.4.3-.7V7c0-.3-.1-.5-.3-.7Zm-1.6 1.6V11h-9.1V7.9h9.1ZM34.597 25.297c0 .5-.4 1-1 1h-7.8c-.5 0-1-.4-1-1 0-.5.4-1 1-1h7.8c.6.1 1 .5 1 1ZM37.197 22.094c0 .5-.4 1-.9 1h-10.5c-.2 0-.5-.1-.7-.3-.2-.2-.3-.4-.3-.7 0-.2.1-.5.3-.7.2-.2.4-.3.7-.3h10.5c.5.1.9.5.9 1ZM34.597 34.898c0 .2-.1.5-.3.7-.2.2-.4.3-.7.3h-7.8c-.5 0-1-.4-1-1 0-.5.4-1 1-1h7.8c.2 0 .5.1.7.3.2.2.3.5.3.7ZM31.097 44.297c0 .5-.4 1-1 1h-4.3c-.5 0-1-.4-1-1 0-.5.4-1 1-1h4.3c.5.1 1 .5 1 1ZM37.197 31.695c0 .2-.1.5-.3.7-.2.2-.4.3-.7.3h-10.4c-.5 0-1-.4-1-1 0-.5.4-1 1-1h10.5c.2 0 .5.1.7.3.1.2.2.5.2.7ZM55.297 44.895c-.5-1.7-1.6-3.2-3.1-4.2-1.3-.8-2.9-1.2-4.5-1l.5-.8c.1-.2.2-.5.1-.7-.1-.2-.2-.5-.4-.6-.2-.1-.5-.2-.7-.1-.2.1-.5.2-.6.4l-1.1 2c-2.1-1-4.5-1-6.6 0-2.2 1-3.8 3-4.3 5.3-.6 2.4 0 4.8 1.5 6.7 1.5 1.9 3.7 2.9 6.1 2.9h.1c2.4 0 4.7-1.2 6.1-3.1 1.3-1.8 1.9-4 1.5-6.1 1.5.7 3.2.8 4.7.4.2-.1.5-.2.6-.5.1-.1.2-.4.1-.6Zm-2.2-.5c-1 0-2-.2-2.8-.7-.9-.5-1.6-1.2-2-2.1 1 0 2 .2 2.9.7.7.4 1.4 1.2 1.9 2.1Zm-7.2 7.2c-1.4 1.1-3.2 1.6-5 1.2-1.8-.4-3.2-1.5-4.1-3.1-.8-1.6-.9-3.5-.1-5.1.7-1.7 2.2-2.9 3.9-3.3.5-.1 1-.2 1.5-.2.8 0 1.6.2 2.3.5l-.5.9c-.1.2-.2.5-.1.7.1.2.2.5.5.6.5.3 1 .1 1.3-.4l.5-.8c1.2 1.1 2 2.7 2 4.4 0 1.8-.8 3.4-2.2 4.6Z" fill="#fff"/></g></symbol><symbol id="icon-youtube" viewBox="0 0 32 32"><g fill="none"><path d="m13.33 20.005 6.92-4-6.92-4v8Zm15.414-10.44c.173.627.293 1.467.373 2.534.094 1.066.134 1.986.134 2.786l.08 1.12c0 2.92-.214 5.067-.587 6.44-.333 1.2-1.107 1.974-2.307 2.307-.626.173-1.773.293-3.533.373a88.9 88.9 0 0 1-4.787.134l-2.12.08c-5.586 0-9.066-.214-10.44-.587-1.2-.333-1.973-1.107-2.306-2.307-.174-.627-.294-1.466-.374-2.533a32.08 32.08 0 0 1-.133-2.787l-.08-1.12c0-2.92.213-5.066.587-6.44.333-1.2 1.106-1.973 2.306-2.306.627-.174 1.774-.294 3.534-.374a88.86 88.86 0 0 1 4.786-.133l2.12-.08c5.587 0 9.067.213 10.44.587 1.2.333 1.974 1.106 2.307 2.306Z" fill="#fff"/></g></symbol><symbol id="logo-intro" viewBox="0 0 434 134"><g fill="none"><path d="M209.769 6.2a10.579 10.579 0 0 0-7.517-3.16 10.434 10.434 0 0 0-7.534 3.218 10.81 10.81 0 0 0-7.658-3.219 10.574 10.574 0 0 0-7.517 3.16 9.937 9.937 0 0 0-2.883 7.27c.297 11.589 15.621 17.87 17.116 18.454.286.118.591.18.901.18a2.27 2.27 0 0 0 1.049-.255c2.296-.93 16.637-7.169 16.926-18.38a9.937 9.937 0 0 0-2.883-7.268ZM194.66 27.42c-3.023-1.333-13.3-6.42-13.498-14.067a5.474 5.474 0 0 1 1.603-4.017 6.321 6.321 0 0 1 4.295-1.81c4.767-.182 8.823 6.815 8.715 10.33 1.801-1.235 2.586-5.392 1.454-7.549a5.944 5.944 0 0 1 5.023-2.782 6.047 6.047 0 0 1 4.295 1.811 5.492 5.492 0 0 1 1.603 4.017c-.198 7.663-10.483 12.75-13.49 14.075v-.008ZM277.063 69.586c0-9.417 2.852-17.3 8.558-23.649 5.705-6.349 13.115-9.52 22.229-9.515 9.164 0 16.599 3.153 22.304 9.458 5.705 6.305 8.553 14.207 8.542 23.706 0 9.433-2.85 17.346-8.55 23.739-5.7 6.393-13.135 9.589-22.304 9.589-9.153 0-16.574-3.177-22.263-9.532-5.689-6.354-8.527-14.286-8.516-23.796Zm18.256 0c0 4.532 1.101 8.283 3.304 11.252a11.64 11.64 0 0 0 4.089 3.295 11.683 11.683 0 0 0 10.247-.032 11.643 11.643 0 0 0 4.069-3.32 18.176 18.176 0 0 0 3.37-11.195c0-4.456-1.068-8.075-3.205-10.857a11.072 11.072 0 0 0-4.101-3.519 11.114 11.114 0 0 0-5.283-1.165 10.895 10.895 0 0 0-5.106 1.09 10.853 10.853 0 0 0-4.006 3.339c-2.252 2.957-3.378 6.661-3.378 11.112ZM177.493 74.21V58.054c.033-7.134-2.17-12.608-6.608-16.422-4.009-3.457-9.376-5.188-16.1-5.194-3.557.071-7.048.97-10.194 2.626a53.38 53.38 0 0 0-7.509 4.939 17.772 17.772 0 0 0-7.707-5.704 25.318 25.318 0 0 0-9.252-1.828 22.852 22.852 0 0 0-9.384 1.828 14.466 14.466 0 0 0-6.345 5.194 9.8 9.8 0 0 0-3.196-3.935 9.75 9.75 0 0 0-5.932-1.885 8.569 8.569 0 0 0-6.608 2.733 9.594 9.594 0 0 0-2.478 6.733V92.13a9.517 9.517 0 0 0 2.569 6.898 8.698 8.698 0 0 0 6.559 2.684 8.565 8.565 0 0 0 6.608-2.742 9.699 9.699 0 0 0 2.536-6.84V63.05a12.79 12.79 0 0 1 2.379-7.87 8.631 8.631 0 0 1 6.747-3.194c1.293.006 2.568.3 3.731.864a8.611 8.611 0 0 1 2.987 2.388 12.533 12.533 0 0 1 2.478 7.811V92.13a9.533 9.533 0 0 0 2.57 6.898 8.695 8.695 0 0 0 6.492 2.65 8.57 8.57 0 0 0 3.607-.646 8.534 8.534 0 0 0 3.002-2.094 9.668 9.668 0 0 0 2.478-6.808V63.05a12.79 12.79 0 0 1 2.379-7.87 8.631 8.631 0 0 1 6.747-3.194c1.293.006 2.568.3 3.731.864a8.62 8.62 0 0 1 2.987 2.388 12.533 12.533 0 0 1 2.478 7.811V92.13a9.55 9.55 0 0 0 2.57 6.898 8.53 8.53 0 0 0 5.542 2.651H177.46l.033-27.468ZM360.223 12.979a9.2 9.2 0 0 0-6.567-2.791 9.223 9.223 0 0 0-6.592 2.733 9.708 9.708 0 0 0-2.479 6.849v72.36a9.62 9.62 0 0 0 2.545 6.899 8.45 8.45 0 0 0 5.609 2.642h10.103V19.77a9.647 9.647 0 0 0-2.619-6.791ZM199.983 40.305a9.236 9.236 0 0 0-6.567-2.774 9.266 9.266 0 0 0-6.592 2.716 9.596 9.596 0 0 0-2.52 6.8v45.148a9.505 9.505 0 0 0 2.545 6.857 8.469 8.469 0 0 0 5.609 2.625h10.102v-54.63a9.551 9.551 0 0 0-2.577-6.742ZM261.41 37.487v.173a8.408 8.408 0 0 0-4.502 1.827 10.482 10.482 0 0 0-3.024 3.919 18.215 18.215 0 0 0-6.782-5.458 22.804 22.804 0 0 0-8.954-1.54c-7.969 0-14.666 3.208-20.09 9.623-5.425 6.415-8.131 14.328-8.12 23.74 0 8.78 2.202 16.149 6.608 22.108 4.852 6.553 11.46 9.829 19.826 9.829h.371c2.978.06 5.942-.406 8.757-1.375a16.325 16.325 0 0 0 7.724-5.762c0 5.41-1.173 9.494-3.519 12.248-2.347 2.755-6.248 4.127-11.706 4.116-4.009 0-8.586-1.292-13.729-3.877a13.31 13.31 0 0 0-5.609-1.597 7.157 7.157 0 0 0-5.213 2.511 7.829 7.829 0 0 0-2.404 5.531c0 4.522 3.36 8.075 10.079 10.66a48.07 48.07 0 0 0 17.273 3.045c9.747 0 17.518-2.453 23.311-7.359 6.554-5.63 9.828-13.974 9.822-25.031v-57.33H261.41Zm-11.499 43.461a11.74 11.74 0 0 1-4.075 3.302 11.783 11.783 0 0 1-10.238.064 11.746 11.746 0 0 1-4.117-3.25c-2.202-2.93-3.304-6.772-3.304-11.524 0-4.45 1.115-8.15 3.346-11.096a10.868 10.868 0 0 1 4.041-3.35 10.912 10.912 0 0 1 5.145-1.07 11.246 11.246 0 0 1 5.275 1.176 11.205 11.205 0 0 1 4.109 3.5c2.115 2.787 3.172 6.417 3.172 10.89 0 4.576-1.118 8.368-3.354 11.375v-.017ZM428.393 12.984a8.492 8.492 0 0 0-6.559-2.79 8.586 8.586 0 0 0-6.609 2.732 9.732 9.732 0 0 0-2.478 6.84v21.83a23.674 23.674 0 0 0-5.907-3.638 24.404 24.404 0 0 0-9.235-1.54c-7.963 0-14.66 3.21-20.09 9.631-5.43 6.42-8.162 14.265-8.195 23.533 0 9.285 2.735 17.163 8.203 23.632 5.469 6.47 12.146 9.702 20.032 9.697 6.653 0 11.885-2.338 15.696-7.013a10.128 10.128 0 0 0 3.354 4.115 8.438 8.438 0 0 0 4.229 1.688h10.119V19.775a9.725 9.725 0 0 0-2.56-6.791Zm-19.05 67.793a11.672 11.672 0 0 1-4.079 3.322 11.728 11.728 0 0 1-10.266.031 11.685 11.685 0 0 1-4.101-3.296c-2.203-2.968-3.304-6.719-3.304-11.252 0-4.532 1.118-8.236 3.354-11.112a10.878 10.878 0 0 1 4.048-3.356 10.927 10.927 0 0 1 5.154-1.072 11.173 11.173 0 0 1 5.295 1.165 11.121 11.121 0 0 1 4.114 3.518c2.093 2.782 3.139 6.401 3.139 10.857 0 4.456-1.118 8.188-3.354 11.195ZM80.621 89.292a54.786 54.786 0 0 0-2.346-7.236L60.02 32.48C57.266 25 54.757 20.25 52.494 18.23a12.418 12.418 0 0 0-8.55-3.02c-1.99-.039-3.96.409-5.736 1.303a12.197 12.197 0 0 0-4.458 3.824c-1.558 2.091-3.425 6.138-5.6 12.142L17.51 60.901 3.078 100.725s7.831 2.091 14.11.955a8.04 8.04 0 0 0 5.707-2.659l.157-.197a6.582 6.582 0 0 0 1.207-1.885 28.752 28.752 0 0 0 1.9-4.635l2.354-7.523h31.209l2.354 7.523c.909 3.219 2 5.49 3.246 6.832 1.564 1.723 3.792 2.585 6.683 2.585a9.765 9.765 0 0 0 6.609-2.124 7.204 7.204 0 0 0 2.478-5.762 22.53 22.53 0 0 0-.47-4.543ZM34.155 67.166l10.474-30.744 9.442 30.744H34.155ZM5.678 114.043l4.527 5.951v-5.062c0-1.161.388-1.729 1.223-1.729.834 0 1.222.568 1.222 1.729v7.836c0 1.012-.33 1.465-1.115 1.465a2.579 2.579 0 0 1-1.693-1.202l-4.13-5.457v4.939c0 1.16-.389 1.736-1.223 1.736-.835 0-1.231-.576-1.231-1.736v-7.606c0-1.07.355-1.687 1.14-1.687a1.65 1.65 0 0 1 1.28.823ZM18.36 124.314c-1.95 0-3.61-1.712-3.61-4.206 0-2.494 1.652-4.214 3.7-4.214a2.338 2.338 0 0 1 1.909.823c.1-.218.259-.403.459-.535.2-.133.433-.207.673-.214.826 0 1.181.551 1.181 1.712v4.782c0 1.161-.38 1.729-1.181 1.729a1.162 1.162 0 0 1-1.132-.823 2.533 2.533 0 0 1-2 .946Zm-1.165-4.231c0 1.202.67 2.066 1.545 2.066.876 0 1.561-.889 1.561-2.066 0-1.177-.702-2.025-1.561-2.025-.86 0-1.545.848-1.545 2.025ZM28.12 115.158v1.103h.323c.95 0 1.511.362 1.511 1.004s-.495 1.029-1.511 1.029h-.322v4.206c0 1.161-.364 1.729-1.173 1.729-.81 0-1.198-.568-1.198-1.729v-4.206h-.091c-.826 0-1.346-.412-1.346-1.029s.487-1.004 1.437-1.004v-1.103c0-1.161.38-1.72 1.198-1.72.817 0 1.173.6 1.173 1.72ZM33.996 117.712v2.683c0 1.12.256 1.754 1.23 1.754.975 0 1.223-.634 1.223-1.754v-2.683c0-1.161.38-1.712 1.198-1.712s1.173.551 1.173 1.712v3.169c0 2.272-1.28 3.433-3.593 3.433-2.313 0-3.602-1.161-3.602-3.433v-3.169c0-1.161.38-1.712 1.198-1.712s1.173.551 1.173 1.712ZM45.152 115.891a1.253 1.253 0 0 1 1.206 1.234c0 .947-1.058 1.021-2.024 1.474-.66.321-.752.609-.752 1.415v2.47c0 1.16-.363 1.728-1.181 1.728-.818 0-1.198-.568-1.198-1.728v-4.783c0-1.16.38-1.712 1.198-1.712a1.276 1.276 0 0 1 1.132.749 2.328 2.328 0 0 1 1.619-.847ZM51.118 124.314c-1.958 0-3.618-1.712-3.618-4.206 0-2.494 1.652-4.214 3.709-4.214a2.318 2.318 0 0 1 1.9.823 1.292 1.292 0 0 1 1.14-.749c.826 0 1.173.551 1.173 1.712v4.782c0 1.161-.372 1.729-1.173 1.729a1.174 1.174 0 0 1-1.14-.823 2.476 2.476 0 0 1-1.99.946Zm-1.165-4.23c0 1.201.661 2.066 1.537 2.066.875 0 1.561-.889 1.561-2.066 0-1.178-.694-2.025-1.561-2.025s-1.537.847-1.537 2.025ZM60.27 114.338v8.157c0 1.16-.364 1.728-1.182 1.728-.817 0-1.197-.568-1.197-1.728v-8.157c0-1.161.38-1.721 1.197-1.721.818 0 1.182.593 1.182 1.721ZM65.364 122.856a1.357 1.357 0 0 1-1.38 1.366 1.335 1.335 0 0 1-1.37-1.366 1.37 1.37 0 0 1 .822-1.366 1.382 1.382 0 0 1 1.856.808c.062.179.087.369.072.558ZM80.05 117.524v-2.577c0-1.16.396-1.728 1.23-1.728s1.223.568 1.223 1.728v7.565c0 1.16-.397 1.737-1.223 1.737-.826 0-1.23-.577-1.23-1.737v-2.725h-4.503v2.725c0 1.16-.396 1.737-1.23 1.737-.835 0-1.223-.577-1.223-1.737v-7.565c0-1.16.396-1.728 1.222-1.728s1.231.568 1.231 1.728v2.577h4.502ZM88.87 122.269c1.19 0 1.967-.774 2.479-.774a.9.9 0 0 1 .68.25.895.895 0 0 1 .27.672c0 .938-1.512 1.926-3.585 1.926a4.072 4.072 0 0 1-3.86-2.594 4.048 4.048 0 0 1-.27-1.612 4.001 4.001 0 0 1 2.422-3.886 4.048 4.048 0 0 1 1.584-.329 3.836 3.836 0 0 1 3.618 2.402c.191.476.284.987.273 1.5 0 .823-.38.963-1.182.963h-4.262a1.64 1.64 0 0 0 .604 1.125 1.65 1.65 0 0 0 1.23.357Zm1.33-3.021a1.53 1.53 0 0 0-.503-1.007c-.29-.26-.668-.4-1.058-.393a1.59 1.59 0 0 0-1.586 1.4h3.148ZM97.634 124.314c-1.95 0-3.618-1.712-3.618-4.206 0-2.494 1.652-4.214 3.709-4.214a2.338 2.338 0 0 1 1.908.823 1.281 1.281 0 0 1 1.132-.749c.826 0 1.181.551 1.181 1.712v4.782c0 1.161-.38 1.729-1.181 1.729a1.161 1.161 0 0 1-1.132-.823 2.532 2.532 0 0 1-2 .946Zm-1.165-4.231c0 1.202.67 2.066 1.545 2.066.875 0 1.553-.889 1.553-2.066 0-1.177-.694-2.025-1.553-2.025-.86 0-1.545.848-1.545 2.025ZM106.785 114.338v8.157c0 1.16-.364 1.728-1.181 1.728-.818 0-1.19-.568-1.19-1.728v-8.157c0-1.161.372-1.721 1.19-1.721.817 0 1.181.593 1.181 1.721ZM112.316 115.158v1.103h.314c.95 0 1.512.362 1.512 1.004s-.496 1.029-1.512 1.029h-.314v4.206c0 1.161-.363 1.729-1.181 1.729-.818 0-1.198-.568-1.198-1.729v-4.206h-.091c-.826 0-1.346-.412-1.346-1.029s.487-1.004 1.437-1.004v-1.103c0-1.161.38-1.72 1.198-1.72s1.181.6 1.181 1.72ZM118.184 116.693a2.638 2.638 0 0 1 2.032-.692c1.859 0 2.9 1.004 2.9 3.07v3.408c0 1.161-.364 1.745-1.181 1.745-.818 0-1.19-.568-1.19-1.728v-2.7c0-1.251-.306-1.778-1.272-1.778-.967 0-1.305.543-1.305 1.728v2.717c0 1.16-.364 1.745-1.173 1.745-.81 0-1.198-.568-1.198-1.729v-8.141c0-1.16.38-1.736 1.198-1.736.817 0 1.173.576 1.173 1.736v2.338l.016.017ZM127.145 117.145l1.346 3.589 1.462-3.786c.257-.65.562-.947 1.05-.947a1.082 1.082 0 0 1 1.101.676c.056.144.081.298.072.452a2.31 2.31 0 0 1-.19.823l-3.635 8.585c-.256.618-.512.972-1.041.972a1.102 1.102 0 0 1-.463-.057 1.065 1.065 0 0 1-.651-.636 1.059 1.059 0 0 1-.067-.46c.001-.286.068-.568.198-.823l.983-2.132-2.404-5.589a1.564 1.564 0 0 1-.14-.667 1.15 1.15 0 0 1 1.164-1.168c.67.024.942.428 1.215 1.168ZM136.474 122.856a1.358 1.358 0 0 1-1.38 1.366 1.334 1.334 0 0 1-1.371-1.366 1.373 1.373 0 0 1 1.375-1.481 1.384 1.384 0 0 1 1.303.923c.063.179.087.369.073.558ZM148.095 113.414c2.478 0 3.948 1.433 3.948 3.647 0 2.214-1.371 3.63-3.75 3.63h-1.652v1.835c0 1.161-.397 1.737-1.231 1.737-.834 0-1.222-.576-1.222-1.737v-7.408c0-1.185.33-1.712 1.652-1.712l2.255.008Zm-1.446 5.063h1.058c1.115 0 1.652-.486 1.652-1.416 0-.93-.546-1.408-1.652-1.408h-1.058v2.824ZM157.878 122.27c1.198 0 1.966-.774 2.478-.774a.894.894 0 0 1 .959.922c0 .939-1.512 1.926-3.586 1.926a4.064 4.064 0 0 1-2.971-1.219 4.052 4.052 0 0 1-1.159-2.987 4.002 4.002 0 0 1 2.423-3.886 4.028 4.028 0 0 1 1.583-.328 3.842 3.842 0 0 1 2.812 1.094 3.817 3.817 0 0 1 1.145 2.783c0 .823-.38.963-1.181.963h-4.271a1.65 1.65 0 0 0 1.768 1.506Zm1.33-3.021a1.518 1.518 0 0 0-1.553-1.399 1.59 1.59 0 0 0-1.062.397 1.577 1.577 0 0 0-.524 1.002h3.139ZM167.433 115.891a1.26 1.26 0 0 1 1.214 1.234c0 .947-1.065 1.021-2.032 1.474-.661.321-.752.609-.752 1.415v2.47c0 1.16-.363 1.728-1.181 1.728-.818 0-1.198-.568-1.198-1.728v-4.783c0-1.16.38-1.712 1.198-1.712a1.27 1.27 0 0 1 1.132.749 2.334 2.334 0 0 1 1.619-.847ZM175.008 113.811c0 .666-.413.872-1.09.979-.496.074-.579.214-.579.889v.576h.397c.95 0 1.512.363 1.512 1.005 0 .642-.496 1.029-1.512 1.029h-.397v4.206c0 1.16-.363 1.728-1.173 1.728-.809 0-1.197-.568-1.197-1.728v-4.206h-.091c-.826 0-1.347-.412-1.347-1.029 0-.618.488-1.005 1.438-1.005v-.452c0-2.083.892-3.186 2.478-3.186.966 0 1.561.469 1.561 1.194ZM180.386 122.269c1.198 0 1.966-.774 2.479-.774a.87.87 0 0 1 .683.247.88.88 0 0 1 .267.675c0 .938-1.512 1.926-3.586 1.926a4.082 4.082 0 0 1-3.859-2.594 4.055 4.055 0 0 1-.271-1.612 4 4 0 0 1 2.429-3.889 4.055 4.055 0 0 1 1.586-.326 3.841 3.841 0 0 1 3.61 2.403c.191.477.283.986.272 1.499 0 .823-.38.963-1.181.963h-4.229c.041.434.255.834.592 1.112.338.278.772.411 1.208.37Zm1.33-3.021a1.523 1.523 0 0 0-1.561-1.4c-.39 0-.768.142-1.06.4a1.586 1.586 0 0 0-.526 1h3.147ZM192.319 117.418a.956.956 0 0 1-.598.932.976.976 0 0 1-.385.072c-.437 0-.999-.362-1.652-.362-.966 0-1.652.823-1.652 2.066 0 1.243.653 2.025 1.743 2.025a14.103 14.103 0 0 0 1.652-.363.949.949 0 0 1 .917 1.021c0 .823-1.132 1.506-2.792 1.506-2.329 0-3.949-1.687-3.949-4.206a3.935 3.935 0 0 1 1.117-3.03 3.955 3.955 0 0 1 3.014-1.184c1.528 0 2.585.609 2.585 1.523ZM197.332 115.158v1.103h.322c.95 0 1.512.362 1.512 1.004s-.496 1.029-1.512 1.029h-.322v4.206c0 1.161-.364 1.729-1.173 1.729-.81 0-1.198-.568-1.198-1.729v-4.206h-.091c-.826 0-1.347-.412-1.347-1.029s.488-1.004 1.438-1.004v-1.103c0-1.161.38-1.72 1.198-1.72.817 0 1.173.6 1.173 1.72ZM203.442 122.856a1.328 1.328 0 0 1-.396.971 1.368 1.368 0 0 1-.975.395 1.339 1.339 0 0 1-.982-.389 1.34 1.34 0 0 1-.397-.977 1.373 1.373 0 0 1 1.375-1.481 1.387 1.387 0 0 1 1.013.441 1.366 1.366 0 0 1 .362 1.04Z" fill="#FBFBFB"/></g></symbol><symbol id="logo" viewBox="0 0 142 44"><g fill="none"><g clip-path="url(#a)" fill="#fff"><path d="M68.631 2.038A3.452 3.452 0 0 0 66.171 1a3.414 3.414 0 0 0-2.465 1.057A3.535 3.535 0 0 0 61.201 1a3.449 3.449 0 0 0-2.46 1.038 3.266 3.266 0 0 0-.943 2.386c.097 3.806 5.111 5.868 5.6 6.06a.74.74 0 0 0 .638-.024c.752-.306 5.444-2.354 5.538-6.036a3.264 3.264 0 0 0-.943-2.386Zm-4.944 6.968c-.989-.438-4.351-2.108-4.416-4.62a1.803 1.803 0 0 1 .524-1.318c.376-.37.879-.583 1.406-.595 1.56-.06 2.887 2.238 2.851 3.392.59-.405.846-1.77.476-2.478a1.941 1.941 0 0 1 3.049-.32 1.802 1.802 0 0 1 .524 1.32c-.065 2.516-3.43 4.186-4.413 4.621v-.002ZM90.648 22.843c0-3.092.934-5.68 2.8-7.765 1.867-2.085 4.292-3.127 7.274-3.125 2.998 0 5.431 1.035 7.297 3.106 1.867 2.07 2.799 4.665 2.795 7.784 0 3.097-.932 5.695-2.797 7.795-1.865 2.099-4.298 3.148-7.298 3.148-2.995 0-5.423-1.043-7.284-3.13-1.861-2.086-2.79-4.69-2.787-7.813Zm5.974 0c0 1.488.36 2.72 1.08 3.695a3.81 3.81 0 0 0 6.023-.02 5.984 5.984 0 0 0 1.102-3.675c0-1.463-.349-2.652-1.048-3.565a3.628 3.628 0 0 0-3.071-1.538 3.555 3.555 0 0 0-2.98 1.454c-.738.971-1.106 2.187-1.106 3.649ZM58.07 24.372v-5.306c.012-2.342-.71-4.14-2.162-5.392-1.311-1.135-3.067-1.703-5.267-1.705a7.46 7.46 0 0 0-3.335.862 17.472 17.472 0 0 0-2.457 1.622 5.815 5.815 0 0 0-2.522-1.873 8.256 8.256 0 0 0-3.027-.6 7.452 7.452 0 0 0-3.07.6 4.735 4.735 0 0 0-2.076 1.705c-.23-.515-.59-.96-1.046-1.292a3.181 3.181 0 0 0-1.941-.619 2.795 2.795 0 0 0-2.162.897 3.157 3.157 0 0 0-.811 2.211v14.774a3.136 3.136 0 0 0 .84 2.265 2.838 2.838 0 0 0 2.146.881 2.8 2.8 0 0 0 2.163-.9 3.192 3.192 0 0 0 .83-2.246v-9.55a4.208 4.208 0 0 1 .778-2.583 2.82 2.82 0 0 1 4.405.019c.55.74.835 1.643.811 2.565v9.549a3.134 3.134 0 0 0 .84 2.265 2.836 2.836 0 0 0 2.125.87 2.792 2.792 0 0 0 2.163-.9c.549-.612.84-1.413.81-2.235v-9.55a4.209 4.209 0 0 1 .779-2.583 2.821 2.821 0 0 1 4.405.019c.55.74.835 1.643.811 2.565v9.549a3.144 3.144 0 0 0 .84 2.265 2.787 2.787 0 0 0 1.814.87h3.306l.01-9.02ZM117.857 4.26a3.01 3.01 0 0 0-4.305-.019 3.19 3.19 0 0 0-.811 2.25v23.76c-.033.835.266 1.649.832 2.264a2.76 2.76 0 0 0 1.835.868h3.306V6.49a3.173 3.173 0 0 0-.857-2.23ZM65.43 13.231a3.02 3.02 0 0 0-4.306-.019 3.157 3.157 0 0 0-.825 2.233V30.27a3.131 3.131 0 0 0 .833 2.251c.48.51 1.136.817 1.835.862h3.305V15.445a3.143 3.143 0 0 0-.843-2.214ZM85.529 12.31v.057c-.54.05-1.052.26-1.473.6a3.44 3.44 0 0 0-.99 1.287 5.967 5.967 0 0 0-2.219-1.792 7.437 7.437 0 0 0-2.93-.505c-2.607 0-4.798 1.053-6.573 3.16-1.774 2.105-2.66 4.704-2.656 7.794 0 2.883.72 5.303 2.162 7.26 1.587 2.151 3.75 3.227 6.487 3.227h.121a8.256 8.256 0 0 0 2.865-.451 5.34 5.34 0 0 0 2.527-1.892c0 1.776-.384 3.117-1.151 4.021-.768.905-2.044 1.355-3.83 1.352-1.312 0-2.81-.425-4.492-1.273a4.343 4.343 0 0 0-1.835-.525 2.337 2.337 0 0 0-1.706.825 2.575 2.575 0 0 0-.786 1.816c0 1.485 1.099 2.651 3.297 3.5a15.676 15.676 0 0 0 5.652 1c3.189 0 5.731-.805 7.627-2.416 2.144-1.849 3.215-4.589 3.214-8.22V12.312h-3.311Zm-3.763 14.271a3.843 3.843 0 0 1-6.03.038c-.72-.962-1.08-2.223-1.08-3.784 0-1.461.364-2.675 1.094-3.643a3.559 3.559 0 0 1 3.005-1.451 3.667 3.667 0 0 1 3.07 1.535c.693.915 1.039 2.107 1.039 3.576 0 1.502-.366 2.747-1.098 3.735v-.006ZM140.164 4.262a2.772 2.772 0 0 0-2.146-.916 2.804 2.804 0 0 0-2.163.897 3.202 3.202 0 0 0-.81 2.246v7.168a7.732 7.732 0 0 0-1.933-1.195 7.96 7.96 0 0 0-3.022-.505c-2.605 0-4.796 1.054-6.573 3.162-1.777 2.108-2.67 4.684-2.681 7.727 0 3.05.895 5.636 2.684 7.76 1.789 2.125 3.974 3.186 6.554 3.184 2.177 0 3.889-.767 5.135-2.303.24.54.618 1.007 1.098 1.352.401.308.88.5 1.384.554h3.311V6.492a3.2 3.2 0 0 0-.838-2.23Zm-6.233 22.26a3.825 3.825 0 0 1-6.035.02c-.721-.976-1.081-2.207-1.081-3.696 0-1.488.365-2.704 1.097-3.648a3.566 3.566 0 0 1 3.011-1.454 3.643 3.643 0 0 1 3.078 1.538c.685.913 1.027 2.101 1.027 3.564 0 1.464-.365 2.689-1.097 3.676ZM26.375 29.312c-.2-.809-.457-1.603-.767-2.376l-5.974-16.279c-.9-2.456-1.721-4.015-2.462-4.678a4.054 4.054 0 0 0-2.797-.992 3.995 3.995 0 0 0-3.336 1.684c-.51.686-1.12 2.015-1.832 3.986L5.726 19.99 1.004 33.066s2.562.687 4.616.314a2.625 2.625 0 0 0 1.868-.873l.051-.065c.166-.182.3-.392.395-.62a9.46 9.46 0 0 0 .622-1.52l.77-2.471h10.211l.77 2.47c.298 1.057.654 1.803 1.063 2.244.511.565 1.24.848 2.186.848a3.187 3.187 0 0 0 2.162-.697 2.374 2.374 0 0 0 .811-1.892c0-.501-.052-1.001-.154-1.492Zm-15.203-7.265 3.427-10.095 3.09 10.095h-6.517ZM1.854 37.44l1.482 1.954v-1.662c0-.382.127-.568.4-.568s.4.186.4.568v2.573c0 .332-.109.48-.365.48a.84.84 0 0 1-.554-.394L1.865 38.6v1.622c0 .381-.127.57-.4.57s-.403-.189-.403-.57v-2.497c0-.352.117-.554.373-.554a.54.54 0 0 1 .42.27ZM6.001 40.813c-.637 0-1.18-.562-1.18-1.381 0-.82.54-1.384 1.21-1.384a.768.768 0 0 1 .625.27.422.422 0 0 1 .37-.246c.27 0 .386.181.386.562v1.57c0 .382-.124.568-.386.568a.381.381 0 0 1-.37-.27.827.827 0 0 1-.655.31Zm-.38-1.39c0 .395.218.679.505.679.286 0 .51-.292.51-.678 0-.387-.23-.665-.51-.665-.281 0-.506.278-.506.665ZM9.2 37.815v.362h.105c.31 0 .494.119.494.33 0 .21-.162.338-.494.338h-.106v1.38c0 .382-.119.568-.384.568s-.392-.186-.392-.567v-1.381h-.03c-.27 0-.44-.136-.44-.338 0-.203.16-.33.47-.33v-.362c0-.381.125-.565.392-.565.268 0 .384.197.384.565ZM11.12 38.648v.881c0 .368.083.576.402.576.32 0 .4-.208.4-.576v-.88c0-.382.124-.563.392-.563s.384.181.384.562v1.04c0 .747-.419 1.128-1.176 1.128-.757 0-1.178-.381-1.178-1.127v-1.04c0-.382.124-.563.392-.563.267 0 .383.181.383.562ZM14.768 38.055a.41.41 0 0 1 .395.405c0 .31-.346.335-.662.484-.216.105-.246.2-.246.465v.81c0 .382-.119.568-.387.568-.267 0-.391-.186-.391-.567v-1.57c0-.382.124-.563.391-.563a.416.416 0 0 1 .37.246.761.761 0 0 1 .53-.278ZM16.723 40.813c-.64 0-1.184-.562-1.184-1.381 0-.82.54-1.384 1.214-1.384a.76.76 0 0 1 .621.27.424.424 0 0 1 .373-.246c.27 0 .384.181.384.562v1.57c0 .382-.122.568-.384.568a.384.384 0 0 1-.373-.27.812.812 0 0 1-.651.31Zm-.381-1.39c0 .395.216.679.503.679.286 0 .51-.292.51-.678 0-.387-.227-.665-.51-.665-.284 0-.503.278-.503.665ZM19.716 37.541v2.679c0 .381-.119.568-.387.568-.267 0-.392-.187-.392-.568V37.54c0-.38.125-.564.392-.564.268 0 .387.194.387.564ZM21.386 40.338a.447.447 0 0 1-.452.448.438.438 0 0 1-.448-.448.452.452 0 1 1 .9 0ZM26.19 38.585v-.846c0-.38.13-.567.402-.567.274 0 .4.186.4.568v2.483c0 .381-.13.57-.4.57s-.402-.189-.402-.57v-.894h-1.473v.894c0 .381-.13.57-.403.57s-.4-.189-.4-.57V37.74c0-.382.13-.568.4-.568s.403.186.403.568v.845h1.473ZM29.076 40.147c.39 0 .644-.255.811-.255a.294.294 0 0 1 .29.183.293.293 0 0 1 .021.12c0 .308-.495.633-1.173.633a1.332 1.332 0 0 1-1.351-1.382 1.317 1.317 0 0 1 1.803-1.29 1.254 1.254 0 0 1 .78 1.188c0 .27-.124.316-.386.316h-1.395a.541.541 0 0 0 .6.487Zm.436-.992a.502.502 0 0 0-.511-.46.519.519 0 0 0-.52.46h1.03ZM31.938 40.813c-.638 0-1.184-.562-1.184-1.381 0-.82.54-1.384 1.213-1.384a.768.768 0 0 1 .625.27.42.42 0 0 1 .37-.246c.27 0 .387.181.387.562v1.57c0 .382-.125.568-.387.568a.38.38 0 0 1-.37-.27.827.827 0 0 1-.654.31Zm-.381-1.39c0 .395.219.679.505.679.287 0 .508-.292.508-.678 0-.387-.227-.665-.508-.665s-.505.278-.505.665ZM34.932 37.541v2.679c0 .381-.119.568-.387.568-.267 0-.389-.187-.389-.568V37.54c0-.38.122-.564.39-.564.267 0 .386.194.386.564ZM36.749 37.815v.362h.102c.311 0 .495.119.495.33 0 .21-.162.338-.495.338h-.102v1.38c0 .382-.12.568-.387.568s-.392-.186-.392-.567v-1.381h-.03c-.27 0-.44-.136-.44-.338 0-.203.16-.33.47-.33v-.362c0-.381.125-.565.392-.565.268 0 .387.197.387.565ZM38.664 38.312a.86.86 0 0 1 .665-.227c.608 0 .949.33.949 1.008v1.12c0 .38-.12.572-.387.572-.268 0-.39-.186-.39-.567v-.887c0-.41-.1-.584-.415-.584-.317 0-.428.179-.428.568v.892c0 .38-.118.573-.383.573s-.392-.187-.392-.568V37.54c0-.381.124-.57.392-.57.267 0 .383.189.383.57v.768l.006.005ZM41.599 38.462l.44 1.178.479-1.243c.084-.213.184-.31.343-.31a.351.351 0 0 1 .384.37.757.757 0 0 1-.062.27l-1.19 2.819c-.083.203-.167.319-.34.319a.356.356 0 0 1-.365-.227.354.354 0 0 1-.022-.152c0-.093.023-.186.065-.27l.322-.7-.787-1.835a.513.513 0 0 1-.046-.22.379.379 0 0 1 .381-.383c.22.008.309.14.398.384ZM44.648 40.338a.447.447 0 0 1-.452.448.438.438 0 0 1-.449-.448.452.452 0 1 1 .9 0ZM48.454 37.237c.811 0 1.292.47 1.292 1.197 0 .727-.449 1.192-1.227 1.192h-.54v.603c0 .381-.13.57-.403.57s-.4-.189-.4-.57v-2.432c0-.39.108-.563.54-.563l.738.003Zm-.473 1.662h.346c.365 0 .54-.16.54-.465 0-.305-.178-.462-.54-.462h-.346v.927ZM51.656 40.147c.392 0 .643-.254.81-.254a.291.291 0 0 1 .314.303c0 .308-.495.632-1.173.632a1.333 1.333 0 0 1-1.351-1.381 1.317 1.317 0 0 1 1.31-1.384 1.255 1.255 0 0 1 1.295 1.273c0 .27-.124.316-.386.316h-1.398a.54.54 0 0 0 .579.495Zm.435-.992a.497.497 0 0 0-.508-.46.52.52 0 0 0-.52.46h1.028ZM54.78 38.055a.413.413 0 0 1 .398.405c0 .31-.35.335-.665.484-.217.105-.246.2-.246.465v.81c0 .382-.12.568-.387.568s-.392-.186-.392-.567v-1.57c0-.382.125-.563.392-.563a.414.414 0 0 1 .37.246.767.767 0 0 1 .53-.278ZM57.257 37.368c0 .22-.135.287-.357.322-.162.024-.19.07-.19.292v.19h.13c.311 0 .495.118.495.329 0 .21-.162.338-.494.338h-.13v1.38c0 .382-.12.569-.384.569-.265 0-.392-.187-.392-.568v-1.381h-.03c-.27 0-.44-.135-.44-.338s.16-.33.47-.33v-.148c0-.684.292-1.046.811-1.046.316 0 .51.154.51.392ZM59.018 40.147c.392 0 .643-.255.81-.255a.29.29 0 0 1 .311.303c0 .308-.494.633-1.173.633a1.333 1.333 0 0 1-1.351-1.382 1.317 1.317 0 0 1 1.805-1.29 1.253 1.253 0 0 1 .779 1.188c0 .27-.124.316-.387.316H58.43a.54.54 0 0 0 .589.487Zm.435-.992a.5.5 0 0 0-.51-.46.521.521 0 0 0-.52.46h1.03ZM62.92 38.548a.315.315 0 0 1-.322.33c-.144 0-.327-.119-.54-.119-.317 0-.541.27-.541.678 0 .409.213.665.57.665.182-.028.363-.068.54-.118a.312.312 0 0 1 .3.335c0 .27-.37.494-.913.494-.762 0-1.292-.554-1.292-1.38a1.296 1.296 0 0 1 1.351-1.385c.5 0 .846.2.846.5ZM64.562 37.815v.362h.106c.31 0 .494.119.494.33 0 .21-.162.338-.494.338h-.106v1.38c0 .382-.118.568-.383.568s-.392-.186-.392-.567v-1.381h-.03c-.27 0-.44-.136-.44-.338 0-.203.159-.33.47-.33v-.362c0-.381.124-.565.392-.565.267 0 .383.197.383.565ZM66.561 40.338a.442.442 0 0 1-.448.448.44.44 0 0 1-.451-.448.452.452 0 1 1 .9 0Z"/></g></g></symbol></svg>